<?xml version="1.0" standalone="no"?>
<!DOCTYPE svg PUBLIC "-//W3C//DTD SVG 1.1//EN" "http://www.w3.org/Graphics/SVG/1.1/DTD/svg11.dtd" >
<svg>
<metadata>
Created by FontForge 20090914 at Mon Apr  1 03:24:42 2019
 By www-data
&#194;&#169; 2018 Microsoft Corporation. All rights reserved.
</metadata>
<defs>
<font id="Bahnschrift" horiz-adv-x="0" >
  <font-face 
    font-family="Bahnschrift"
    font-weight="400"
    font-stretch="normal"
    units-per-em="2048"
    panose-1="2 11 5 2 4 2 4 2 2 3"
    ascent="1626"
    descent="-422"
    x-height="1038"
    cap-height="1454"
    bbox="-2164 -504 2268 2014"
    underline-thickness="50"
    underline-position="-75"
    unicode-range="U+0020-U+2133"
  />
<missing-glyph horiz-adv-x="1468" 
d="M180 0v1454h1108v-1454h-1108zM355 175h758v1104h-758v-1104z" />
    <glyph glyph-name=".notdef" horiz-adv-x="1468" 
d="M180 0v1454h1108v-1454h-1108zM355 175h758v1104h-758v-1104z" />
    <glyph glyph-name="space" unicode=" " horiz-adv-x="350" 
 />
    <glyph glyph-name="exclam" unicode="!" horiz-adv-x="464" 
d="M130 1454h204v-1081h-204v1081zM130 204h204v-204h-204v204z" />
    <glyph glyph-name="quotedbl" unicode="&#x22;" horiz-adv-x="775" 
d="M130 1454h204v-510h-204v510zM441 1454h204v-510h-204v510z" />
    <glyph glyph-name="numbersign" unicode="#" horiz-adv-x="1278" 
d="M894 1454h163l-248 -1454h-163zM470 1454h163l-248 -1454h-163zM1208 1101v-169h-1059v169h1059zM1149 522v-169h-1059v169h1059z" />
    <glyph glyph-name="dollar" unicode="$" horiz-adv-x="1181" 
d="M393.5 8.5c-57.667 15.667 -111.669 39.0039 -162.002 70.0039s-97.5 69.833 -141.5 116.5v0l137 166v0c48 -58 101.167 -101.5 159.5 -130.5s121.833 -43.5 190.5 -43.5c94.667 0 165.334 18.5 212.001 55.5s70 93.167 70 168.5v1c0 48 -11.333 86 -34 114
s-52 49 -88 63s-82 26.333 -138 37c-2 0.666992 -3.83301 1 -5.5 1s-3.5 0.333008 -5.5 1l-10.5 2l-10.5 2c-89.333 16.667 -161.666 35.334 -216.999 56.001s-102.666 58.167 -141.999 112.5s-59 131.5 -59 231.5v1c0 97.333 17.667 178.166 53 242.499
s88.166 112.666 158.499 144.999s158.5 48.5 264.5 48.5c46.667 0 92.834 -4.83301 138.501 -14.5s90.834 -24.334 135.501 -44.001s89 -44.167 133 -73.5v0l-123 -169v0c-49.333 33.333 -97.5 58.166 -144.5 74.499s-93.5 24.5 -139.5 24.5c-88 0 -154 -18.167 -198 -54.5
s-66 -90.833 -66 -163.5v-1c0 -50 12.667 -89.167 38 -117.5s57.166 -49.166 95.499 -62.499s90.833 -27.333 157.5 -42l8 -2c2.66699 -0.666992 5.66699 -1.33398 9 -2.00098s6.5 -1.33398 9.5 -2.00098s6.16699 -1.33398 9.5 -2.00098
c78.667 -17.333 144.5 -38.5 197.5 -63.5s97.167 -65.167 132.5 -120.5s53 -130.666 53 -225.999v-2c0 -94 -18.333 -172.167 -55 -234.5s-91.5 -109 -164.5 -140s-164.5 -46.5 -274.5 -46.5c-64.667 0 -125.834 7.83301 -183.501 23.5zM493.998 1631h204v-1808h-204v1808z
" />
    <glyph glyph-name="percent" unicode="%" horiz-adv-x="1407" 
d="M1003 1454h179l-790 -1454h-179zM886 52.5c-42 45 -63 107.833 -63 188.5v125c0 80.667 21 143.5 63 188.5s101.667 67.5 179 67.5s137 -22.5 179 -67.5s63 -108.5 63 -190.5v-123c0 -81.333 -21.167 -144.333 -63.5 -189s-101.833 -67 -178.5 -67
c-77.333 0 -137 22.5 -179 67.5zM1120 166.5c13.333 15 20 36.5 20 64.5v147c0 26.667 -6.66699 47.334 -20 62.001s-31.666 22 -54.999 22c-24 0 -42.5 -7.33301 -55.5 -22s-19.5 -35.667 -19.5 -63v-146c0 -28.667 6.5 -50.334 19.5 -65.001s31.5 -22 55.5 -22
c23.333 0 41.666 7.5 54.999 22.5zM163 898.5c-42 45 -63 107.833 -63 188.5v125c0 80.667 21 143.5 63 188.5s101.667 67.5 179 67.5s137 -22.5 179 -67.5s63 -108.5 63 -190.5v-123c0 -81.333 -21.167 -144.333 -63.5 -189s-101.833 -67 -178.5 -67
c-77.333 0 -137 22.5 -179 67.5zM397 1012.5c13.333 15 20 36.5 20 64.5v147c0 26.667 -6.66699 47.334 -20 62.001s-31.666 22 -54.999 22c-24 0 -42.5 -7.33301 -55.5 -22s-19.5 -35.667 -19.5 -63v-146c0 -28.667 6.5 -50.334 19.5 -65.001s31.5 -22 55.5 -22
c23.333 0 41.666 7.5 54.999 22.5z" />
    <glyph glyph-name="ampersand" unicode="&#x26;" horiz-adv-x="1335" 
d="M492 578c-46.667 48.667 -86.3359 99.335 -119.003 152.002s-57.667 107.167 -75 163.5s-26 113.833 -26 172.5c0 127.333 34 225.833 102 295.5s164 104.5 288 104.5c123.333 0 218.833 -33.5 286.5 -100.5s101.5 -161.833 101.5 -284.5v-20h-204v20
c0 59.333 -16 105.166 -48 137.499s-77.333 48.5 -136 48.5c-59.333 0 -105.166 -17.5 -137.499 -52.5s-48.5 -84.5 -48.5 -148.5c0 -38.667 6.33301 -78.667 19 -120s31.334 -82.333 56.001 -123s54.334 -79.334 89.001 -116.001l665 -707h-259zM395.998 577.001
c-45.333 -41.333 -68 -99.666 -68 -174.999c0 -74 24.167 -131.5 72.5 -172.5s116.5 -61.5 204.5 -61.5c83.333 0 154.833 22.333 214.5 67s105 109.5 136 194.5s46.5 187.5 46.5 307.5h194c0 -158.667 -24.833 -294.167 -74.5 -406.5s-122.167 -198 -217.5 -257
s-210 -88.5 -344 -88.5c-90.667 0 -168.167 16.333 -232.5 49s-113.333 80.167 -147 142.5s-50.5 137.5 -50.5 225.5c0 118.667 32.667 213.667 98 285s157.666 112.666 276.999 123.999l84 -172c-83.333 0 -147.666 -20.667 -192.999 -62z" />
    <glyph glyph-name="quotesingle" unicode="'" horiz-adv-x="364" 
d="M80 1454h204v-510h-204v510z" />
    <glyph glyph-name="parenleft" unicode="(" horiz-adv-x="695" 
d="M268.5 119.5c-59 159.667 -88.5 335.833 -88.5 528.5s29.5 368.834 88.5 528.501s147.833 303.834 266.5 432.501l140 -127c-100.667 -112 -176 -237.333 -226 -376s-75 -291.334 -75 -458.001s25 -319.334 75 -458.001s125.333 -264.334 226 -377.001l-140 -126
c-118.667 128.667 -207.5 272.834 -266.5 432.501z" />
    <glyph glyph-name="parenright" unicode=")" horiz-adv-x="695" 
d="M20 -187c100.667 112.667 176 238.335 226 377.002s75 291.334 75 458.001s-25 319.334 -75 458.001s-125.333 264 -226 376l140 127c118.667 -128.667 207.5 -272.834 266.5 -432.501s88.5 -335.834 88.5 -528.501s-29.5 -368.834 -88.5 -528.501
s-147.833 -303.834 -266.5 -432.501z" />
    <glyph glyph-name="asterisk" unicode="*" horiz-adv-x="881" 
d="M376 1137l129 94l225 -310l-129 -94zM151 921l225 310l129 -94l-225 -310zM52 1227l49 151l364 -118l-49 -152zM361 1567h159v-383h-159v383zM416 1260l364 118l49 -151l-364 -119z" />
    <glyph glyph-name="plus" unicode="+" horiz-adv-x="1082" 
d="M952 767v-194h-812v194h812zM648 264h-204v812h204v-812z" />
    <glyph glyph-name="comma" unicode="," horiz-adv-x="464" 
d="M130 204h204v-204l-204 -202v406z" />
    <glyph glyph-name="hyphen" unicode="-" horiz-adv-x="982" 
d="M832 618v-194h-672v194h672z" />
    <glyph glyph-name="period" unicode="." horiz-adv-x="464" 
d="M130 204h204v-204h-204v204z" />
    <glyph glyph-name="slash" unicode="/" horiz-adv-x="775" 
d="M185 -276h-195l675 1902h195z" />
    <glyph glyph-name="zero" unicode="0" horiz-adv-x="1130" 
d="M255.5 94c-70.333 72.667 -105.5 174 -105.5 304v661c0 130.667 35.333 232.167 106 304.5s173.667 108.5 309 108.5c136 0 239.167 -36 309.5 -108s105.5 -173.667 105.5 -305v-661c0 -130.667 -35.333 -232.167 -106 -304.5s-173.667 -108.5 -309 -108.5
c-136 0 -239.167 36.333 -309.5 109zM724.5 235.5c34.333 37.667 51.5 91.834 51.5 162.501v661c0 70.667 -17 124.834 -51 162.501s-87.333 56.5 -160 56.5s-126 -18.833 -160 -56.5s-51 -91.834 -51 -162.501v-661c0 -70.667 17.167 -124.834 51.5 -162.501
s87.5 -56.5 159.5 -56.5s125.167 18.833 159.5 56.5z" />
    <glyph glyph-name="one" unicode="1" horiz-adv-x="681" 
d="M501 0h-204v1232l-207 -127v211l207 138h204v-1454z" />
    <glyph glyph-name="two" unicode="2" horiz-adv-x="1058" 
d="M128 177l507 676c29.333 38.667 52.166 78.834 68.499 120.501s24.5 80.5 24.5 116.5v2c0 58 -17 103 -51 135s-82.333 48 -145 48c-59.333 0 -107.333 -17.5 -144 -52.5s-59 -84.5 -67 -148.5v-1h-211v1c12 83.333 36.5 154.5 73.5 213.5s84.833 104 143.5 135
s126.334 46.5 203.001 46.5c86.667 0 160.667 -14.833 222 -44.5s108 -72.834 140 -129.501s48 -125 48 -205v-1c0 -51.333 -10.667 -105 -32 -161s-51 -110 -89 -162l-421 -572h550v-194h-820v177z" />
    <glyph glyph-name="three" unicode="3" horiz-adv-x="1083" 
d="M311 29.5c-62 29.667 -111.833 72.668 -149.5 129.001s-61.5 124.166 -71.5 203.499v0h208v0c6 -41.333 19 -75.333 39 -102s45.833 -46.5 77.5 -59.5s68.834 -19.5 111.501 -19.5c67.333 0 119.666 18 156.999 54s56 86.667 56 152v44
c0 72.667 -17.667 128.834 -53 168.501s-85.333 59.5 -150 59.5h-103v194h103c56.667 0 100.667 17 132 51s47 82 47 144v45c0 57.333 -16.5 101.666 -49.5 132.999s-79.833 47 -140.5 47c-34.667 0 -65.667 -6.5 -93 -19.5s-50.5 -33 -69.5 -60
s-32.833 -60.833 -41.5 -101.5v0h-207v0c13.333 79.333 38.5 147.333 75.5 204s83.833 99.667 140.5 129s121.667 44 195 44c125.333 0 222.333 -33 291 -99s103 -159 103 -279v-24c0 -72.667 -19.667 -136 -59 -190s-95 -93.333 -167 -118
c79.333 -17.333 140.833 -56.333 184.5 -117s65.5 -138 65.5 -232v-24c0 -84.667 -16.333 -157 -49 -217s-80.167 -105.667 -142.5 -137s-137.5 -47 -225.5 -47c-81.333 0 -153 14.833 -215 44.5z" />
    <glyph glyph-name="four" unicode="4" horiz-adv-x="1165" 
d="M130 400l488 1053h210l-476 -1041h713v-189h-935v177zM757 855h199v-856h-199v856z" />
    <glyph glyph-name="five" unicode="5" horiz-adv-x="1115" 
d="M360.5 28c-57 28.667 -103.33 70.332 -138.997 124.999s-59.5 120.334 -71.5 197.001v1h204v-1c7.33301 -53.333 28.666 -94.833 63.999 -124.5s81.333 -44.5 138 -44.5c65.333 0 115.833 21.833 151.5 65.5s53.5 105.167 53.5 184.5v122
c0 78.667 -17.833 139.834 -53.5 183.501s-86.167 65.5 -151.5 65.5c-35.333 0 -69.333 -10 -102 -30s-61.334 -48 -86.001 -84h-186v766h741v-194h-537v-327c25.333 20.667 53.666 36.667 84.999 48s63.333 17 96 17c84 0 155.833 -17.333 215.5 -52
s105 -85.334 136 -152.001s46.5 -147 46.5 -241v-122c0 -94 -16 -174.333 -48 -241s-78.667 -117.5 -140 -152.5s-135 -52.5 -221 -52.5c-73.333 0 -138.5 14.333 -195.5 43z" />
    <glyph glyph-name="six" unicode="6" horiz-adv-x="1051" 
d="M306 36.5c-60.667 34.333 -106.833 84.335 -138.5 150.002s-47.5 144.834 -47.5 237.501v1c0 54 6.33301 110.667 19 170s31 117.666 55 174.999c4 10 8.33301 19.833 13 29.5l14 28.5l316 626h220l-371 -725l1 36c16.667 31.333 41 55.666 73 72.999s69.333 26 112 26
c75.333 0 140 -17 194 -51s95 -83.5 123 -148.5s42 -143.167 42 -234.5v-1c0 -93.333 -15.833 -173.333 -47.5 -240s-78 -117.334 -139 -152.001s-134.167 -52 -219.5 -52s-158.333 17.167 -219 51.5zM674.501 241.002c35 40 52.5 97.001 52.5 171.001v1
c0 81.333 -18.333 144.166 -55 188.499s-89 66.5 -157 66.5c-60.667 0 -107.667 -22.333 -141 -67s-50 -107.667 -50 -189v-1c0 -74 17.5 -130.833 52.5 -170.5s84.5 -59.5 148.5 -59.5c64.667 0 114.5 20 149.5 60z" />
    <glyph glyph-name="seven" unicode="7" horiz-adv-x="1031" 
d="M901 1272l-376 -1272h-217l376 1260h-370v-209h-204v403h791v-182z" />
    <glyph glyph-name="eight" unicode="8" horiz-adv-x="1152" 
d="M344 35c-66.667 33.333 -118.167 80.501 -154.5 141.501s-54.5 131.833 -54.5 212.5v24c0 72.667 18.167 141 54.5 205s84.833 112.333 145.5 145c-51.333 28 -92.5 68.5 -123.5 121.5s-46.5 108.833 -46.5 167.5v35c0 76 17 142.833 51 200.5s82 102.334 144 134.001
s134 47.5 216 47.5s154 -15.833 216 -47.5s110 -76.334 144 -134.001s51 -124.5 51 -200.5v-35c0 -60 -15.833 -116.333 -47.5 -169s-73.5 -92.667 -125.5 -120c61.333 -33.333 110.5 -81.833 147.5 -145.5s55.5 -131.834 55.5 -204.501v-24
c0 -80.667 -18.167 -151.5 -54.5 -212.5s-87.833 -108.167 -154.5 -141.5s-144 -50 -232 -50s-165.333 16.667 -232 50zM701 209.001c36 18.667 63.833 44.8301 83.5 78.4971s29.5 72.5 29.5 116.5v14c0 44.667 -9.83301 83.834 -29.5 117.501s-47.5 59.834 -83.5 78.501
s-77.667 28 -125 28s-89 -9.33301 -125 -28s-63.833 -45 -83.5 -79s-29.5 -73.333 -29.5 -118v-15c0 -44 9.83301 -82.667 29.5 -116s47.5 -59.166 83.5 -77.499s77.667 -27.5 125 -27.5s89 9.33301 125 28zM684 864.497c31.333 17.667 55.666 42.8311 72.999 75.498
s26 70.334 26 113.001v14c0 40.667 -8.66699 76.667 -26 108s-41.666 55.5 -72.999 72.5s-67.333 25.5 -108 25.5s-76.667 -8.5 -108 -25.5s-55.666 -41.167 -72.999 -72.5s-26 -67.666 -26 -108.999v-15c0 -42 8.66699 -79.167 26 -111.5s41.666 -57.333 72.999 -75
s67.333 -26.5 108 -26.5s76.667 8.83301 108 26.5z" />
    <glyph glyph-name="nine" unicode="9" horiz-adv-x="1051" 
d="M665 722l-1 -36.001c-16.667 -30.667 -41.834 -53.167 -75.501 -67.5s-73.5 -21.5 -119.5 -21.5c-69.333 0 -130.333 17.667 -183 53s-93.5 85.166 -122.5 149.499s-43.5 138.833 -43.5 223.5v1c0 94 15.833 174.333 47.5 241s78 117.334 139 152.001
s134.167 52 219.5 52s158.333 -17.667 219 -53s106.834 -86.666 138.501 -153.999s47.5 -148.333 47.5 -243v-1c0 -52 -6.66699 -107.5 -20 -166.5s-32.333 -117.5 -57 -175.5l-12 -26.5c-4 -9 -8.33301 -17.833 -13 -26.5l-310 -623h-220zM674.5 847.999
c35 43.333 52.5 104.333 52.5 183v1c0 76.667 -17.5 136 -52.5 178s-84.5 63 -148.5 63c-64.667 0 -114.5 -21 -149.5 -63s-52.5 -101.667 -52.5 -179v-1c0 -78.667 17.5 -139.5 52.5 -182.5s84.833 -64.5 149.5 -64.5c64 0 113.5 21.667 148.5 65z" />
    <glyph glyph-name="colon" unicode=":" horiz-adv-x="464" 
d="M130 204h204v-204h-204v204zM130 1038h204v-204h-204v204z" />
    <glyph glyph-name="semicolon" unicode=";" horiz-adv-x="464" 
d="M130 204h204v-204l-204 -202v406zM130 1038h204v-204h-204v204z" />
    <glyph glyph-name="less" unicode="&#x3c;" horiz-adv-x="869" 
d="M434 666h-364l669 409v-233zM739 256l-669 410h364l305 -175v-235z" />
    <glyph glyph-name="equal" unicode="=" horiz-adv-x="940" 
d="M140 926h670v-194h-670v194zM140 600h670v-194h-670v194z" />
    <glyph glyph-name="greater" unicode="&#x3e;" horiz-adv-x="879" 
d="M140 1075l669 -409h-364l-305 176v233zM445 666h364l-669 -410v235z" />
    <glyph glyph-name="question" unicode="?" horiz-adv-x="884" 
d="M324 562c16 55.333 35.332 102.001 57.999 140.001s52.334 81.667 89.001 131c26.667 36.667 47.667 66.834 63 90.501s28 50 38 79s15 60.167 15 93.5v1c0 58 -14.833 103 -44.5 135s-71.167 48 -124.5 48c-54 0 -95.833 -19.833 -125.5 -59.5
s-44.834 -95.834 -45.501 -168.501v-1h-207v1c2.66699 88 19.334 163.167 50.001 225.5s73.667 109.833 129 142.5s121 49 197 49c79.333 0 147.333 -14.667 204 -44s99.834 -71.833 129.501 -127.5s44.5 -122.834 44.5 -201.501v-1c0 -47.333 -6.16699 -90 -18.5 -128
s-27.333 -71 -45 -99s-41.834 -62 -72.501 -102c-33.333 -42.667 -60.333 -80.5 -81 -113.5s-38 -72.667 -52 -119s-21 -99.833 -21 -160.5h-204c0 70.667 8 133.667 24 189zM299.999 204.001h204v-204h-204v204z" />
    <glyph glyph-name="at" unicode="@" horiz-adv-x="1823" 
d="M600.5 97c-58.333 74.667 -87.5 186.667 -87.5 336v172c0 150 33.167 262.167 99.5 336.5s166.166 111.5 299.499 111.5s233 -37.167 299 -111.5s99 -186.833 99 -337.5v-323l-146 -58c-13.333 -79.333 -44.833 -138.833 -94.5 -178.5s-118.167 -59.5 -205.5 -59.5
c-117.333 0 -205.166 37.333 -263.499 112zM1065 232.5c34 42.333 51 106.5 51 192.5v191c0 84.667 -17 148 -51 190s-85.667 63 -155 63c-135.333 0 -203 -84.667 -203 -254v-190c0 -86 16.833 -150.167 50.5 -192.5s84.5 -63.5 152.5 -63.5c69.333 0 121 21.167 155 63.5z
M489 -299.5c-113.333 55 -198.169 137.504 -254.502 247.504s-84.5 248 -84.5 414v136c0 45.333 0.333008 90.666 1 135.999c1.33301 180 30.333 329.667 87 449s141.334 208.666 254.001 267.999s253.667 89 423 89c166.667 0 306.167 -29.833 418.5 -89.5
s197 -149.334 254 -269.001s85.5 -268.834 85.5 -447.501v-312c0 -115.333 -24 -200.333 -72 -255s-117.667 -82 -209 -82c-96.667 0 -169.167 26 -217.5 78s-72.5 130.667 -72.5 236l208 6c0 -49.333 7.33301 -86 22 -110s37 -36 67 -36c31.333 0 54.166 11.333 68.499 34
s21.5 59 21.5 109v332c0 140 -21.667 256.833 -65 350.5s-107.666 164 -192.999 211s-190.666 70.5 -315.999 70.5c-128.667 0 -235.667 -23.333 -321 -70s-149.5 -116.667 -192.5 -210s-65.167 -210.666 -66.5 -351.999c-0.666992 -44.667 -1 -89.667 -1 -135v-137
c0 -126 21.333 -230.833 64 -314.5s107 -146.334 193 -188.001s194 -62.5 324 -62.5h298v-179h-298c-170.667 0 -312.667 27.5 -426 82.5z" />
    <glyph glyph-name="A" unicode="A" horiz-adv-x="1326" 
d="M576 1454h174l536 -1454h-220l-403 1173l-403 -1173h-220zM287 513h765v-194h-765v194z" />
    <glyph glyph-name="B" unicode="B" horiz-adv-x="1322" 
d="M300 189l394.003 0.00195312c103.333 0 178.666 19.667 225.999 59s71 94.666 71 165.999v3c0 49.333 -8.5 91.666 -25.5 126.999s-43.833 62.5 -80.5 81.5s-83.667 28.5 -141 28.5h-444v184h444c75.333 0 132.166 17.667 170.499 53s57.5 87.666 57.5 156.999v0
c0 72.667 -21.333 127 -64 163s-106.667 54 -192 54h-416v189h453c94 0 172.667 -16 236 -48s110.666 -77.333 141.999 -136s47 -128.667 47 -210v0c0 -50 -9.66699 -96.833 -29 -140.5s-48.833 -81 -88.5 -112s-88.834 -51.833 -147.501 -62.5
c58.667 -8.66699 109.334 -29.5 152.001 -62.5s75.334 -74.167 98.001 -123.5s34 -102.666 34 -159.999v-3c0 -78.667 -17.333 -148 -52 -208s-84.334 -106.333 -149.001 -139s-140 -49 -226 -49h-470v189zM180.003 1454h203v-1454h-203v1454z" />
    <glyph glyph-name="C" unicode="C" horiz-adv-x="1267" 
d="M390.5 52c-76.333 44.667 -135.501 108.002 -177.501 190.002s-63 177 -63 285v399c0 108 21 203 63 285s101.167 145.5 177.5 190.5s164.833 67.5 265.5 67.5c83.333 0 160 -17.833 230 -53.5s128.5 -86.167 175.5 -151.5s78.833 -141 95.5 -227v0h-209v0
c-12.667 45.333 -33.834 85.833 -63.501 121.5s-64.5 63.167 -104.5 82.5s-81.333 29 -124 29c-59.333 0 -111.333 -14.333 -156 -43s-79.334 -68.834 -104.001 -120.501s-37 -111.834 -37 -180.501v-399c0 -68 12.333 -128 37 -180s59.334 -92.167 104.001 -120.5
s96.667 -42.5 156 -42.5c43.333 0 84.833 9 124.5 27s74.334 44.667 104.001 80s50.834 77.333 63.501 126v0h209v0c-16.667 -86 -48.667 -161.667 -96 -227s-106 -115.833 -176 -151.5s-146.333 -53.5 -229 -53.5c-100.667 0 -189.167 22.333 -265.5 67z" />
    <glyph glyph-name="D" unicode="D" horiz-adv-x="1344" 
d="M318 194h328.999c107.333 0 190.5 27.833 249.5 83.5s88.5 134.167 88.5 235.5v428c0 101.333 -29.5 179.833 -88.5 235.5s-142.167 83.5 -249.5 83.5h-329v194h323c116.667 0 216.334 -20.333 299.001 -61s145.667 -100 189 -178s65 -172 65 -282v-412
c0 -110 -21.667 -204 -65 -282s-106.5 -137.333 -189.5 -178s-182.833 -61 -299.5 -61h-322v194zM179.999 1454h204v-1454h-204v1454z" />
    <glyph glyph-name="E" unicode="E" horiz-adv-x="1224" 
d="M180 1454h204v-1454h-204v1454zM279 194h835v-194h-835v194zM279 819h725v-194h-725v194zM279 1454h835v-194h-835v194z" />
    <glyph glyph-name="F" unicode="F" horiz-adv-x="1145" 
d="M180 1454h204v-1454h-204v1454zM280 806h705v-194h-705v194zM280 1454h815v-194h-815v194z" />
    <glyph glyph-name="G" unicode="G" horiz-adv-x="1324" 
d="M1174 783l0.00585938 -253.997c0 -108 -21 -203.167 -63 -285.5s-101.5 -146 -178.5 -191s-166.167 -67.5 -267.5 -67.5c-102.667 0 -192.834 21.167 -270.501 63.5s-137.834 102.166 -180.501 179.499s-64 167 -64 269v429c0 108 21 203 63 285s101.5 145.5 178.5 190.5
s166.167 67.5 267.5 67.5c83.333 0 160.166 -17.833 230.499 -53.5s129.166 -86.167 176.499 -151.5s79.333 -141 96 -227v0h-221v0c-12 48.667 -32.333 90.5 -61 125.5s-62.334 61.667 -101.001 80s-78.667 27.5 -120 27.5c-60 0 -112.667 -14.333 -158 -43
s-80.333 -68.834 -105 -120.501s-37 -111.834 -37 -180.501v-429c0 -62.667 12.667 -117.5 38 -164.5s61.166 -83.5 107.499 -109.5s99.833 -39 160.5 -39c60 0 112.667 13.5 158 40.5s80.333 66.167 105 117.5s37 112.333 37 183v63h-295v195h504z" />
    <glyph glyph-name="H" unicode="H" horiz-adv-x="1390" 
d="M1006 1454h204v-1454h-204v1454zM180 1454h204v-1454h-204v1454zM307 813h807v-194h-807v194z" />
    <glyph glyph-name="I" unicode="I" horiz-adv-x="564" 
d="M384 0h-204v1454h204v-1454z" />
    <glyph glyph-name="J" unicode="J" horiz-adv-x="1035" 
d="M188 32c-64.667 31.333 -117.333 75.333 -158 132l167 120c18.667 -32.667 45.667 -58 81 -76s76.333 -27 123 -27c79.333 0 140.833 24.667 184.5 74s65.5 118.666 65.5 207.999v991h204v-992c0 -100.667 -17.667 -186.667 -53 -258s-87 -125.666 -155 -162.999
s-150 -56 -246 -56c-77.333 0 -148.333 15.667 -213 47z" />
    <glyph glyph-name="K" unicode="K" horiz-adv-x="1314" 
d="M340 638l642 816h251l-923 -1122zM180 1454h204v-1454h-204v1454zM582 776l161 149l551 -925h-250z" />
    <glyph glyph-name="L" unicode="L" horiz-adv-x="1174" 
d="M180 1454h204v-1454h-204v1454zM282 194h832v-194h-832v194z" />
    <glyph glyph-name="M" unicode="M" horiz-adv-x="1596" 
d="M1225 1454h191v-1454h-199v1089l10 -64l-358 -823h-142l-358 803l10 84v-1089h-199v1454h191l427 -960z" />
    <glyph glyph-name="N" unicode="N" horiz-adv-x="1434" 
d="M180 1454h185l711 -1124l-24 -26v1150h202v-1453h-187l-709 1107l24 26v-1133h-202v1453z" />
    <glyph glyph-name="O" unicode="O" horiz-adv-x="1322" 
d="M393 51.5c-77.333 44.333 -137.166 107 -179.499 188s-63.5 174.833 -63.5 281.5v412c0 106.667 21.167 200.5 63.5 281.5s102.166 143.667 179.499 188s166.666 66.5 267.999 66.5s190.666 -22.167 267.999 -66.5s137.166 -107 179.499 -188s63.5 -174.833 63.5 -281.5
v-412c0 -106.667 -21.167 -200.5 -63.5 -281.5s-102.166 -143.667 -179.499 -188s-166.666 -66.5 -267.999 -66.5s-190.666 22.167 -267.999 66.5zM819.5 226.5c45.667 27 81 65.333 106 115s37.5 107.167 37.5 172.5v426c0 65.333 -12.5 122.833 -37.5 172.5
s-60.333 88 -106 115s-98.5 40.5 -158.5 40.5s-112.833 -13.5 -158.5 -40.5s-81 -65.333 -106 -115s-37.5 -107.167 -37.5 -172.5v-426c0 -65.333 12.5 -122.833 37.5 -172.5s60.333 -88 106 -115s98.5 -40.5 158.5 -40.5s112.833 13.5 158.5 40.5z" />
    <glyph glyph-name="P" unicode="P" horiz-adv-x="1275" 
d="M285 758h465c44 0 82.667 10.333 116 31s59.166 50 77.499 88s27.5 81.667 27.5 131v0c0 50 -9.16699 94 -27.5 132s-44.166 67.5 -77.499 88.5s-72 31.5 -116 31.5h-465v194h458c86.667 0 163 -18.5 229 -55.5s117.167 -89.167 153.5 -156.5s54.5 -145.333 54.5 -234v0
c0 -88.667 -18.167 -166.5 -54.5 -233.5s-87.5 -118.833 -153.5 -155.5s-142.333 -55 -229 -55h-458v194zM180 1454h204v-1454h-204v1454z" />
    <glyph glyph-name="Q" unicode="Q" horiz-adv-x="1346" 
d="M658 403l106 135l542 -426l-106 -136zM393 51.5c-77.333 44.333 -137.166 107 -179.499 188s-63.5 174.833 -63.5 281.5v412c0 106.667 21.167 200.5 63.5 281.5s102.166 143.667 179.499 188s166.666 66.5 267.999 66.5s190.666 -22.167 267.999 -66.5
s137.166 -107 179.499 -188s63.5 -174.833 63.5 -281.5v-412c0 -106.667 -21.167 -200.5 -63.5 -281.5s-102.166 -143.667 -179.499 -188s-166.666 -66.5 -267.999 -66.5s-190.666 22.167 -267.999 66.5zM819.5 226.5c45.667 27 81 65.333 106 115s37.5 107.167 37.5 172.5
v426c0 65.333 -12.5 122.833 -37.5 172.5s-60.333 88 -106 115s-98.5 40.5 -158.5 40.5s-112.833 -13.5 -158.5 -40.5s-81 -65.333 -106 -115s-37.5 -107.167 -37.5 -172.5v-426c0 -65.333 12.5 -122.833 37.5 -172.5s60.333 -88 106 -115s98.5 -40.5 158.5 -40.5
s112.833 13.5 158.5 40.5z" />
    <glyph glyph-name="R" unicode="R" horiz-adv-x="1335" 
d="M269 809l496 0.00195312c38.667 0 73 9.33301 103 28s53.167 45.167 69.5 79.5s24.5 73.833 24.5 118.5v0c0 44.667 -8.16699 84.167 -24.5 118.5s-39.333 60.833 -69 79.5s-64.167 28 -103.5 28h-496v194h488c84 0 157.833 -17.333 221.5 -52s113 -83.834 148 -147.501
s52.5 -137.167 52.5 -220.5v0c0 -83.333 -17.667 -156.833 -53 -220.5s-84.833 -112.834 -148.5 -147.501s-137.167 -52 -220.5 -52h-488v194zM180 1455h204v-1455h-204v1455zM665 660.002l203 46l372 -706h-242z" />
    <glyph glyph-name="S" unicode="S" horiz-adv-x="1261" 
d="M418 5c-62.667 13.333 -121.164 33.335 -175.497 60.002s-105.166 60 -152.499 100v0l127 156v0c55.333 -48 116.333 -84 183 -108s139 -36 217 -36c105.333 0 187 19.5 245 58.5s87 94.167 87 165.5v1c0 50.667 -13.167 90.834 -39.5 120.501s-60.333 51.667 -102 66
s-95.5 27.5 -161.5 39.5c-2 0.666992 -4.16699 1 -6.5 1s-4.5 0.333008 -6.5 1l-15 3c-97.333 16.667 -176.5 35.5 -237.5 56.5s-113.167 59.333 -156.5 115s-65 134.834 -65 237.501v1c0 90 20.167 166.833 60.5 230.5s99.166 112.167 176.499 145.5s170.333 50 279 50
c52 0 103.167 -5.66699 153.5 -17s100 -28.166 149 -50.499s97.167 -50.5 144.5 -84.5v0l-116 -162v0c-55.333 40.667 -110.5 71.167 -165.5 91.5s-110.167 30.5 -165.5 30.5c-99.333 0 -176.5 -19.833 -231.5 -59.5s-82.5 -95.834 -82.5 -168.501v-1
c0 -50 14.167 -89.333 42.5 -118s63.666 -49.834 105.999 -63.501s101.166 -27.834 176.499 -42.501c2.66699 -0.666992 5.16699 -1.16699 7.5 -1.5s4.83301 -0.833008 7.5 -1.5c3.33301 -0.666992 7 -1.33398 11 -2.00098s7.66699 -1.33398 11 -2.00098
c88 -18 161.5 -39.333 220.5 -64s108.333 -64.5 148 -119.5s59.5 -130.167 59.5 -225.5v-2c0 -88.667 -21 -164.5 -63 -227.5s-102.833 -111 -182.5 -144s-175.834 -49.5 -288.501 -49.5c-70 0 -136.333 6.66699 -199 20z" />
    <glyph glyph-name="T" unicode="T" horiz-adv-x="986" 
d="M391 1335h204v-1335h-204v1335zM-20 1454h1026v-194h-1026v194z" />
    <glyph glyph-name="U" unicode="U" horiz-adv-x="1342" 
d="M394.5 48.5c-76.333 42.333 -134.5 104 -174.5 185s-60 178.5 -60 292.5v928h204v-935c0 -106 26.667 -188 80 -246s128.666 -87 225.999 -87c98 0 173.833 29 227.5 87s80.5 140 80.5 246v935h204v-928c0 -114 -20 -211.5 -60 -292.5s-98.333 -142.667 -175 -185
s-169 -63.5 -277 -63.5c-107.333 0 -199.166 21.167 -275.499 63.5z" />
    <glyph glyph-name="V" unicode="V" horiz-adv-x="1202" 
d="M30 1454h222l349 -1140l349 1140h222l-474 -1454h-194z" />
    <glyph glyph-name="W" unicode="W" horiz-adv-x="1734" 
d="M797 1454h140l298 -1140l257 1140h212l-355 -1454h-208l-268 1016l-280 -1016h-208l-355 1454h212l257 -1140z" />
    <glyph glyph-name="X" unicode="X" horiz-adv-x="1162" 
d="M535 639l-31 50l-472 765h229l351 -592l33 -54l497 -808h-229zM526 831l365 623h229l-481 -787l-390 -667h-229z" />
    <glyph glyph-name="Y" unicode="Y" horiz-adv-x="1030" 
d="M617 591v-591h-204v591l-443 863h227l318 -656l318 656h227z" />
    <glyph glyph-name="Z" unicode="Z" horiz-adv-x="1114" 
d="M1004 1278l-633 -1084h653v-194h-904v176l638 1084h-620v194h866v-176z" />
    <glyph glyph-name="bracketleft" unicode="[" horiz-adv-x="602" 
d="M190 1626h194v-1952h-194v1952zM290 -142h282v-184h-282v184zM290 1626h282v-184h-282v184z" />
    <glyph glyph-name="backslash" unicode="\" horiz-adv-x="775" 
d="M110 1626l675 -1902h-195l-675 1902h195z" />
    <glyph glyph-name="bracketright" unicode="]" horiz-adv-x="602" 
d="M218 1626h194v-1952h-194v1952zM30 -142h282v-184h-282v184zM30 1626h282v-184h-282v184z" />
    <glyph glyph-name="asciicircum" unicode="^" horiz-adv-x="1030" 
d="M520 1254v305l400 -559h-234zM120 1000l400 559v-305l-166 -254h-234z" />
    <glyph glyph-name="underscore" unicode="_" horiz-adv-x="892" 
d="M862 0v-194h-832v194h832z" />
    <glyph glyph-name="grave" unicode="`" horiz-adv-x="603" 
d="M85 1574l147 122l286 -355l-128 -103z" />
    <glyph glyph-name="a" unicode="a" horiz-adv-x="1090" 
d="M746 658c0 68 -18.165 120.835 -54.498 158.502s-87.833 56.5 -154.5 56.5c-41.333 0 -81.833 -6.33301 -121.5 -19s-74.834 -30.334 -105.501 -53.001l-149 102c39.333 47.333 91.166 84.166 155.499 110.499s135.833 39.5 214.5 39.5c86 0 159.667 -15.167 221 -45.5
s108 -74.333 140 -132s48 -127.167 48 -208.5v-667h-194v658zM205.002 64.502c-63.333 53 -95.001 133.501 -95.001 241.501c0 102.667 29 179.667 87 231s145.667 77 263 77h295l14 -164h-308c-53.333 0 -93.166 -11.833 -119.499 -35.5s-39.5 -59.834 -39.5 -108.501
c0 -52.667 17.5 -91.667 52.5 -117s88.167 -38 159.5 -38c78 0 136.167 8.33301 174.5 25s57.5 42.667 57.5 78l21 -146c-18 -28 -40.167 -51 -66.5 -69s-56.833 -31.5 -91.5 -40.5s-73.667 -13.5 -117 -13.5c-128 0 -223.667 26.5 -287 79.5z" />
    <glyph glyph-name="b" unicode="b" horiz-adv-x="1114" 
d="M456 31.5c-48 31 -83.3311 74.832 -105.998 131.499l14 217c0 -44.667 8 -82.667 24 -114s39.167 -55.333 69.5 -72s67.166 -25 110.499 -25c67.333 0 119.5 20.5 156.5 61.5s55.5 98.833 55.5 173.5v225c0 76 -18.5 135 -55.5 177s-89.167 63 -156.5 63
c-43.333 0 -80.166 -8 -110.499 -24s-53.5 -39.5 -69.5 -70.5s-24 -68.167 -24 -111.5l-21 200c31.333 60.667 72.333 107.5 123 140.5s107 49.5 169 49.5c73.333 0 136.166 -16.5 188.499 -49.5s92.166 -81.167 119.499 -144.5s41 -139.666 41 -228.999v-226
c0 -88 -14 -163.333 -42 -226s-69 -110.5 -123 -143.5s-118.667 -49.5 -194 -49.5c-64.667 0 -121 15.5 -169 46.5zM160.002 1454h204v-1454h-204v1454z" />
    <glyph glyph-name="c" unicode="c" horiz-adv-x="1020" 
d="M336.5 38c-67 35.333 -118.167 86.6689 -153.5 154.002s-53 148.666 -53 243.999v171c0 94 17.667 174.333 53 241s86.5 117.5 153.5 152.5s147.833 52.5 242.5 52.5c54 0 104.833 -6.5 152.5 -19.5s90.5 -31.833 128.5 -56.5s69.667 -54.667 95 -90v0l-147 -132v0
c-29.333 33.333 -63.666 59 -102.999 77s-80.333 27 -123 27c-78.667 0 -139.667 -22 -183 -66s-65 -106 -65 -186v-171c0 -82 21.5 -145.333 64.5 -190s104.167 -67 183.5 -67c43.333 0 84.666 9.66699 123.999 29s73.333 46.666 102 81.999v0l147 -142v0
c-26 -34.667 -58 -64.167 -96 -88.5s-80.833 -42.833 -128.5 -55.5s-98.167 -19 -151.5 -19c-94.667 0 -175.5 17.667 -242.5 53z" />
    <glyph glyph-name="d" unicode="d" horiz-adv-x="1104" 
d="M750 1454h204v-1454h-204v1454zM294.5 31.5c-53.667 33 -94.498 81.1689 -122.498 144.502s-42 139.333 -42 228v229c0 89.333 13.667 165.666 41 228.999s67.166 111.5 119.499 144.5s115.166 49.5 188.499 49.5c61.333 0 117.5 -16 168.5 -48s92.167 -77 123.5 -135
l-21 -212c0 44 -8 81.667 -24 113s-39.167 55.166 -69.5 71.499s-67.166 24.5 -110.499 24.5c-67.333 0 -119.5 -21 -156.5 -63s-55.5 -101 -55.5 -177v-226c0 -75.333 18.5 -133.5 55.5 -174.5s89.167 -61.5 156.5 -61.5c43.333 0 80.166 8.5 110.499 25.5
s53.5 41.5 69.5 73.5s24 70.333 24 115l14 -219c-20.667 -51.333 -54.5 -94.333 -101.5 -129s-104.833 -52 -173.5 -52c-76 0 -140.833 16.5 -194.5 49.5z" />
    <glyph glyph-name="e" unicode="e" horiz-adv-x="1098" 
d="M339 39c-68 36 -119.831 88.832 -155.498 158.499s-53.5 153.834 -53.5 252.501v117c0 102.667 17.167 190.334 51.5 263.001s84.166 128 149.499 166s144 57 236 57c86.667 0 160.667 -21.667 222 -65s108.166 -106 140.499 -188s48.5 -180.333 48.5 -295v-68h-700v164
h506v0c-6 84.667 -27.833 150.5 -65.5 197.5s-88.167 70.5 -151.5 70.5c-77.333 0 -137.166 -25.333 -179.499 -76s-63.5 -122.334 -63.5 -215.001v-132c0 -86 22.667 -152 68 -198s109.666 -69 192.999 -69c41.333 0 82.333 8.33301 123 25s77 40 109 70v0l134 -134v0
c-51.333 -49.333 -109 -87.5 -173 -114.5s-128.333 -40.5 -193 -40.5c-96 0 -178 18 -246 54z" />
    <glyph glyph-name="f" unicode="f" horiz-adv-x="649" 
d="M190 1179c0 92 21.167 160.833 63.5 206.5s107.5 68.5 195.5 68.5h150v-194h-146c-19.333 0 -34 -7.33301 -44 -22s-15 -33.667 -15 -57v-1181h-204v1179zM80 1038h519v-174h-519v174z" />
    <glyph glyph-name="g" unicode="g" horiz-adv-x="1104" 
d="M298.5 -378.5c-61.667 29 -109.5 69.833 -143.5 122.5v0l138 125v0c26.667 -36.667 58.5 -65 95.5 -85s75.833 -30 116.5 -30c78 0 138.333 21.5 181 64.5s64 103.833 64 182.5v1037h204v-1007c0 -95.333 -17.5 -177 -52.5 -245s-85.833 -119.667 -152.5 -155
s-147 -53 -241 -53c-78 0 -147.833 14.5 -209.5 43.5zM294.5 31.5c-53.667 33 -94.498 81.1689 -122.498 144.502s-42 139.333 -42 228v229c0 89.333 13.667 165.666 41 228.999s67.166 111.5 119.499 144.5s115.166 49.5 188.499 49.5c61.333 0 117.5 -16 168.5 -48
s92.167 -77 123.5 -135l-21 -212c0 44 -8 81.667 -24 113s-39.167 55.166 -69.5 71.499s-67.166 24.5 -110.499 24.5c-67.333 0 -119.5 -21 -156.5 -63s-55.5 -101 -55.5 -177v-226c0 -75.333 18.5 -133.5 55.5 -174.5s89.167 -61.5 156.5 -61.5
c43.333 0 80.166 8.5 110.499 25.5s53.5 41.5 69.5 73.5s24 70.333 24 115l14 -219c-20.667 -51.333 -54.5 -94.333 -101.5 -129s-104.833 -52 -173.5 -52c-76 0 -140.833 16.5 -194.5 49.5z" />
    <glyph glyph-name="h" unicode="h" horiz-adv-x="1144" 
d="M160 1454h204v-1454h-204v1454zM790 629c0 73.333 -19.002 130.001 -57.002 170.001s-91.333 60 -160 60c-66.667 0 -118.167 -17.333 -154.5 -52s-54.5 -83.667 -54.5 -147l-21 200c32 61.333 73.833 108.833 125.5 142.5s108.834 50.5 171.501 50.5
c112.667 0 199.834 -36.833 261.501 -110.5s92.5 -177.834 92.5 -312.501v-630h-204v629z" />
    <glyph glyph-name="i" unicode="i" horiz-adv-x="514" 
d="M160 1454h204v-204h-204v204zM160 1038h204v-1038h-204v1038z" />
    <glyph glyph-name="j" unicode="j" horiz-adv-x="549" 
d="M20 -228h113.999c18.667 0 33.167 6.83301 43.5 20.5s15.5 33.167 15.5 58.5v1187h204v-1185c0 -87.333 -21.167 -155 -63.5 -203s-102.166 -72 -179.499 -72h-134v194zM190.999 1454h208v-204h-208v204z" />
    <glyph glyph-name="k" unicode="k" horiz-adv-x="1083" 
d="M248 394l534 644h240l-787 -886zM160 1454h204v-1454h-204v1454zM489 599l131 136l453 -735h-222z" />
    <glyph glyph-name="l" unicode="l" horiz-adv-x="593" 
d="M364 268c0 -25.333 5.49902 -44.833 16.499 -58.5s26.5 -20.5 46.5 -20.5h96v-194h-120c-77.333 0 -137.166 24 -179.499 72s-63.5 115.667 -63.5 203v1184h204v-1186z" />
    <glyph glyph-name="m" unicode="m" horiz-adv-x="1754" 
d="M1400 629c0 73.333 -19.002 129.999 -57.002 169.999s-91.333 60 -160 60c-63.333 0 -112.333 -19.333 -147 -58s-52 -93.334 -52 -164.001l-41 200c32.667 68.667 75.834 121.834 129.501 159.501s112.834 56.5 177.501 56.5c74.667 0 138.5 -16.5 191.5 -49.5
s93.333 -81.167 121 -144.5s41.5 -139.666 41.5 -228.999v-630h-204v629zM159.998 1038h204v-1038h-204v1038zM779.998 628.999c0 73.333 -18.001 129.999 -54.001 169.999s-87 60 -153 60c-66.667 0 -118.167 -17.667 -154.5 -53s-54.5 -85 -54.5 -149l-21 200
c32 62.667 73.833 111 125.5 145s108.834 51 171.501 51c72.667 0 134.667 -16.5 186 -49.5s90.5 -81.167 117.5 -144.5s40.5 -139.666 40.5 -228.999v-630h-204v629z" />
    <glyph glyph-name="n" unicode="n" horiz-adv-x="1144" 
d="M160 1038h204v-1038h-204v1038zM790 629c0 73.333 -19.002 130.001 -57.002 170.001s-91.333 60 -160 60c-66.667 0 -118.167 -17.667 -154.5 -53s-54.5 -85 -54.5 -149l-21 200c32 62.667 73.833 111 125.5 145s108.834 51 171.501 51
c112.667 0 199.834 -36.833 261.501 -110.5s92.5 -177.834 92.5 -312.501v-630h-204v629z" />
    <glyph glyph-name="o" unicode="o" horiz-adv-x="1116" 
d="M327 38c-64 35.333 -112.833 86.833 -146.5 154.5s-50.5 149.167 -50.5 244.5v169c0 94 16.833 174.5 50.5 241.5s82.5 118 146.5 153s141 52.5 231 52.5s167 -17.5 231 -52.5s112.833 -86 146.5 -153s50.5 -147.5 50.5 -241.5v-172
c0 -94.667 -16.833 -175.5 -50.5 -242.5s-82.5 -118.167 -146.5 -153.5s-141 -53 -231 -53s-167 17.667 -231 53zM723.5 246c39 44.667 58.5 107.334 58.5 188.001v172c0 80.667 -19.5 143 -58.5 187s-94.167 66 -165.5 66s-126.5 -22 -165.5 -66s-58.5 -106.333 -58.5 -187
v-172c0 -80.667 19.5 -143.334 58.5 -188.001s94.167 -67 165.5 -67s126.5 22.333 165.5 67z" />
    <glyph glyph-name="p" unicode="p" horiz-adv-x="1114" 
d="M160 1038h204v-1460h-204v1460zM456 31.5c-48 31 -83.3311 74.832 -105.998 131.499l14 217c0 -44.667 8 -82.667 24 -114s39.167 -55.333 69.5 -72s67.166 -25 110.499 -25c67.333 0 119.5 20.5 156.5 61.5s55.5 98.833 55.5 173.5v225c0 76 -18.5 135 -55.5 177
s-89.167 63 -156.5 63c-43.333 0 -80.166 -8 -110.499 -24s-53.5 -39.5 -69.5 -70.5s-24 -68.167 -24 -111.5l-21 200c31.333 60.667 72.333 107.5 123 140.5s107 49.5 169 49.5c73.333 0 136.166 -16.5 188.499 -49.5s92.166 -81.167 119.499 -144.5
s41 -139.666 41 -228.999v-226c0 -88 -14 -163.333 -42 -226s-69 -110.5 -123 -143.5s-118.667 -49.5 -194 -49.5c-64.667 0 -121 15.5 -169 46.5z" />
    <glyph glyph-name="q" unicode="q" horiz-adv-x="1104" 
d="M750 1038h204v-1460h-204v1460zM294.5 31.5c-53.667 33 -94.498 81.1689 -122.498 144.502s-42 139.333 -42 228v229c0 89.333 13.667 165.666 41 228.999s67.166 111.5 119.499 144.5s115.166 49.5 188.499 49.5c61.333 0 117.5 -16 168.5 -48s92.167 -77 123.5 -135
l-21 -212c0 44 -8 81.667 -24 113s-39.167 55.166 -69.5 71.499s-67.166 24.5 -110.499 24.5c-67.333 0 -119.5 -21 -156.5 -63s-55.5 -101 -55.5 -177v-226c0 -75.333 18.5 -133.5 55.5 -174.5s89.167 -61.5 156.5 -61.5c43.333 0 80.166 8.5 110.499 25.5
s53.5 41.5 69.5 73.5s24 70.333 24 115l14 -219c-20.667 -51.333 -54.5 -94.333 -101.5 -129s-104.833 -52 -173.5 -52c-76 0 -140.833 16.5 -194.5 49.5z" />
    <glyph glyph-name="r" unicode="r" horiz-adv-x="874" 
d="M160 1038h204v-1038h-204v1038zM663 842c-27.333 11.333 -58.998 17.001 -94.998 17.001c-64.667 0 -114.834 -17.833 -150.501 -53.5s-53.5 -85.167 -53.5 -148.5l-21 200c32 62 73.333 110.167 124 144.5s106.667 51.5 168 51.5
c47.333 0 90.166 -6.83301 128.499 -20.5s71.833 -33.834 100.5 -60.501l-133 -180c-18 22 -40.667 38.667 -68 50z" />
    <glyph glyph-name="s" unicode="s" horiz-adv-x="1062" 
d="M354.5 3c-53.667 12 -103.831 30.002 -150.498 54.002s-89.667 54 -129 90v0l121 149v0c56 -42.667 111.667 -74.667 167 -96s110 -32 164 -32c80.667 0 141.167 12.5 181.5 37.5s60.5 62.5 60.5 112.5c0 33.333 -11 58.333 -33 75s-49.333 27.834 -82 33.501
s-78.667 10.834 -138 15.501c-5.33301 0 -11 0.166992 -17 0.5s-11.667 0.833008 -17 1.5c-2.66699 0 -5.33398 0.166992 -8.00098 0.5s-5.33398 0.5 -8.00098 0.5c-67.333 5.33301 -124.333 15.166 -171 29.499s-85.5 41.166 -116.5 80.499s-46.5 95.666 -46.5 168.999
s15 134.333 45 183s74.667 85.167 134 109.5s133.666 36.5 222.999 36.5c54 0 105.5 -5 154.5 -15s95.833 -24.833 140.5 -44.5s87.667 -44.5 129 -74.5v0l-123 -149v0c-52 33.333 -103.167 58.333 -153.5 75s-99.5 25 -147.5 25c-69.333 0 -121.333 -11.833 -156 -35.5
s-52 -59.167 -52 -106.5c0 -28 9.83301 -49 29.5 -63s44.5 -23.333 74.5 -28s72.667 -8.66699 128 -12c4 -0.666992 8.16699 -1 12.5 -1s8.83301 -0.333008 13.5 -1h6c2 0 4 -0.333008 6 -1c72.667 -4.66699 134.5 -14.334 185.5 -29.001s93.833 -43.667 128.5 -87
s52 -106 52 -188c0 -74.667 -16 -136.5 -48 -185.5s-80.167 -85.833 -144.5 -110.5s-145.166 -37 -242.499 -37c-61.333 0 -118.833 6 -172.5 18z" />
    <glyph glyph-name="t" unicode="t" horiz-adv-x="668" 
d="M245.5 64.5c-39 46.333 -58.5 114.833 -58.5 205.5v1070h204v-1072c0 -25.333 5 -44.833 15 -58.5s24.667 -20.5 44 -20.5h98v-194h-118c-84 0 -145.5 23.167 -184.5 69.5zM80 1038h468v-184h-468v184z" />
    <glyph glyph-name="u" unicode="u" horiz-adv-x="1139" 
d="M786 1038h203v-1038h-203v1038zM364 407c0 -72.667 18.499 -128.832 55.499 -168.499s89.167 -59.5 156.5 -59.5c66.667 0 118.334 17.667 155.001 53s55 85.666 55 150.999l14 -217c-21.333 -51.333 -56 -94.333 -104 -129s-107 -52 -177 -52
c-114.667 0 -203.167 36.833 -265.5 110.5s-93.5 177.5 -93.5 311.5v631h204v-631z" />
    <glyph glyph-name="v" unicode="v" horiz-adv-x="1024" 
d="M771 1038h213l-390 -1038h-154l-390 1038h213l254 -741z" />
    <glyph glyph-name="w" unicode="w" horiz-adv-x="1584" 
d="M70 1038h213l184 -741l259 741h142l259 -741l184 741h213l-320 -1038h-154l-253 717l-253 -717h-154z" />
    <glyph glyph-name="x" unicode="x" horiz-adv-x="1059" 
d="M458 472l-382 566h227l298 -465l393 -573h-226zM452 573l98 -188l-264 -385h-226zM524 670l227 368h227l-368 -560z" />
    <glyph glyph-name="y" unicode="y" horiz-adv-x="989" 
d="M969 1038l-442 -1281c-16 -47.333 -37 -84.833 -63 -112.5s-58 -47.5 -96 -59.5s-84.667 -18 -140 -18h-41v196h41c38 0 68.167 7.66699 90.5 23s41.833 41.666 58.5 78.999l384 1173h208zM50 1038h208l319 -902l-113 -221z" />
    <glyph glyph-name="z" unicode="z" horiz-adv-x="1013" 
d="M876 866l-499 -677h526v-189h-773v176l512 673h-498v189h732v-172z" />
    <glyph glyph-name="braceleft" unicode="{" horiz-adv-x="738" 
d="M140 745c54 0 95.833 13.333 125.5 40s44.5 64.334 44.5 113.001v409c0 121.333 33.833 215.333 101.5 282s163.167 100 286.5 100v-194c-58.667 0 -104 -14.333 -136 -43s-48 -69.334 -48 -122.001v-433c0 -110 -32.667 -195.167 -98 -255.5s-157.333 -90.5 -276 -90.5
v194zM411.5 -293.5c-67.667 66.333 -101.5 160.166 -101.5 281.499v410c0 48.667 -14.833 86.334 -44.5 113.001s-71.5 40 -125.5 40v194c119.333 0 211.5 -31.167 276.5 -93.5s97.5 -150.5 97.5 -264.5v-420c0 -52.667 16 -93.5 48 -122.5s77.333 -43.5 136 -43.5v-194
c-123.333 0 -218.833 33.167 -286.5 99.5z" />
    <glyph glyph-name="bar" unicode="|" horiz-adv-x="564" 
d="M180 1626h204v-1798h-204v1798z" />
    <glyph glyph-name="braceright" unicode="}" horiz-adv-x="738" 
d="M322 641.5c-65.333 60.333 -98 145.5 -98 255.5v433c0 52.667 -16 93.334 -48 122.001s-77.333 43 -136 43v194c123.333 0 218.833 -33.333 286.5 -100s101.5 -160.667 101.5 -282v-409c0 -48.667 14.833 -86.334 44.5 -113.001s71.5 -40 125.5 -40v-194
c-118.667 0 -210.667 30.167 -276 90.5zM40 -199c58.667 0 104 14.5 136 43.5s48 69.833 48 122.5v420c0 114 32.5 202.167 97.5 264.5s157.167 93.5 276.5 93.5v-194c-54 0 -95.833 -13.333 -125.5 -40s-44.5 -64.334 -44.5 -113.001v-410
c0 -121.333 -33.833 -215.166 -101.5 -281.499s-163.167 -99.5 -286.5 -99.5v194z" />
    <glyph glyph-name="asciitilde" unicode="~" horiz-adv-x="1052" 
d="M622 535.5c-29.333 10.333 -59.332 24.5039 -89.999 42.5039l-32 19c-24.667 15.333 -45.334 26.833 -62.001 34.5s-33.334 11.5 -50.001 11.5c-23.333 0 -40.833 -9.16699 -52.5 -27.5s-17.5 -45.5 -17.5 -81.5v-11h-178v25c0 96 17 168 51 216s85 72 153 72
c40 0 75.5 -6.33301 106.5 -19s65.167 -30.334 102.5 -53.001c1.33301 -0.666992 2.5 -1.33398 3.5 -2.00098s2.16699 -1.33398 3.5 -2.00098c0.666992 -0.666992 1.16699 -1 1.5 -1s0.833008 -0.333008 1.5 -1c26.667 -16 47.667 -27.5 63 -34.5s31.333 -10.5 48 -10.5
c23.333 0 40.833 9.66699 52.5 29s17.5 48.666 17.5 87.999v10h178v-24c0 -98.667 -16.833 -172.667 -50.5 -222s-84.5 -74 -152.5 -74c-35.333 0 -67.666 5.16699 -96.999 15.5z" />
    <glyph glyph-name="uni00A0" unicode="&#xa0;" horiz-adv-x="350" 
 />
    <glyph glyph-name="exclamdown" unicode="&#xa1;" horiz-adv-x="464" 
d="M130 665h204v-1081h-204v1081zM334 1038v-204h-204v204h204z" />
    <glyph glyph-name="cent" unicode="&#xa2;" horiz-adv-x="980" 
d="M327.5 38c-64.333 35.333 -113.333 86.6699 -147 154.003s-50.5 148.666 -50.5 243.999v171c0 94 16.833 174.333 50.5 241s82.667 117.5 147 152.5s141.5 52.5 231.5 52.5c50.667 0 98.5 -6.5 143.5 -19.5s85.667 -31.833 122 -56.5s66.5 -54.667 90.5 -90v0l-147 -132
v0c-26.667 33.333 -58 59 -94 77s-73.333 27 -112 27c-72.667 0 -128.834 -22 -168.501 -66s-59.5 -106 -59.5 -186v-171c0 -84.667 19.833 -150.334 59.5 -197.001s95.834 -70 168.501 -70c39.333 0 77 9.66699 113 29s67 46.666 93 81.999v0l147 -132v0
c-24.667 -34.667 -55 -64.167 -91 -88.5s-76.5 -42.833 -121.5 -55.5s-92.833 -19 -143.5 -19c-90 0 -167.167 17.667 -231.5 53zM443 1215h206v-1392h-206v1392z" />
    <glyph glyph-name="sterling" unicode="&#xa3;" horiz-adv-x="1212" 
d="M208.5 237.5c25 29 37.502 72.501 37.502 130.501v671c0 90.667 17.333 168.167 52 232.5s85.167 113.333 151.5 147s146.166 50.5 239.499 50.5s173.166 -16.833 239.499 -50.5s116.833 -82.834 151.5 -147.501s52 -142.667 52 -234v-13h-204v13
c0 75.333 -21 133.833 -63 175.5s-100.667 62.5 -176 62.5c-76 0 -134.833 -20.667 -176.5 -62s-62.5 -99.333 -62.5 -174v-671c0 -80 -29.5 -140 -88.5 -180s-147.167 -60 -264.5 -60v66c49.333 0 86.5 14.5 111.5 43.5zM1132 0.000976562h-1042v194h1042v-194z
M885.002 703.001v-154h-773v154h773z" />
    <glyph glyph-name="currency" unicode="&#xa4;" horiz-adv-x="1178" 
d="M369.5 337c-61 32.667 -107.5 80.333 -139.5 143s-48 138 -48 226c0 87.333 16 162.166 48 224.499s78.333 109.833 139 142.5s134 49 220 49s159.5 -16.167 220.5 -48.5s107.333 -79.833 139 -142.5s47.5 -138.334 47.5 -227.001c0 -131.333 -35 -232.666 -105 -303.999
s-170.667 -108 -302 -110c-85.333 -1.33301 -158.5 14.334 -219.5 47.001zM750.5 528.499c38.333 41.667 57.5 100.167 57.5 175.5c0 77.333 -19.167 137 -57.5 179s-92.5 63 -162.5 63c-69.333 0 -123 -21 -161 -63s-57 -101.667 -57 -179c0 -75.333 19 -133.833 57 -175.5
s91.667 -62.5 161 -62.5c70 0 124.167 20.833 162.5 62.5zM100 365.999l185 185l149 -155l-182 -182zM100 1040l152 152l190 -190l-165 -139zM723 416.999l160 143l195 -194l-152 -152zM744 1010l182 182l152 -152l-200 -200z" />
    <glyph glyph-name="yen" unicode="&#xa5;" horiz-adv-x="1030" 
d="M173 508h684v-120h-684v120zM173 268h684v-120h-684v120zM617 591v-591h-204v591l-443 863h227l318 -656l318 656h227z" />
    <glyph glyph-name="brokenbar" unicode="&#xa6;" horiz-adv-x="564" 
d="M180 1626h204v-711h-204v711zM180 517h204v-689h-204v689z" />
    <glyph glyph-name="section" unicode="&#xa7;" horiz-adv-x="1180" 
d="M652 425c71.333 2.66699 126.502 18.668 165.502 48.001s58.5 69.666 58.5 120.999c0 38.667 -10.5 69.167 -31.5 91.5s-48.667 39 -83 50s-78.166 20.5 -131.499 28.5c-5.33301 0.666992 -10.833 1.5 -16.5 2.5s-11.167 1.83301 -16.5 2.5
c-88.667 12.667 -160.667 28.167 -216 46.5s-102.666 53 -141.999 104s-59 124.5 -59 220.5c0 69.333 16.167 128.666 48.5 177.999s79.666 86.833 141.999 112.5s137.166 38.5 224.499 38.5c48.667 0 97.334 -5.33301 146.001 -16s95.5 -26 140.5 -46s86.5 -44 124.5 -72
l-136 -156c-44.667 30.667 -90.667 54.334 -138 71.001s-91.666 25 -132.999 25c-68.667 0 -121.667 -11.5 -159 -34.5s-56 -55.167 -56 -96.5c0 -42 12.167 -74.833 36.5 -98.5s54.666 -40.834 90.999 -51.501s86.833 -21.667 151.5 -33
c9.33301 -1.33301 18.666 -2.83301 27.999 -4.5s18.666 -3.5 27.999 -5.5c72 -13.333 133.5 -31.166 184.5 -53.499s93.167 -57.833 126.5 -106.5s50 -114.334 50 -197.001c0 -56 -10.5 -105.667 -31.5 -149s-51.833 -79.666 -92.5 -108.999s-90.334 -51.333 -149.001 -66z
M393.002 -189.499c-52.667 11 -101.997 27.1709 -147.997 48.5039s-86.667 47 -122 77l123 157c51.333 -33.333 104.833 -59.166 160.5 -77.499s108.5 -27.5 158.5 -27.5c76.667 0 136 12.167 178 36.5s63 58.5 63 102.5c0 35.333 -11.833 63.166 -35.5 83.499
s-53.334 35.166 -89.001 44.499s-85.834 19.333 -150.501 30l-56 9c-6 0.666992 -11.833 1.66699 -17.5 3s-11.5 2.33301 -17.5 3c-68 13.333 -126.333 30.666 -175 51.999s-88.334 53.833 -119.001 97.5s-46 101.5 -46 173.5c0 65.333 13.5 121.333 40.5 168
s66.667 83.167 119 109.5s115.833 42.5 190.5 48.5l126 -177c-5.33301 1.33301 -10.833 2.33301 -16.5 3l-16.5 2c-4 0.666992 -8 1 -12 1h-12c-70 0 -123.333 -12.5 -160 -37.5s-55 -62.833 -55 -113.5c0 -32.667 9.16699 -59.334 27.5 -80.001s42.833 -36.5 73.5 -47.5
s69 -20.167 115 -27.5l13 -2l26 -4l26 -4c89.333 -12.667 162.333 -27.667 219 -45s105.167 -48.833 145.5 -94.5s60.5 -110.834 60.5 -195.501c0 -70 -17.833 -130 -53.5 -180s-87.5 -88 -155.5 -114s-150 -39 -246 -39c-55.333 0 -109.333 5.5 -162 16.5z" />
    <glyph glyph-name="dieresis" unicode="&#xa8;" horiz-adv-x="794" 
d="M505 1454h204v-204h-204v204zM85 1454h204v-204h-204v204z" />
    <glyph glyph-name="copyright" unicode="&#xa9;" horiz-adv-x="1430" 
d="M388 412c-90.667 48.667 -159.665 119.167 -206.998 211.5s-71 203.5 -71 333.5v0c0 130 23.667 241.167 71 333.5s116.166 162.666 206.499 210.999s199.5 72.5 327.5 72.5s237.167 -24.167 327.5 -72.5s159.166 -118.666 206.499 -210.999s71 -203.5 71 -333.5v0
c0 -130 -23.667 -241.167 -71 -333.5s-116.333 -162.833 -207 -211.5s-199.667 -73 -327 -73s-236.333 24.333 -327 73zM512.502 713.5c-53 55 -79.499 132.166 -79.499 231.499v36c0 98.667 26.5 175.167 79.5 229.5s127.833 81.5 224.5 81.5
c48.667 0 92.5 -8.66699 131.5 -26s72.833 -42.666 101.5 -75.999v0l-93 -124v0c-23.333 20.667 -46 36 -68 46s-45.667 15 -71 15c-42.667 0 -75.5 -12.833 -98.5 -38.5s-34.5 -61.5 -34.5 -107.5v-36c0 -49.333 11.5 -87.5 34.5 -114.5s55.833 -40.5 98.5 -40.5
c26.667 0 51.167 5.83301 73.5 17.5s47.166 30.5 74.499 56.5v0l94 -123v0c-30.667 -36 -66.167 -63.333 -106.5 -82s-85.833 -28 -136.5 -28c-96.667 0 -171.5 27.5 -224.5 82.5zM952.003 556.999c66 36 116.5 88 151.5 156s52.5 149.333 52.5 244v0
c0 97.333 -17.333 180.666 -52 249.999s-85 122.166 -151 158.499s-145.333 54.5 -238 54.5s-172 -18.167 -238 -54.5s-116.333 -89.166 -151 -158.499s-52 -152.666 -52 -249.999v0c0 -95.333 17.333 -177 52 -245s85 -119.833 151 -155.5s145.333 -53.5 238 -53.5
c92 0 171 18 237 54z" />
    <glyph glyph-name="ordfeminine" unicode="&#xaa;" horiz-adv-x="705" 
d="M465 1227c0 29.333 -9.16797 52.167 -27.501 68.5s-43.166 24.5 -74.499 24.5c-28 0 -49.833 -3.33301 -65.5 -10s-33.5 -19.667 -53.5 -39l-116 81c28.667 38.667 61.667 66.5 99 83.5s83.666 25.5 138.999 25.5c78.667 0 139.834 -18.833 183.501 -56.5
s65.5 -93.5 65.5 -167.5v-406h-150v396zM156.499 874.501c-37.667 33.667 -56.4961 80.8311 -56.4961 141.498c0 58.667 18.667 104.334 56 137.001s89.666 49 156.999 49h169l6 -126h-159c-23.333 0 -41.5 -5.83301 -54.5 -17.5s-19.5 -28.167 -19.5 -49.5
c0 -19.333 8.16699 -34.5 24.5 -45.5s39.166 -16.5 68.499 -16.5c37.333 0 66.166 7.16699 86.499 21.5s30.5 34.833 30.5 61.5l23 -125c-15.333 -25.333 -38 -45.166 -68 -59.499s-64.667 -21.5 -104 -21.5c-68.667 0 -121.834 16.833 -159.501 50.5z" />
    <glyph glyph-name="guillemotleft" unicode="&#xab;" horiz-adv-x="1029" 
d="M764 878h235l-319 -358h-235zM40 520h235l319 -357h-235zM359 878h235l-319 -358h-235zM445 520h235l319 -357h-235z" />
    <glyph glyph-name="logicalnot" unicode="&#xac;" horiz-adv-x="1070" 
d="M140 860h800v-194h-800v194zM736 792h204v-387h-204v387z" />
    <glyph glyph-name="uni00AD" unicode="&#xad;" horiz-adv-x="982" 
d="M832 618v-194h-672v194h672z" />
    <glyph glyph-name="registered" unicode="&#xae;" horiz-adv-x="1430" 
d="M388 412c-90.667 48.667 -159.665 119.167 -206.998 211.5s-71 203.5 -71 333.5v0c0 130 23.667 241.167 71 333.5s116.166 162.666 206.499 210.999s199.5 72.5 327.5 72.5s237.167 -24.167 327.5 -72.5s159.166 -118.666 206.499 -210.999s71 -203.5 71 -333.5v0
c0 -130 -23.667 -241.167 -71 -333.5s-116.333 -162.833 -207 -211.5s-199.667 -73 -327 -73s-236.333 24.333 -327 73zM475.002 1271h151v-623h-151v623zM713.002 892l127 66l159 -309h-168zM952.002 557c66 36 116.5 88 151.5 156s52.5 149.333 52.5 244v0
c0 97.333 -17.333 180.666 -52 249.999s-85 122.166 -151 158.499s-145.333 54.5 -238 54.5s-172 -18.167 -238 -54.5s-116.333 -89.166 -151 -158.499s-52 -152.666 -52 -249.999v0c0 -95.333 17.333 -177 52 -245s85 -119.833 151 -155.5s145.333 -53.5 238 -53.5
c92 0 171 18 237 54zM569.002 970h189c22.667 0 40.667 7.16699 54 21.5s20 34.833 20 61.5c0 27.333 -6.66699 48 -20 62s-31.333 21 -54 21h-189v135h185c74 0 130.667 -19.833 170 -59.5s59 -92.5 59 -158.5c0 -65.333 -20 -118 -60 -158s-96.333 -60 -169 -60h-185v135z
" />
    <glyph glyph-name="macron" unicode="&#xaf;" horiz-adv-x="890" 
d="M810 1453v-203h-730v203h730z" />
    <glyph glyph-name="degree" unicode="&#xb0;" horiz-adv-x="746" 
d="M156.5 951.5c-51 52.333 -76.5 125.5 -76.5 219.5c0 94.667 25.5 168 76.5 220s123.167 78 216.5 78c94 0 166.333 -26 217 -78s76 -125.667 76 -221c0 -94 -25.667 -167 -77 -219s-123.333 -78 -216 -78c-93.333 0 -165.5 26.167 -216.5 78.5zM464.5 1068.5
c21.667 24.333 32.5 59.168 32.5 104.501c0 43.333 -11 76.833 -33 100.5s-52.667 35.5 -92 35.5s-69.666 -11.833 -90.999 -35.5s-32 -57.834 -32 -102.501s10.667 -79 32 -103s51.666 -36 90.999 -36c40 0 70.833 12.167 92.5 36.5z" />
    <glyph glyph-name="plusminus" unicode="&#xb1;" horiz-adv-x="1082" 
d="M952 817v-174h-812v174h812zM643 344h-194v732h194v-732zM952 438v-174h-812v174h812z" />
    <glyph glyph-name="uni00B2" unicode="&#xb2;" horiz-adv-x="640" 
d="M121 972l135 116.999c3.33301 2.66699 6.33301 5.33398 9 8.00098s5.66699 5.33398 9 8.00098c30.667 26.667 53.5 48.667 68.5 66s25.333 33.166 31 47.499s8.5 30.833 8.5 49.5v0c0 17.333 -4.33301 30.333 -13 39s-21.334 13 -38.001 13c-18.667 0 -33.667 -6 -45 -18
s-18.666 -29.333 -21.999 -52v0h-164v0c4.66699 69.333 26.5 121.833 65.5 157.5s91.833 53.5 158.5 53.5c75.333 0 131.833 -16 169.5 -48s56.5 -79.667 56.5 -143v-1c0 -34 -9.66699 -66 -29 -96s-54 -69.333 -104 -118l-77 -75h210v-149h-429v141z" />
    <glyph glyph-name="uni00B3" unicode="&#xb3;" horiz-adv-x="688" 
d="M211.5 847.5c-37 15.667 -64.833 39.167 -83.5 70.5s-28 70.333 -28 117v0h160v0c0 -25.333 7.33301 -44.333 22 -57s36.667 -19 66 -19c24.667 0 43.5 5.33301 56.5 16s19.5 26.667 19.5 48v-1c0 23.333 -8.16699 40.5 -24.5 51.5s-41.5 16.5 -75.5 16.5h-28v116h28
c30.667 0 53.334 5.83301 68.001 17.5s22 29.167 22 52.5v-3c0 17.333 -5.33301 30.333 -16 39s-27 13 -49 13c-25.333 0 -44.5 -5.83301 -57.5 -17.5s-19.5 -29.167 -19.5 -52.5v0h-162v0c0 45.333 9 83.333 27 114s44.667 53.667 80 69s79.666 23 132.999 23
c79.333 0 138.833 -14.167 178.5 -42.5s59.5 -71.166 59.5 -128.499v-2c0 -34.667 -10.5 -63.667 -31.5 -87s-52.5 -41 -94.5 -53c45.333 -6.66699 79.333 -21.834 102 -45.501s34 -56.167 34 -97.5v0c0 -60.667 -20.667 -106 -62 -136s-103.333 -45 -186 -45
c-55.333 0 -101.5 7.83301 -138.5 23.5z" />
    <glyph glyph-name="acute" unicode="&#xb4;" horiz-adv-x="603" 
d="M85 1341l286 355l147 -122l-305 -336z" />
    <glyph glyph-name="uni00B5" unicode="&#xb5;" horiz-adv-x="1219" 
d="M160 1038h204v-902h-11l11 -416h-204v1318zM444 10.5c-33.333 17 -58.502 42.499 -75.502 76.499s-26.5 77 -28.5 129l24 167c0 -68 17.333 -119 52 -153s86.334 -51 155.001 -51c72 0 125.833 17 161.5 51s53.5 85 53.5 153l34 -167
c-6.66699 -77.333 -30.667 -135.166 -72 -173.499s-100.333 -57.5 -177 -57.5c-51.333 0 -93.666 8.5 -126.999 25.5zM848.498 66.999c-42.333 48 -63.501 115.667 -63.501 203v768h204v-770c0 -25.333 5.5 -44.833 16.5 -58.5s26.5 -20.5 46.5 -20.5h96v-194h-120
c-77.333 0 -137.166 24 -179.499 72z" />
    <glyph glyph-name="paragraph" unicode="&#xb6;" horiz-adv-x="1412" 
d="M294 532.5c-68 42.333 -120.667 100.832 -158 175.499s-56 159 -56 253c0 94.667 18.5 179.334 55.5 254.001s89.333 133.167 157 175.5s146.167 63.5 235.5 63.5h265v-985h-265c-88 0 -166 21.167 -234 63.5zM638 1454h204v-1690h-204v1690zM1006 1454h204v-1690h-204
v1690zM706 1454h646v-194h-646v194z" />
    <glyph glyph-name="periodcentered" unicode="&#xb7;" horiz-adv-x="424" 
d="M110 629h204v-204h-204v204z" />
    <glyph glyph-name="cedilla" unicode="&#xb8;" horiz-adv-x="582" 
d="M80 -404l42 140.001c32 -9.33301 63.667 -14 95 -14c36.667 0 64 4.16699 82 12.5s27 21.166 27 38.499c0 16.667 -12 29 -36 37s-60.667 12 -110 12l87 116c78.667 0 137.5 -14.833 176.5 -44.5s58.5 -74.5 58.5 -134.5c0 -60.667 -21.333 -106 -64 -136
s-107 -45 -193 -45c-66.667 0 -121.667 6 -165 18zM164 91.001h166v-269h-166v269z" />
    <glyph glyph-name="uni00B9" unicode="&#xb9;" horiz-adv-x="497" 
d="M407 831h-167v439l-140 -84v183l152 85h155v-623z" />
    <glyph glyph-name="ordmasculine" unicode="&#xba;" horiz-adv-x="700" 
d="M166.5 892.5c-44.333 45.667 -66.5 109.501 -66.5 191.501v117c0 82.667 22.167 146.667 66.5 192s107.166 68 188.499 68s144.166 -22.833 188.499 -68.5s66.5 -109.834 66.5 -192.501v-116c0 -82 -22.167 -145.833 -66.5 -191.5s-107.166 -68.5 -188.499 -68.5
s-144.166 22.833 -188.499 68.5zM420 1011c15.333 18.667 23 44.666 23 77.999v110c0 32.667 -7.66699 58 -23 76s-37 27 -65 27c-28.667 0 -50.5 -9.16699 -65.5 -27.5s-22.5 -44.166 -22.5 -77.499v-108c0 -34 7.5 -60.167 22.5 -78.5s36.833 -27.5 65.5 -27.5
c28 0 49.667 9.33301 65 28z" />
    <glyph glyph-name="guillemotright" unicode="&#xbb;" horiz-adv-x="1029" 
d="M435 878h235l319 -358h-235zM349 520h235l-319 -357h-235zM30 878h235l319 -358h-235zM754 520h235l-319 -357h-235z" />
    <glyph glyph-name="onequarter" unicode="&#xbc;" horiz-adv-x="1401" 
d="M960 1454h179l-790 -1454h-179zM823 216l167 407h165l-160 -407h306v-134h-478v134zM1111 329h140v-329h-140v329zM407 831h-167v439l-140 -84v183l152 85h155v-623z" />
    <glyph glyph-name="onehalf" unicode="&#xbd;" horiz-adv-x="1389" 
d="M960 1454h179l-790 -1454h-179zM407 831h-167v439l-140 -84v183l152 85h155v-623zM860 141l135 116.999c3.33301 2.66699 6.33301 5.33398 9 8.00098s5.66699 5.33398 9 8.00098c30.667 26.667 53.5 48.667 68.5 66s25.333 33.166 31 47.499s8.5 30.833 8.5 49.5v0
c0 17.333 -4.33301 30.333 -13 39s-21.334 13 -38.001 13c-18.667 0 -33.667 -6 -45 -18s-18.666 -29.333 -21.999 -52v0h-164v0c4.66699 69.333 26.5 121.833 65.5 157.5s91.833 53.5 158.5 53.5c75.333 0 131.833 -16 169.5 -48s56.5 -79.667 56.5 -143v-1
c0 -34 -9.66699 -66 -29 -96s-54 -69.333 -104 -118l-77 -75h210v-149h-429v141z" />
    <glyph glyph-name="threequarters" unicode="&#xbe;" horiz-adv-x="1441" 
d="M1061 1454h179l-790 -1454h-179zM863 216l167 407h165l-160 -407h306v-134h-478v134zM1151 329h140v-329h-140v329zM162.5 876.5c-41.667 35 -62.5 87.833 -62.5 158.5v0h160v0c0 -25.333 7.33301 -44.333 22 -57s36.667 -19 66 -19c24.667 0 43.5 5.33301 56.5 16
s19.5 26.667 19.5 48v-1c0 23.333 -8.16699 40.5 -24.5 51.5s-41.5 16.5 -75.5 16.5h-28v116h28c30.667 0 53.334 5.83301 68.001 17.5s22 29.167 22 52.5v-3c0 17.333 -5.33301 30.333 -16 39s-27 13 -49 13c-25.333 0 -44.5 -5.83301 -57.5 -17.5
s-19.5 -29.167 -19.5 -52.5v0h-162v0c0 68.667 20.167 120.167 60.5 154.5s100.166 51.5 179.499 51.5s138.833 -14.167 178.5 -42.5s59.5 -71.166 59.5 -128.499v-2c0 -34.667 -10.5 -63.667 -31.5 -87s-52.5 -41 -94.5 -53c45.333 -6.66699 79.333 -21.834 102 -45.501
s34 -56.167 34 -97.5v0c0 -60.667 -20.667 -106 -62 -136s-103.333 -45 -186 -45c-83.333 0 -145.833 17.5 -187.5 52.5z" />
    <glyph glyph-name="questiondown" unicode="&#xbf;" horiz-adv-x="844" 
d="M264 -378c-56.667 29.333 -99.833 71.832 -129.5 127.499s-44.5 122.834 -44.5 201.501v1c0 47.333 6.16699 90 18.5 128s27.333 71 45 99s41.834 62 72.501 102c33.333 42.667 60.333 80.5 81 113.5s38 72.667 52 119s21 99.833 21 160.5h204
c0 -70.667 -8 -133.667 -24 -189s-35.333 -102 -58 -140s-52.334 -81.667 -89.001 -131c-26.667 -36.667 -47.667 -66.834 -63 -90.501s-28 -50 -38 -79s-15 -60.167 -15 -93.5v-1c0 -58 14.833 -103 44.5 -135s71.167 -48 124.5 -48c54 0 95.833 19.833 125.5 59.5
s44.834 95.834 45.501 168.501v1h207v-1c-2.66699 -88 -19.334 -163.167 -50.001 -225.5s-73.667 -109.833 -129 -142.5s-121 -49 -197 -49c-79.333 0 -147.333 14.667 -204 44zM593.001 842.999h-204v204h204v-204z" />
    <glyph glyph-name="Agrave" unicode="&#xc0;" horiz-adv-x="1326" 
d="M576 1454h174l536 -1454h-220l-403 1173l-403 -1173h-220zM287 513h765v-194h-765v194zM354 1770l122 137l276 -245l-113 -118z" />
    <glyph glyph-name="Aacute" unicode="&#xc1;" horiz-adv-x="1326" 
d="M576 1454h174l536 -1454h-220l-403 1173l-403 -1173h-220zM287 513h765v-194h-765v194zM569 1672l276 245l132 -137l-295 -226z" />
    <glyph glyph-name="Acircumflex" unicode="&#xc2;" horiz-adv-x="1326" 
d="M576 1454h174l536 -1454h-220l-403 1173l-403 -1173h-220zM287 513h765v-194h-765v194zM974 1662l-119 -110l-195 150l-195 -150l-119 110l314 244z" />
    <glyph glyph-name="Atilde" unicode="&#xc3;" horiz-adv-x="1326" 
d="M576 1454h174l536 -1454h-220l-403 1173l-403 -1173h-220zM287 513h765v-194h-765v194zM787 1563c-18.667 3.33301 -36.001 7.83105 -52.001 13.498s-32.667 12.5 -50 20.5l-3 1l-29.5 15.5c-9.66699 5 -19.167 10.167 -28.5 15.5
c-24.667 14.667 -45.167 25.5 -61.5 32.5s-32.5 10.5 -48.5 10.5c-26.667 0 -46.667 -7.5 -60 -22.5s-20 -37.5 -20 -67.5v-21h-158v25c0 86.667 17 151.5 51 194.5s85 64.5 153 64.5c38 0 71 -4.66699 99 -14s59.667 -22.666 95 -39.999l3 -2l17.5 -9.5
c5.66699 -3 11.167 -6.16699 16.5 -9.5c23.333 -13.333 42.333 -23.166 57 -29.499s29.334 -9.5 44.001 -9.5c26.667 0 46.667 8 60 24s20 40.333 20 73v20h158v-24c0 -88.667 -16.833 -155.167 -50.5 -199.5s-84.5 -66.5 -152.5 -66.5c-21.333 0 -41.333 1.66699 -60 5z
" />
    <glyph glyph-name="Adieresis" unicode="&#xc4;" horiz-adv-x="1326" 
d="M576 1454h174l536 -1454h-220l-403 1173l-403 -1173h-220zM287 513h765v-194h-765v194zM766 1777h204v-204h-204v204zM356 1777h204v-204h-204v204z" />
    <glyph glyph-name="Aring" unicode="&#xc5;" horiz-adv-x="1326" 
d="M481.5 1482c-42.333 40 -63.5 97 -63.5 171c0 77.333 21.167 136.833 63.5 178.5s102.833 62.5 181.5 62.5c78 0 138.333 -21.167 181 -63.5s64 -101.5 64 -177.5c0 -74 -21.333 -131 -64 -171s-103 -60 -181 -60c-78.667 0 -139.167 20 -181.5 60zM739 1580
c18 18.667 27 44.334 27 77.001c0 34 -9 60.5 -27 79.5s-43.333 28.5 -76 28.5s-58 -9.5 -76 -28.5s-27 -45.5 -27 -79.5c0 -32.667 9 -58.334 27 -77.001s43.333 -28 76 -28s58 9.33301 76 28zM576 1454h174l536 -1454h-220l-403 1173l-403 -1173h-220zM287 513h765v-194
h-765v194z" />
    <glyph glyph-name="AE" unicode="&#xc6;" horiz-adv-x="2000" 
d="M806 1454h221l-800 -1454h-227zM355 511h705v-194h-705v194zM956 1454h204v-1454h-204v1454zM1055 194h835v-194h-835v194zM1055 819h725v-194h-725v194zM1055 1454h835v-194h-835v194z" />
    <glyph glyph-name="Ccedilla" unicode="&#xc7;" horiz-adv-x="1267" 
d="M390.5 52c-76.333 44.667 -135.501 108.002 -177.501 190.002s-63 177 -63 285v399c0 108 21 203 63 285s101.167 145.5 177.5 190.5s164.833 67.5 265.5 67.5c83.333 0 160 -17.833 230 -53.5s128.5 -86.167 175.5 -151.5s78.833 -141 95.5 -227v0h-209v0
c-12.667 45.333 -33.834 85.833 -63.501 121.5s-64.5 63.167 -104.5 82.5s-81.333 29 -124 29c-59.333 0 -111.333 -14.333 -156 -43s-79.334 -68.834 -104.001 -120.501s-37 -111.834 -37 -180.501v-399c0 -68 12.333 -128 37 -180s59.334 -92.167 104.001 -120.5
s96.667 -42.5 156 -42.5c43.333 0 84.833 9 124.5 27s74.334 44.667 104.001 80s50.834 77.333 63.501 126v0h209v0c-16.667 -86 -48.667 -161.667 -96 -227s-106 -115.833 -176 -151.5s-146.333 -53.5 -229 -53.5c-100.667 0 -189.167 22.333 -265.5 67zM470.999 -403.998
l42 140.001c32 -9.33301 63.667 -14 95 -14c36.667 0 64 4.16699 82 12.5s27 21.166 27 38.499c0 16.667 -12 29 -36 37s-60.667 12 -110 12l87 116c78.667 0 137.5 -14.833 176.5 -44.5s58.5 -74.5 58.5 -134.5c0 -60.667 -21.333 -106 -64 -136s-107 -45 -193 -45
c-66.667 0 -121.667 6 -165 18zM720.999 61.0029v-241l-166 2v239h166z" />
    <glyph glyph-name="Egrave" unicode="&#xc8;" horiz-adv-x="1224" 
d="M180 1454h204v-1454h-204v1454zM279 194h835v-194h-835v194zM279 819h725v-194h-725v194zM279 1454h835v-194h-835v194zM356 1770l122 137l276 -245l-113 -118z" />
    <glyph glyph-name="Eacute" unicode="&#xc9;" horiz-adv-x="1224" 
d="M180 1454h204v-1454h-204v1454zM279 194h835v-194h-835v194zM279 819h725v-194h-725v194zM279 1454h835v-194h-835v194zM571 1672l276 245l132 -137l-295 -226z" />
    <glyph glyph-name="Ecircumflex" unicode="&#xca;" horiz-adv-x="1224" 
d="M180 1454h204v-1454h-204v1454zM279 194h835v-194h-835v194zM279 819h725v-194h-725v194zM279 1454h835v-194h-835v194zM976 1662l-119 -110l-195 150l-195 -150l-119 110l314 244z" />
    <glyph glyph-name="Edieresis" unicode="&#xcb;" horiz-adv-x="1224" 
d="M180 1454h204v-1454h-204v1454zM279 194h835v-194h-835v194zM279 819h725v-194h-725v194zM279 1454h835v-194h-835v194zM768 1777h204v-204h-204v204zM358 1777h204v-204h-204v204z" />
    <glyph glyph-name="Igrave" unicode="&#xcc;" horiz-adv-x="564" 
d="M384 0h-204v1454h204v-1454zM-27 1770l122 137l276 -245l-113 -118z" />
    <glyph glyph-name="Iacute" unicode="&#xcd;" horiz-adv-x="564" 
d="M384 0h-204v1454h204v-1454zM188 1672l276 245l132 -137l-295 -226z" />
    <glyph glyph-name="Icircumflex" unicode="&#xce;" horiz-adv-x="564" 
d="M384 0h-204v1454h204v-1454zM593 1662l-119 -110l-195 150l-195 -150l-119 110l314 244z" />
    <glyph glyph-name="Idieresis" unicode="&#xcf;" horiz-adv-x="564" 
d="M384 0h-204v1454h204v-1454zM385 1777h204v-204h-204v204zM-25 1777h204v-204h-204v204z" />
    <glyph glyph-name="Eth" unicode="&#xd0;" horiz-adv-x="1391" 
d="M365 194h328.999c107.333 0 190.5 27.833 249.5 83.5s88.5 134.167 88.5 235.5v428c0 101.333 -29.5 179.833 -88.5 235.5s-142.167 83.5 -249.5 83.5h-329v194h323c116.667 0 216.334 -20.333 299.001 -61s145.667 -100 189 -178s65 -172 65 -282v-412
c0 -110 -21.667 -204 -65 -282s-106.5 -137.333 -189.5 -178s-182.833 -61 -299.5 -61h-322v194zM226.999 1454h204v-1454h-204v1454zM747.999 814v-174h-670v174h670z" />
    <glyph glyph-name="Ntilde" unicode="&#xd1;" horiz-adv-x="1434" 
d="M180 1454h185l711 -1124l-24 -26v1150h202v-1453h-187l-709 1107l24 26v-1133h-202v1453zM856 1563c-18.667 3.33301 -36.001 7.83105 -52.001 13.498s-32.667 12.5 -50 20.5l-3 1l-29.5 15.5c-9.66699 5 -19.167 10.167 -28.5 15.5
c-24.667 14.667 -45.167 25.5 -61.5 32.5s-32.5 10.5 -48.5 10.5c-26.667 0 -46.667 -7.5 -60 -22.5s-20 -37.5 -20 -67.5v-21h-158v25c0 86.667 17 151.5 51 194.5s85 64.5 153 64.5c38 0 71 -4.66699 99 -14s59.667 -22.666 95 -39.999l3 -2l17.5 -9.5
c5.66699 -3 11.167 -6.16699 16.5 -9.5c23.333 -13.333 42.333 -23.166 57 -29.499s29.334 -9.5 44.001 -9.5c26.667 0 46.667 8 60 24s20 40.333 20 73v20h158v-24c0 -88.667 -16.833 -155.167 -50.5 -199.5s-84.5 -66.5 -152.5 -66.5c-21.333 0 -41.333 1.66699 -60 5z
" />
    <glyph glyph-name="Ograve" unicode="&#xd2;" horiz-adv-x="1322" 
d="M393 51.5c-77.333 44.333 -137.166 107 -179.499 188s-63.5 174.833 -63.5 281.5v412c0 106.667 21.167 200.5 63.5 281.5s102.166 143.667 179.499 188s166.666 66.5 267.999 66.5s190.666 -22.167 267.999 -66.5s137.166 -107 179.499 -188s63.5 -174.833 63.5 -281.5
v-412c0 -106.667 -21.167 -200.5 -63.5 -281.5s-102.166 -143.667 -179.499 -188s-166.666 -66.5 -267.999 -66.5s-190.666 22.167 -267.999 66.5zM819.5 226.5c45.667 27 81 65.333 106 115s37.5 107.167 37.5 172.5v426c0 65.333 -12.5 122.833 -37.5 172.5
s-60.333 88 -106 115s-98.5 40.5 -158.5 40.5s-112.833 -13.5 -158.5 -40.5s-81 -65.333 -106 -115s-37.5 -107.167 -37.5 -172.5v-426c0 -65.333 12.5 -122.833 37.5 -172.5s60.333 -88 106 -115s98.5 -40.5 158.5 -40.5s112.833 13.5 158.5 40.5zM352 1770l122 137
l276 -245l-113 -118z" />
    <glyph glyph-name="Oacute" unicode="&#xd3;" horiz-adv-x="1322" 
d="M393 51.5c-77.333 44.333 -137.166 107 -179.499 188s-63.5 174.833 -63.5 281.5v412c0 106.667 21.167 200.5 63.5 281.5s102.166 143.667 179.499 188s166.666 66.5 267.999 66.5s190.666 -22.167 267.999 -66.5s137.166 -107 179.499 -188s63.5 -174.833 63.5 -281.5
v-412c0 -106.667 -21.167 -200.5 -63.5 -281.5s-102.166 -143.667 -179.499 -188s-166.666 -66.5 -267.999 -66.5s-190.666 22.167 -267.999 66.5zM819.5 226.5c45.667 27 81 65.333 106 115s37.5 107.167 37.5 172.5v426c0 65.333 -12.5 122.833 -37.5 172.5
s-60.333 88 -106 115s-98.5 40.5 -158.5 40.5s-112.833 -13.5 -158.5 -40.5s-81 -65.333 -106 -115s-37.5 -107.167 -37.5 -172.5v-426c0 -65.333 12.5 -122.833 37.5 -172.5s60.333 -88 106 -115s98.5 -40.5 158.5 -40.5s112.833 13.5 158.5 40.5zM567 1672l276 245
l132 -137l-295 -226z" />
    <glyph glyph-name="Ocircumflex" unicode="&#xd4;" horiz-adv-x="1322" 
d="M393 51.5c-77.333 44.333 -137.166 107 -179.499 188s-63.5 174.833 -63.5 281.5v412c0 106.667 21.167 200.5 63.5 281.5s102.166 143.667 179.499 188s166.666 66.5 267.999 66.5s190.666 -22.167 267.999 -66.5s137.166 -107 179.499 -188s63.5 -174.833 63.5 -281.5
v-412c0 -106.667 -21.167 -200.5 -63.5 -281.5s-102.166 -143.667 -179.499 -188s-166.666 -66.5 -267.999 -66.5s-190.666 22.167 -267.999 66.5zM819.5 226.5c45.667 27 81 65.333 106 115s37.5 107.167 37.5 172.5v426c0 65.333 -12.5 122.833 -37.5 172.5
s-60.333 88 -106 115s-98.5 40.5 -158.5 40.5s-112.833 -13.5 -158.5 -40.5s-81 -65.333 -106 -115s-37.5 -107.167 -37.5 -172.5v-426c0 -65.333 12.5 -122.833 37.5 -172.5s60.333 -88 106 -115s98.5 -40.5 158.5 -40.5s112.833 13.5 158.5 40.5zM972 1662l-119 -110
l-195 150l-195 -150l-119 110l314 244z" />
    <glyph glyph-name="Otilde" unicode="&#xd5;" horiz-adv-x="1322" 
d="M393 51.5c-77.333 44.333 -137.166 107 -179.499 188s-63.5 174.833 -63.5 281.5v412c0 106.667 21.167 200.5 63.5 281.5s102.166 143.667 179.499 188s166.666 66.5 267.999 66.5s190.666 -22.167 267.999 -66.5s137.166 -107 179.499 -188s63.5 -174.833 63.5 -281.5
v-412c0 -106.667 -21.167 -200.5 -63.5 -281.5s-102.166 -143.667 -179.499 -188s-166.666 -66.5 -267.999 -66.5s-190.666 22.167 -267.999 66.5zM819.5 226.5c45.667 27 81 65.333 106 115s37.5 107.167 37.5 172.5v426c0 65.333 -12.5 122.833 -37.5 172.5
s-60.333 88 -106 115s-98.5 40.5 -158.5 40.5s-112.833 -13.5 -158.5 -40.5s-81 -65.333 -106 -115s-37.5 -107.167 -37.5 -172.5v-426c0 -65.333 12.5 -122.833 37.5 -172.5s60.333 -88 106 -115s98.5 -40.5 158.5 -40.5s112.833 13.5 158.5 40.5zM785 1563
c-18.667 3.33301 -36.001 7.83105 -52.001 13.498s-32.667 12.5 -50 20.5l-3 1l-29.5 15.5c-9.66699 5 -19.167 10.167 -28.5 15.5c-24.667 14.667 -45.167 25.5 -61.5 32.5s-32.5 10.5 -48.5 10.5c-26.667 0 -46.667 -7.5 -60 -22.5s-20 -37.5 -20 -67.5v-21h-158v25
c0 86.667 17 151.5 51 194.5s85 64.5 153 64.5c38 0 71 -4.66699 99 -14s59.667 -22.666 95 -39.999l3 -2l17.5 -9.5c5.66699 -3 11.167 -6.16699 16.5 -9.5c23.333 -13.333 42.333 -23.166 57 -29.499s29.334 -9.5 44.001 -9.5c26.667 0 46.667 8 60 24s20 40.333 20 73v20
h158v-24c0 -88.667 -16.833 -155.167 -50.5 -199.5s-84.5 -66.5 -152.5 -66.5c-21.333 0 -41.333 1.66699 -60 5z" />
    <glyph glyph-name="Odieresis" unicode="&#xd6;" horiz-adv-x="1322" 
d="M393 51.5c-77.333 44.333 -137.166 107 -179.499 188s-63.5 174.833 -63.5 281.5v412c0 106.667 21.167 200.5 63.5 281.5s102.166 143.667 179.499 188s166.666 66.5 267.999 66.5s190.666 -22.167 267.999 -66.5s137.166 -107 179.499 -188s63.5 -174.833 63.5 -281.5
v-412c0 -106.667 -21.167 -200.5 -63.5 -281.5s-102.166 -143.667 -179.499 -188s-166.666 -66.5 -267.999 -66.5s-190.666 22.167 -267.999 66.5zM819.5 226.5c45.667 27 81 65.333 106 115s37.5 107.167 37.5 172.5v426c0 65.333 -12.5 122.833 -37.5 172.5
s-60.333 88 -106 115s-98.5 40.5 -158.5 40.5s-112.833 -13.5 -158.5 -40.5s-81 -65.333 -106 -115s-37.5 -107.167 -37.5 -172.5v-426c0 -65.333 12.5 -122.833 37.5 -172.5s60.333 -88 106 -115s98.5 -40.5 158.5 -40.5s112.833 13.5 158.5 40.5zM764 1777h204v-204h-204
v204zM354 1777h204v-204h-204v204z" />
    <glyph glyph-name="multiply" unicode="&#xd7;" horiz-adv-x="1031" 
d="M141 415l618 642l142 -136l-618 -648zM140 921l132 132l629 -638l-132 -132z" />
    <glyph glyph-name="Oslash" unicode="&#xd8;" horiz-adv-x="1322" 
d="M997 1597h154l-808 -1728h-155zM393 51.5c-77.333 44.333 -137.166 107 -179.499 188s-63.5 174.833 -63.5 281.5v412c0 106.667 21.167 200.5 63.5 281.5s102.166 143.667 179.499 188s166.666 66.5 267.999 66.5s190.666 -22.167 267.999 -66.5
s137.166 -107 179.499 -188s63.5 -174.833 63.5 -281.5v-412c0 -106.667 -21.167 -200.5 -63.5 -281.5s-102.166 -143.667 -179.499 -188s-166.666 -66.5 -267.999 -66.5s-190.666 22.167 -267.999 66.5zM819.5 226.5c45.667 27 81 65.333 106 115s37.5 107.167 37.5 172.5
v426c0 65.333 -12.5 122.833 -37.5 172.5s-60.333 88 -106 115s-98.5 40.5 -158.5 40.5s-112.833 -13.5 -158.5 -40.5s-81 -65.333 -106 -115s-37.5 -107.167 -37.5 -172.5v-426c0 -65.333 12.5 -122.833 37.5 -172.5s60.333 -88 106 -115s98.5 -40.5 158.5 -40.5
s112.833 13.5 158.5 40.5z" />
    <glyph glyph-name="Ugrave" unicode="&#xd9;" horiz-adv-x="1342" 
d="M394.5 48.5c-76.333 42.333 -134.5 104 -174.5 185s-60 178.5 -60 292.5v928h204v-935c0 -106 26.667 -188 80 -246s128.666 -87 225.999 -87c98 0 173.833 29 227.5 87s80.5 140 80.5 246v935h204v-928c0 -114 -20 -211.5 -60 -292.5s-98.333 -142.667 -175 -185
s-169 -63.5 -277 -63.5c-107.333 0 -199.166 21.167 -275.499 63.5zM362 1770l122 137l276 -245l-113 -118z" />
    <glyph glyph-name="Uacute" unicode="&#xda;" horiz-adv-x="1342" 
d="M394.5 48.5c-76.333 42.333 -134.5 104 -174.5 185s-60 178.5 -60 292.5v928h204v-935c0 -106 26.667 -188 80 -246s128.666 -87 225.999 -87c98 0 173.833 29 227.5 87s80.5 140 80.5 246v935h204v-928c0 -114 -20 -211.5 -60 -292.5s-98.333 -142.667 -175 -185
s-169 -63.5 -277 -63.5c-107.333 0 -199.166 21.167 -275.499 63.5zM577 1672l276 245l132 -137l-295 -226z" />
    <glyph glyph-name="Ucircumflex" unicode="&#xdb;" horiz-adv-x="1342" 
d="M394.5 48.5c-76.333 42.333 -134.5 104 -174.5 185s-60 178.5 -60 292.5v928h204v-935c0 -106 26.667 -188 80 -246s128.666 -87 225.999 -87c98 0 173.833 29 227.5 87s80.5 140 80.5 246v935h204v-928c0 -114 -20 -211.5 -60 -292.5s-98.333 -142.667 -175 -185
s-169 -63.5 -277 -63.5c-107.333 0 -199.166 21.167 -275.499 63.5zM982 1662l-119 -110l-195 150l-195 -150l-119 110l314 244z" />
    <glyph glyph-name="Udieresis" unicode="&#xdc;" horiz-adv-x="1342" 
d="M394.5 48.5c-76.333 42.333 -134.5 104 -174.5 185s-60 178.5 -60 292.5v928h204v-935c0 -106 26.667 -188 80 -246s128.666 -87 225.999 -87c98 0 173.833 29 227.5 87s80.5 140 80.5 246v935h204v-928c0 -114 -20 -211.5 -60 -292.5s-98.333 -142.667 -175 -185
s-169 -63.5 -277 -63.5c-107.333 0 -199.166 21.167 -275.499 63.5zM774 1777h204v-204h-204v204zM364 1777h204v-204h-204v204z" />
    <glyph glyph-name="Yacute" unicode="&#xdd;" horiz-adv-x="1030" 
d="M617 591v-591h-204v591l-443 863h227l318 -656l318 656h227zM421 1672l276 245l132 -137l-295 -226z" />
    <glyph glyph-name="Thorn" unicode="&#xde;" horiz-adv-x="1275" 
d="M285 498h465c44 0 82.667 10.333 116 31s59.166 50 77.499 88s27.5 81.667 27.5 131v0c0 50 -9.16699 94 -27.5 132s-44.166 67.5 -77.499 88.5s-72 31.5 -116 31.5h-465v194h458c86.667 0 163 -18.5 229 -55.5s117.167 -89.167 153.5 -156.5s54.5 -145.333 54.5 -234v0
c0 -88.667 -18.167 -166.5 -54.5 -233.5s-87.5 -118.833 -153.5 -155.5s-142.333 -55 -229 -55h-458v194zM180 1454h204v-1454h-204v1454z" />
    <glyph glyph-name="germandbls" unicode="&#xdf;" horiz-adv-x="1137" 
d="M160 1030c0 92.667 16.5 171.835 49.5 237.502s81.167 115.667 144.5 150s139.666 51.5 228.999 51.5c85.333 0 158.166 -13.5 218.499 -40.5s106.333 -66.5 138 -118.5s47.5 -114.333 47.5 -187v-1c0 -63.333 -15.833 -115.833 -47.5 -157.5
s-76.167 -68.834 -133.5 -81.501c57.333 -10.667 101.833 -35.334 133.5 -74.001s47.5 -87.667 47.5 -147v-430c0 -78.667 -26.667 -139.5 -80 -182.5s-128.666 -64.5 -225.999 -64.5h-96v194h96c32.667 0 57.834 8.33301 75.501 25s26.5 40 26.5 70v413
c0 30 -8.83301 53.333 -26.5 70s-42.834 25 -75.501 25h-96v194h96c32.667 0 57.834 12.167 75.501 36.5s26.5 58.833 26.5 103.5v1c0 50.667 -16.833 89.667 -50.5 117s-81.167 41 -142.5 41c-72 0 -127.667 -22 -167 -66s-59 -106.333 -59 -187v-1022h-204v1030z" />
    <glyph glyph-name="agrave" unicode="&#xe0;" horiz-adv-x="1090" 
d="M746 658c0 68 -18.165 120.835 -54.498 158.502s-87.833 56.5 -154.5 56.5c-41.333 0 -81.833 -6.33301 -121.5 -19s-74.834 -30.334 -105.501 -53.001l-149 102c39.333 47.333 91.166 84.166 155.499 110.499s135.833 39.5 214.5 39.5c86 0 159.667 -15.167 221 -45.5
s108 -74.333 140 -132s48 -127.167 48 -208.5v-667h-194v658zM205.002 64.502c-63.333 53 -95.001 133.501 -95.001 241.501c0 102.667 29 179.667 87 231s145.667 77 263 77h295l14 -164h-308c-53.333 0 -93.166 -11.833 -119.499 -35.5s-39.5 -59.834 -39.5 -108.501
c0 -52.667 17.5 -91.667 52.5 -117s88.167 -38 159.5 -38c78 0 136.167 8.33301 174.5 25s57.5 42.667 57.5 78l21 -146c-18 -28 -40.167 -51 -66.5 -69s-56.833 -31.5 -91.5 -40.5s-73.667 -13.5 -117 -13.5c-128 0 -223.667 26.5 -287 79.5zM211.001 1574l147 122
l286 -355l-128 -103z" />
    <glyph glyph-name="aacute" unicode="&#xe1;" horiz-adv-x="1090" 
d="M746 658c0 68 -18.165 120.835 -54.498 158.502s-87.833 56.5 -154.5 56.5c-41.333 0 -81.833 -6.33301 -121.5 -19s-74.834 -30.334 -105.501 -53.001l-149 102c39.333 47.333 91.166 84.166 155.499 110.499s135.833 39.5 214.5 39.5c86 0 159.667 -15.167 221 -45.5
s108 -74.333 140 -132s48 -127.167 48 -208.5v-667h-194v658zM205.002 64.502c-63.333 53 -95.001 133.501 -95.001 241.501c0 102.667 29 179.667 87 231s145.667 77 263 77h295l14 -164h-308c-53.333 0 -93.166 -11.833 -119.499 -35.5s-39.5 -59.834 -39.5 -108.501
c0 -52.667 17.5 -91.667 52.5 -117s88.167 -38 159.5 -38c78 0 136.167 8.33301 174.5 25s57.5 42.667 57.5 78l21 -146c-18 -28 -40.167 -51 -66.5 -69s-56.833 -31.5 -91.5 -40.5s-73.667 -13.5 -117 -13.5c-128 0 -223.667 26.5 -287 79.5zM429.001 1341l286 355
l147 -122l-305 -336z" />
    <glyph glyph-name="acircumflex" unicode="&#xe2;" horiz-adv-x="1090" 
d="M746 658c0 68 -18.165 120.835 -54.498 158.502s-87.833 56.5 -154.5 56.5c-41.333 0 -81.833 -6.33301 -121.5 -19s-74.834 -30.334 -105.501 -53.001l-149 102c39.333 47.333 91.166 84.166 155.499 110.499s135.833 39.5 214.5 39.5c86 0 159.667 -15.167 221 -45.5
s108 -74.333 140 -132s48 -127.167 48 -208.5v-667h-194v658zM205.002 64.502c-63.333 53 -95.001 133.501 -95.001 241.501c0 102.667 29 179.667 87 231s145.667 77 263 77h295l14 -164h-308c-53.333 0 -93.166 -11.833 -119.499 -35.5s-39.5 -59.834 -39.5 -108.501
c0 -52.667 17.5 -91.667 52.5 -117s88.167 -38 159.5 -38c78 0 136.167 8.33301 174.5 25s57.5 42.667 57.5 78l21 -146c-18 -28 -40.167 -51 -66.5 -69s-56.833 -31.5 -91.5 -40.5s-73.667 -13.5 -117 -13.5c-128 0 -223.667 26.5 -287 79.5zM854.001 1343l-114 -105
l-200 190l-200 -190l-114 105l314 304z" />
    <glyph glyph-name="atilde" unicode="&#xe3;" horiz-adv-x="1090" 
d="M746 658c0 68 -18.165 120.835 -54.498 158.502s-87.833 56.5 -154.5 56.5c-41.333 0 -81.833 -6.33301 -121.5 -19s-74.834 -30.334 -105.501 -53.001l-149 102c39.333 47.333 91.166 84.166 155.499 110.499s135.833 39.5 214.5 39.5c86 0 159.667 -15.167 221 -45.5
s108 -74.333 140 -132s48 -127.167 48 -208.5v-667h-194v658zM205.002 64.502c-63.333 53 -95.001 133.501 -95.001 241.501c0 102.667 29 179.667 87 231s145.667 77 263 77h295l14 -164h-308c-53.333 0 -93.166 -11.833 -119.499 -35.5s-39.5 -59.834 -39.5 -108.501
c0 -52.667 17.5 -91.667 52.5 -117s88.167 -38 159.5 -38c78 0 136.167 8.33301 174.5 25s57.5 42.667 57.5 78l21 -146c-18 -28 -40.167 -51 -66.5 -69s-56.833 -31.5 -91.5 -40.5s-73.667 -13.5 -117 -13.5c-128 0 -223.667 26.5 -287 79.5zM620.501 1259.5
c-21 8.33301 -42.501 19.8291 -64.501 34.4961l-8 6c-3.33301 2.66699 -7 5.33398 -11 8.00098s-7.66699 5.33398 -11 8.00098c-26 18.667 -46.667 32.334 -62 41.001s-29.666 13 -42.999 13c-23.333 0 -40.833 -5.66699 -52.5 -17s-17.5 -28.666 -17.5 -51.999v-51h-158v45
c0 82.667 17 144.667 51 186s85 62 153 62c25.333 0 49.5 -5 72.5 -15s46.833 -24 71.5 -42l8 -6l11 -8c23.333 -17.333 42.333 -30.333 57 -39s28.667 -13 42 -13c23.333 0 40.833 6.33301 52.5 19s17.5 32 17.5 58v40h158v-34c0 -85.333 -16.833 -149.333 -50.5 -192
s-84.5 -64 -152.5 -64c-21.333 0 -42.5 4.16699 -63.5 12.5z" />
    <glyph glyph-name="adieresis" unicode="&#xe4;" horiz-adv-x="1090" 
d="M746 658c0 68 -18.165 120.835 -54.498 158.502s-87.833 56.5 -154.5 56.5c-41.333 0 -81.833 -6.33301 -121.5 -19s-74.834 -30.334 -105.501 -53.001l-149 102c39.333 47.333 91.166 84.166 155.499 110.499s135.833 39.5 214.5 39.5c86 0 159.667 -15.167 221 -45.5
s108 -74.333 140 -132s48 -127.167 48 -208.5v-667h-194v658zM205.002 64.502c-63.333 53 -95.001 133.501 -95.001 241.501c0 102.667 29 179.667 87 231s145.667 77 263 77h295l14 -164h-308c-53.333 0 -93.166 -11.833 -119.499 -35.5s-39.5 -59.834 -39.5 -108.501
c0 -52.667 17.5 -91.667 52.5 -117s88.167 -38 159.5 -38c78 0 136.167 8.33301 174.5 25s57.5 42.667 57.5 78l21 -146c-18 -28 -40.167 -51 -66.5 -69s-56.833 -31.5 -91.5 -40.5s-73.667 -13.5 -117 -13.5c-128 0 -223.667 26.5 -287 79.5zM648.001 1454h204v-204h-204
v204zM228.001 1454h204v-204h-204v204z" />
    <glyph glyph-name="aring" unicode="&#xe5;" horiz-adv-x="1090" 
d="M746 658c0 68 -18.165 120.835 -54.498 158.502s-87.833 56.5 -154.5 56.5c-41.333 0 -81.833 -6.33301 -121.5 -19s-74.834 -30.334 -105.501 -53.001l-149 102c39.333 47.333 91.166 84.166 155.499 110.499s135.833 39.5 214.5 39.5c86 0 159.667 -15.167 221 -45.5
s108 -74.333 140 -132s48 -127.167 48 -208.5v-667h-194v658zM205.002 64.502c-63.333 53 -95.001 133.501 -95.001 241.501c0 102.667 29 179.667 87 231s145.667 77 263 77h295l14 -164h-308c-53.333 0 -93.166 -11.833 -119.499 -35.5s-39.5 -59.834 -39.5 -108.501
c0 -52.667 17.5 -91.667 52.5 -117s88.167 -38 159.5 -38c78 0 136.167 8.33301 174.5 25s57.5 42.667 57.5 78l21 -146c-18 -28 -40.167 -51 -66.5 -69s-56.833 -31.5 -91.5 -40.5s-73.667 -13.5 -117 -13.5c-128 0 -223.667 26.5 -287 79.5zM358.501 1301
c-42.333 40 -63.5 97 -63.5 171c0 77.333 21.167 136.833 63.5 178.5s102.833 62.5 181.5 62.5c78 0 138.333 -21.167 181 -63.5s64 -101.5 64 -177.5c0 -74 -21.333 -131 -64 -171s-103 -60 -181 -60c-78.667 0 -139.167 20 -181.5 60zM616.001 1399
c18 18.667 27 44.334 27 77.001c0 34 -9 60.5 -27 79.5s-43.333 28.5 -76 28.5s-58 -9.5 -76 -28.5s-27 -45.5 -27 -79.5c0 -32.667 9 -58.334 27 -77.001s43.333 -28 76 -28s58 9.33301 76 28z" />
    <glyph glyph-name="ae" unicode="&#xe6;" horiz-adv-x="1708" 
d="M756 658c0 68 -19.167 120.836 -57.5 158.503s-92.166 56.5 -161.499 56.5c-40.667 0 -80.5 -6.33301 -119.5 -19s-73.833 -30.334 -104.5 -53.001l-152 102c39.333 47.333 91.166 84.166 155.499 110.499s135.833 39.5 214.5 39.5c104.667 0 185.667 -29.333 243 -88
s86 -141.334 86 -248.001v-232h-104v173zM197.5 64.5029c-58.333 53 -87.502 133.504 -87.502 241.504c0 101.333 29 177.166 87 227.499s145.667 75.5 263 75.5h365l14 -159h-378c-53.333 0 -93.166 -11.833 -119.499 -35.5s-39.5 -59.834 -39.5 -108.501
c0 -49.333 15 -85.833 45 -109.5s75.667 -35.5 137 -35.5c60 0 110 14.167 150 42.5s69.5 65.166 88.5 110.499s28.5 93.666 28.5 144.999h105v-248c-39.333 -76.667 -91.666 -133.5 -156.999 -170.5s-144.333 -55.5 -237 -55.5c-118 0 -206.167 26.5 -264.5 79.5z
M991.998 36.5068c-56 34.333 -98.667 84.334 -128 150.001s-44 145.167 -44 238.5v187c0 92.667 14 172 42 238s68.833 116.333 122.5 151s117.834 52 192.501 52c86.667 0 160.667 -21.833 222 -65.5s108.166 -106.834 140.499 -189.501s48.5 -182 48.5 -298v-50h-710v159
h516v0c-6 83.333 -27.833 148.166 -65.5 194.499s-88.167 69.5 -151.5 69.5c-80 0 -142.167 -26.167 -186.5 -78.5s-66.5 -126.166 -66.5 -221.499v-132c0 -90 23.667 -159.167 71 -207.5s114 -72.5 200 -72.5c43.333 0 86.333 8.5 129 25.5s81 41.167 115 72.5v0l122 -119
v0c-51.333 -49.333 -109 -87.5 -173 -114.5s-128.333 -40.5 -193 -40.5c-79.333 0 -147 17.167 -203 51.5z" />
    <glyph glyph-name="ccedilla" unicode="&#xe7;" horiz-adv-x="1020" 
d="M336.5 38c-67 35.333 -118.167 86.6689 -153.5 154.002s-53 148.666 -53 243.999v171c0 94 17.667 174.333 53 241s86.5 117.5 153.5 152.5s147.833 52.5 242.5 52.5c54 0 104.833 -6.5 152.5 -19.5s90.5 -31.833 128.5 -56.5s69.667 -54.667 95 -90v0l-147 -132v0
c-29.333 33.333 -63.666 59 -102.999 77s-80.333 27 -123 27c-78.667 0 -139.667 -22 -183 -66s-65 -106 -65 -186v-171c0 -82 21.5 -145.333 64.5 -190s104.167 -67 183.5 -67c43.333 0 84.666 9.66699 123.999 29s73.333 46.666 102 81.999v0l147 -142v0
c-26 -34.667 -58 -64.167 -96 -88.5s-80.833 -42.833 -128.5 -55.5s-98.167 -19 -151.5 -19c-94.667 0 -175.5 17.667 -242.5 53zM362 -403.997l42 140.001c32 -9.33301 63.667 -14 95 -14c36.667 0 64 4.16699 82 12.5s27 21.166 27 38.499c0 16.667 -12 29 -36 37
s-60.667 12 -110 12l87 116c78.667 0 137.5 -14.833 176.5 -44.5s58.5 -74.5 58.5 -134.5c0 -60.667 -21.333 -106 -64 -136s-107 -45 -193 -45c-66.667 0 -121.667 6 -165 18zM446 91.0039h166v-269h-166v269z" />
    <glyph glyph-name="egrave" unicode="&#xe8;" horiz-adv-x="1098" 
d="M339 39c-68 36 -119.831 88.832 -155.498 158.499s-53.5 153.834 -53.5 252.501v117c0 102.667 17.167 190.334 51.5 263.001s84.166 128 149.499 166s144 57 236 57c86.667 0 160.667 -21.667 222 -65s108.166 -106 140.499 -188s48.5 -180.333 48.5 -295v-68h-700v164
h506v0c-6 84.667 -27.833 150.5 -65.5 197.5s-88.167 70.5 -151.5 70.5c-77.333 0 -137.166 -25.333 -179.499 -76s-63.5 -122.334 -63.5 -215.001v-132c0 -86 22.667 -152 68 -198s109.666 -69 192.999 -69c41.333 0 82.333 8.33301 123 25s77 40 109 70v0l134 -134v0
c-51.333 -49.333 -109 -87.5 -173 -114.5s-128.333 -40.5 -193 -40.5c-96 0 -178 18 -246 54zM226.002 1574l147 122l286 -355l-128 -103z" />
    <glyph glyph-name="eacute" unicode="&#xe9;" horiz-adv-x="1098" 
d="M339 39c-68 36 -119.831 88.832 -155.498 158.499s-53.5 153.834 -53.5 252.501v117c0 102.667 17.167 190.334 51.5 263.001s84.166 128 149.499 166s144 57 236 57c86.667 0 160.667 -21.667 222 -65s108.166 -106 140.499 -188s48.5 -180.333 48.5 -295v-68h-700v164
h506v0c-6 84.667 -27.833 150.5 -65.5 197.5s-88.167 70.5 -151.5 70.5c-77.333 0 -137.166 -25.333 -179.499 -76s-63.5 -122.334 -63.5 -215.001v-132c0 -86 22.667 -152 68 -198s109.666 -69 192.999 -69c41.333 0 82.333 8.33301 123 25s77 40 109 70v0l134 -134v0
c-51.333 -49.333 -109 -87.5 -173 -114.5s-128.333 -40.5 -193 -40.5c-96 0 -178 18 -246 54zM444.002 1341l286 355l147 -122l-305 -336z" />
    <glyph glyph-name="ecircumflex" unicode="&#xea;" horiz-adv-x="1098" 
d="M339 39c-68 36 -119.831 88.832 -155.498 158.499s-53.5 153.834 -53.5 252.501v117c0 102.667 17.167 190.334 51.5 263.001s84.166 128 149.499 166s144 57 236 57c86.667 0 160.667 -21.667 222 -65s108.166 -106 140.499 -188s48.5 -180.333 48.5 -295v-68h-700v164
h506v0c-6 84.667 -27.833 150.5 -65.5 197.5s-88.167 70.5 -151.5 70.5c-77.333 0 -137.166 -25.333 -179.499 -76s-63.5 -122.334 -63.5 -215.001v-132c0 -86 22.667 -152 68 -198s109.666 -69 192.999 -69c41.333 0 82.333 8.33301 123 25s77 40 109 70v0l134 -134v0
c-51.333 -49.333 -109 -87.5 -173 -114.5s-128.333 -40.5 -193 -40.5c-96 0 -178 18 -246 54zM869.002 1343l-114 -105l-200 190l-200 -190l-114 105l314 304z" />
    <glyph glyph-name="edieresis" unicode="&#xeb;" horiz-adv-x="1098" 
d="M339 39c-68 36 -119.831 88.832 -155.498 158.499s-53.5 153.834 -53.5 252.501v117c0 102.667 17.167 190.334 51.5 263.001s84.166 128 149.499 166s144 57 236 57c86.667 0 160.667 -21.667 222 -65s108.166 -106 140.499 -188s48.5 -180.333 48.5 -295v-68h-700v164
h506v0c-6 84.667 -27.833 150.5 -65.5 197.5s-88.167 70.5 -151.5 70.5c-77.333 0 -137.166 -25.333 -179.499 -76s-63.5 -122.334 -63.5 -215.001v-132c0 -86 22.667 -152 68 -198s109.666 -69 192.999 -69c41.333 0 82.333 8.33301 123 25s77 40 109 70v0l134 -134v0
c-51.333 -49.333 -109 -87.5 -173 -114.5s-128.333 -40.5 -193 -40.5c-96 0 -178 18 -246 54zM663.002 1454h204v-204h-204v204zM243.002 1454h204v-204h-204v204z" />
    <glyph glyph-name="igrave" unicode="&#xec;" horiz-adv-x="514" 
d="M160 1038h204v-1038h-204v1038zM-67 1574l147 122l286 -355l-128 -103z" />
    <glyph glyph-name="iacute" unicode="&#xed;" horiz-adv-x="514" 
d="M160 1038h204v-1038h-204v1038zM151 1341l286 355l147 -122l-305 -336z" />
    <glyph glyph-name="icircumflex" unicode="&#xee;" horiz-adv-x="514" 
d="M160 1038h204v-1038h-204v1038zM576 1343l-114 -105l-200 190l-200 -190l-114 105l314 304z" />
    <glyph glyph-name="idieresis" unicode="&#xef;" horiz-adv-x="514" 
d="M160 1038h204v-1038h-204v1038zM370 1454h204v-204h-204v204zM-50 1454h204v-204h-204v204z" />
    <glyph glyph-name="eth" unicode="&#xf0;" horiz-adv-x="1102" 
d="M785 688c1.33301 83.333 -17 171.332 -55 263.999s-96 190.334 -174 293.001l-159 209h228l117 -164c70 -98.667 122.5 -204.5 157.5 -317.5s52.5 -233.833 52.5 -362.5zM952 609.999v-179.999c0 -92.667 -16.167 -172.334 -48.5 -239.001s-79.5 -117.667 -141.5 -153
s-136.333 -53 -223 -53c-86 0 -159.667 17.5 -221 52.5s-108 85.667 -140 152s-48 146.5 -48 240.5v183c0 91.333 13.667 170 41 236s67 116.5 119 151.5s114.333 52.5 187 52.5c74 0 136.5 -22.167 187.5 -66.5s99.5 -112.833 145.5 -205.5zM758 610
c0 172.667 -73 258.999 -219 258.999c-71.333 0 -125 -21.5 -161 -64.5s-54 -106.833 -54 -191.5v-183c0 -174 71.667 -261 215 -261c74 0 129 21.833 165 65.5s54 108.834 54 195.501v180zM904 1450l29 -154l-659 -122l-29 154z" />
    <glyph glyph-name="ntilde" unicode="&#xf1;" horiz-adv-x="1144" 
d="M160 1038h204v-1038h-204v1038zM790 629c0 73.333 -19.002 130.001 -57.002 170.001s-91.333 60 -160 60c-66.667 0 -118.167 -17.667 -154.5 -53s-54.5 -85 -54.5 -149l-21 200c32 62.667 73.833 111 125.5 145s108.834 51 171.501 51
c112.667 0 199.834 -36.833 261.501 -110.5s92.5 -177.834 92.5 -312.501v-630h-204v629zM652.498 1259.5c-21 8.33301 -42.501 19.8291 -64.501 34.4961l-8 6c-3.33301 2.66699 -7 5.33398 -11 8.00098s-7.66699 5.33398 -11 8.00098c-26 18.667 -46.667 32.334 -62 41.001
s-29.666 13 -42.999 13c-23.333 0 -40.833 -5.66699 -52.5 -17s-17.5 -28.666 -17.5 -51.999v-51h-158v45c0 82.667 17 144.667 51 186s85 62 153 62c25.333 0 49.5 -5 72.5 -15s46.833 -24 71.5 -42l8 -6l11 -8c23.333 -17.333 42.333 -30.333 57 -39s28.667 -13 42 -13
c23.333 0 40.833 6.33301 52.5 19s17.5 32 17.5 58v40h158v-34c0 -85.333 -16.833 -149.333 -50.5 -192s-84.5 -64 -152.5 -64c-21.333 0 -42.5 4.16699 -63.5 12.5z" />
    <glyph glyph-name="ograve" unicode="&#xf2;" horiz-adv-x="1116" 
d="M327 38c-64 35.333 -112.833 86.833 -146.5 154.5s-50.5 149.167 -50.5 244.5v169c0 94 16.833 174.5 50.5 241.5s82.5 118 146.5 153s141 52.5 231 52.5s167 -17.5 231 -52.5s112.833 -86 146.5 -153s50.5 -147.5 50.5 -241.5v-172
c0 -94.667 -16.833 -175.5 -50.5 -242.5s-82.5 -118.167 -146.5 -153.5s-141 -53 -231 -53s-167 17.667 -231 53zM723.5 246c39 44.667 58.5 107.334 58.5 188.001v172c0 80.667 -19.5 143 -58.5 187s-94.167 66 -165.5 66s-126.5 -22 -165.5 -66s-58.5 -106.333 -58.5 -187
v-172c0 -80.667 19.5 -143.334 58.5 -188.001s94.167 -67 165.5 -67s126.5 22.333 165.5 67zM230 1574l147 122l286 -355l-128 -103z" />
    <glyph glyph-name="oacute" unicode="&#xf3;" horiz-adv-x="1116" 
d="M327 38c-64 35.333 -112.833 86.833 -146.5 154.5s-50.5 149.167 -50.5 244.5v169c0 94 16.833 174.5 50.5 241.5s82.5 118 146.5 153s141 52.5 231 52.5s167 -17.5 231 -52.5s112.833 -86 146.5 -153s50.5 -147.5 50.5 -241.5v-172
c0 -94.667 -16.833 -175.5 -50.5 -242.5s-82.5 -118.167 -146.5 -153.5s-141 -53 -231 -53s-167 17.667 -231 53zM723.5 246c39 44.667 58.5 107.334 58.5 188.001v172c0 80.667 -19.5 143 -58.5 187s-94.167 66 -165.5 66s-126.5 -22 -165.5 -66s-58.5 -106.333 -58.5 -187
v-172c0 -80.667 19.5 -143.334 58.5 -188.001s94.167 -67 165.5 -67s126.5 22.333 165.5 67zM448 1341l286 355l147 -122l-305 -336z" />
    <glyph glyph-name="ocircumflex" unicode="&#xf4;" horiz-adv-x="1116" 
d="M327 38c-64 35.333 -112.833 86.833 -146.5 154.5s-50.5 149.167 -50.5 244.5v169c0 94 16.833 174.5 50.5 241.5s82.5 118 146.5 153s141 52.5 231 52.5s167 -17.5 231 -52.5s112.833 -86 146.5 -153s50.5 -147.5 50.5 -241.5v-172
c0 -94.667 -16.833 -175.5 -50.5 -242.5s-82.5 -118.167 -146.5 -153.5s-141 -53 -231 -53s-167 17.667 -231 53zM723.5 246c39 44.667 58.5 107.334 58.5 188.001v172c0 80.667 -19.5 143 -58.5 187s-94.167 66 -165.5 66s-126.5 -22 -165.5 -66s-58.5 -106.333 -58.5 -187
v-172c0 -80.667 19.5 -143.334 58.5 -188.001s94.167 -67 165.5 -67s126.5 22.333 165.5 67zM873 1343l-114 -105l-200 190l-200 -190l-114 105l314 304z" />
    <glyph glyph-name="otilde" unicode="&#xf5;" horiz-adv-x="1116" 
d="M327 38c-64 35.333 -112.833 86.833 -146.5 154.5s-50.5 149.167 -50.5 244.5v169c0 94 16.833 174.5 50.5 241.5s82.5 118 146.5 153s141 52.5 231 52.5s167 -17.5 231 -52.5s112.833 -86 146.5 -153s50.5 -147.5 50.5 -241.5v-172
c0 -94.667 -16.833 -175.5 -50.5 -242.5s-82.5 -118.167 -146.5 -153.5s-141 -53 -231 -53s-167 17.667 -231 53zM723.5 246c39 44.667 58.5 107.334 58.5 188.001v172c0 80.667 -19.5 143 -58.5 187s-94.167 66 -165.5 66s-126.5 -22 -165.5 -66s-58.5 -106.333 -58.5 -187
v-172c0 -80.667 19.5 -143.334 58.5 -188.001s94.167 -67 165.5 -67s126.5 22.333 165.5 67zM639.5 1259.5c-21 8.33301 -42.501 19.8291 -64.501 34.4961l-8 6c-3.33301 2.66699 -7 5.33398 -11 8.00098s-7.66699 5.33398 -11 8.00098
c-26 18.667 -46.667 32.334 -62 41.001s-29.666 13 -42.999 13c-23.333 0 -40.833 -5.66699 -52.5 -17s-17.5 -28.666 -17.5 -51.999v-51h-158v45c0 82.667 17 144.667 51 186s85 62 153 62c25.333 0 49.5 -5 72.5 -15s46.833 -24 71.5 -42l8 -6l11 -8
c23.333 -17.333 42.333 -30.333 57 -39s28.667 -13 42 -13c23.333 0 40.833 6.33301 52.5 19s17.5 32 17.5 58v40h158v-34c0 -85.333 -16.833 -149.333 -50.5 -192s-84.5 -64 -152.5 -64c-21.333 0 -42.5 4.16699 -63.5 12.5z" />
    <glyph glyph-name="odieresis" unicode="&#xf6;" horiz-adv-x="1116" 
d="M327 38c-64 35.333 -112.833 86.833 -146.5 154.5s-50.5 149.167 -50.5 244.5v169c0 94 16.833 174.5 50.5 241.5s82.5 118 146.5 153s141 52.5 231 52.5s167 -17.5 231 -52.5s112.833 -86 146.5 -153s50.5 -147.5 50.5 -241.5v-172
c0 -94.667 -16.833 -175.5 -50.5 -242.5s-82.5 -118.167 -146.5 -153.5s-141 -53 -231 -53s-167 17.667 -231 53zM723.5 246c39 44.667 58.5 107.334 58.5 188.001v172c0 80.667 -19.5 143 -58.5 187s-94.167 66 -165.5 66s-126.5 -22 -165.5 -66s-58.5 -106.333 -58.5 -187
v-172c0 -80.667 19.5 -143.334 58.5 -188.001s94.167 -67 165.5 -67s126.5 22.333 165.5 67zM667 1454h204v-204h-204v204zM247 1454h204v-204h-204v204z" />
    <glyph glyph-name="divide" unicode="&#xf7;" horiz-adv-x="988" 
d="M405 1068h204v-204h-204v204zM140 766h718v-194h-718v194zM405 474h204v-204h-204v204z" />
    <glyph glyph-name="oslash" unicode="&#xf8;" horiz-adv-x="1116" 
d="M787 1180h139l-576 -1322h-139zM327 38c-64 35.333 -112.833 86.833 -146.5 154.5s-50.5 149.167 -50.5 244.5v169c0 94 16.833 174.5 50.5 241.5s82.5 118 146.5 153s141 52.5 231 52.5s167 -17.5 231 -52.5s112.833 -86 146.5 -153s50.5 -147.5 50.5 -241.5v-172
c0 -94.667 -16.833 -175.5 -50.5 -242.5s-82.5 -118.167 -146.5 -153.5s-141 -53 -231 -53s-167 17.667 -231 53zM723.5 246c39 44.667 58.5 107.334 58.5 188.001v172c0 80.667 -19.5 143 -58.5 187s-94.167 66 -165.5 66s-126.5 -22 -165.5 -66s-58.5 -106.333 -58.5 -187
v-172c0 -80.667 19.5 -143.334 58.5 -188.001s94.167 -67 165.5 -67s126.5 22.333 165.5 67z" />
    <glyph glyph-name="ugrave" unicode="&#xf9;" horiz-adv-x="1139" 
d="M786 1038h203v-1038h-203v1038zM364 407c0 -72.667 18.499 -128.832 55.499 -168.499s89.167 -59.5 156.5 -59.5c66.667 0 118.334 17.667 155.001 53s55 85.666 55 150.999l14 -217c-21.333 -51.333 -56 -94.333 -104 -129s-107 -52 -177 -52
c-114.667 0 -203.167 36.833 -265.5 110.5s-93.5 177.5 -93.5 311.5v631h204v-631zM240.999 1574l147 122l286 -355l-128 -103z" />
    <glyph glyph-name="uacute" unicode="&#xfa;" horiz-adv-x="1139" 
d="M786 1038h203v-1038h-203v1038zM364 407c0 -72.667 18.499 -128.832 55.499 -168.499s89.167 -59.5 156.5 -59.5c66.667 0 118.334 17.667 155.001 53s55 85.666 55 150.999l14 -217c-21.333 -51.333 -56 -94.333 -104 -129s-107 -52 -177 -52
c-114.667 0 -203.167 36.833 -265.5 110.5s-93.5 177.5 -93.5 311.5v631h204v-631zM458.999 1341l286 355l147 -122l-305 -336z" />
    <glyph glyph-name="ucircumflex" unicode="&#xfb;" horiz-adv-x="1139" 
d="M786 1038h203v-1038h-203v1038zM364 407c0 -72.667 18.499 -128.832 55.499 -168.499s89.167 -59.5 156.5 -59.5c66.667 0 118.334 17.667 155.001 53s55 85.666 55 150.999l14 -217c-21.333 -51.333 -56 -94.333 -104 -129s-107 -52 -177 -52
c-114.667 0 -203.167 36.833 -265.5 110.5s-93.5 177.5 -93.5 311.5v631h204v-631zM883.999 1343l-114 -105l-200 190l-200 -190l-114 105l314 304z" />
    <glyph glyph-name="udieresis" unicode="&#xfc;" horiz-adv-x="1139" 
d="M786 1038h203v-1038h-203v1038zM364 407c0 -72.667 18.499 -128.832 55.499 -168.499s89.167 -59.5 156.5 -59.5c66.667 0 118.334 17.667 155.001 53s55 85.666 55 150.999l14 -217c-21.333 -51.333 -56 -94.333 -104 -129s-107 -52 -177 -52
c-114.667 0 -203.167 36.833 -265.5 110.5s-93.5 177.5 -93.5 311.5v631h204v-631zM677.999 1454h204v-204h-204v204zM257.999 1454h204v-204h-204v204z" />
    <glyph glyph-name="yacute" unicode="&#xfd;" horiz-adv-x="989" 
d="M969 1038l-442 -1281c-16 -47.333 -37 -84.833 -63 -112.5s-58 -47.5 -96 -59.5s-84.667 -18 -140 -18h-41v196h41c38 0 68.167 7.66699 90.5 23s41.833 41.666 58.5 78.999l384 1173h208zM50 1038h208l319 -902l-113 -221zM409 1341l286 355l147 -122l-305 -336z" />
    <glyph glyph-name="thorn" unicode="&#xfe;" horiz-adv-x="1114" 
d="M160 1454h204v-1876h-204v1876zM456 31.5c-48 31 -83.3311 74.832 -105.998 131.499l14 217c0 -44.667 8 -82.667 24 -114s39.167 -55.333 69.5 -72s67.166 -25 110.499 -25c67.333 0 119.5 20.5 156.5 61.5s55.5 98.833 55.5 173.5v225c0 76 -18.5 135 -55.5 177
s-89.167 63 -156.5 63c-43.333 0 -80.166 -8 -110.499 -24s-53.5 -39.5 -69.5 -70.5s-24 -68.167 -24 -111.5l-21 200c31.333 60.667 72.333 107.5 123 140.5s107 49.5 169 49.5c73.333 0 136.166 -16.5 188.499 -49.5s92.166 -81.167 119.499 -144.5
s41 -139.666 41 -228.999v-226c0 -88 -14 -163.333 -42 -226s-69 -110.5 -123 -143.5s-118.667 -49.5 -194 -49.5c-64.667 0 -121 15.5 -169 46.5z" />
    <glyph glyph-name="ydieresis" unicode="&#xff;" horiz-adv-x="989" 
d="M969 1038l-442 -1281c-16 -47.333 -37 -84.833 -63 -112.5s-58 -47.5 -96 -59.5s-84.667 -18 -140 -18h-41v196h41c38 0 68.167 7.66699 90.5 23s41.833 41.666 58.5 78.999l384 1173h208zM50 1038h208l319 -902l-113 -221zM628 1454h204v-204h-204v204zM208 1454h204
v-204h-204v204z" />
    <glyph glyph-name="Amacron" unicode="&#x100;" horiz-adv-x="1326" 
d="M576 1454h174l536 -1454h-220l-403 1173l-403 -1173h-220zM287 513h765v-194h-765v194zM1028 1773v-200h-730v200h730z" />
    <glyph glyph-name="amacron" unicode="&#x101;" horiz-adv-x="1090" 
d="M746 658c0 68 -18.165 120.835 -54.498 158.502s-87.833 56.5 -154.5 56.5c-41.333 0 -81.833 -6.33301 -121.5 -19s-74.834 -30.334 -105.501 -53.001l-149 102c39.333 47.333 91.166 84.166 155.499 110.499s135.833 39.5 214.5 39.5c86 0 159.667 -15.167 221 -45.5
s108 -74.333 140 -132s48 -127.167 48 -208.5v-667h-194v658zM205.002 64.502c-63.333 53 -95.001 133.501 -95.001 241.501c0 102.667 29 179.667 87 231s145.667 77 263 77h295l14 -164h-308c-53.333 0 -93.166 -11.833 -119.499 -35.5s-39.5 -59.834 -39.5 -108.501
c0 -52.667 17.5 -91.667 52.5 -117s88.167 -38 159.5 -38c78 0 136.167 8.33301 174.5 25s57.5 42.667 57.5 78l21 -146c-18 -28 -40.167 -51 -66.5 -69s-56.833 -31.5 -91.5 -40.5s-73.667 -13.5 -117 -13.5c-128 0 -223.667 26.5 -287 79.5zM905.001 1453v-203h-730v203
h730z" />
    <glyph glyph-name="Abreve" unicode="&#x102;" horiz-adv-x="1326" 
d="M576 1454h174l536 -1454h-220l-403 1173l-403 -1173h-220zM287 513h765v-194h-765v194zM1000 1863c0 -97.333 -28.998 -172.5 -86.998 -225.5s-140 -79.5 -246 -79.5h-8c-106 0 -188 26.5 -246 79.5s-87 128.167 -87 225.5l165 -2c0 -50 14.667 -88.833 44 -116.5
s70.666 -41.5 123.999 -41.5h8c53.333 0 94.666 13.833 123.999 41.5s44 66.5 44 116.5z" />
    <glyph glyph-name="abreve" unicode="&#x103;" horiz-adv-x="1090" 
d="M746 658c0 68 -18.165 120.835 -54.498 158.502s-87.833 56.5 -154.5 56.5c-41.333 0 -81.833 -6.33301 -121.5 -19s-74.834 -30.334 -105.501 -53.001l-149 102c39.333 47.333 91.166 84.166 155.499 110.499s135.833 39.5 214.5 39.5c86 0 159.667 -15.167 221 -45.5
s108 -74.333 140 -132s48 -127.167 48 -208.5v-667h-194v658zM205.002 64.502c-63.333 53 -95.001 133.501 -95.001 241.501c0 102.667 29 179.667 87 231s145.667 77 263 77h295l14 -164h-308c-53.333 0 -93.166 -11.833 -119.499 -35.5s-39.5 -59.834 -39.5 -108.501
c0 -52.667 17.5 -91.667 52.5 -117s88.167 -38 159.5 -38c78 0 136.167 8.33301 174.5 25s57.5 42.667 57.5 78l21 -146c-18 -28 -40.167 -51 -66.5 -69s-56.833 -31.5 -91.5 -40.5s-73.667 -13.5 -117 -13.5c-128 0 -223.667 26.5 -287 79.5zM307.501 1324.5
c-49.667 59.667 -74.5 149.167 -74.5 268.5v0h164v0c0 -66.667 11.167 -116.5 33.5 -149.5s55.833 -49.5 100.5 -49.5h18c44.667 0 78.167 16.5 100.5 49.5s33.5 82.833 33.5 149.5v0h164v0c0 -119.333 -24.833 -208.833 -74.5 -268.5s-124.167 -89.5 -223.5 -89.5h-18
c-99.333 0 -173.833 29.833 -223.5 89.5z" />
    <glyph glyph-name="Aogonek" unicode="&#x104;" horiz-adv-x="1326" 
d="M576 1454h174l536 -1454h-220l-403 1173l-403 -1173h-220zM287 513h765v-194h-765v194zM964 -356c-50 42.667 -74.999 106.999 -74.999 192.999c0 90.667 24.667 158.334 74 203.001s123.666 67 222.999 67h16v-107h-16c-77.333 -0 -116 -44.667 -116 -134
c0 -80 40 -120 120 -120h92v-166h-92c-100.667 0 -176 21.333 -226 64z" />
    <glyph glyph-name="aogonek" unicode="&#x105;" horiz-adv-x="1090" 
d="M746 658c0 68 -18.165 120.835 -54.498 158.502s-87.833 56.5 -154.5 56.5c-41.333 0 -81.833 -6.33301 -121.5 -19s-74.834 -30.334 -105.501 -53.001l-149 102c39.333 47.333 91.166 84.166 155.499 110.499s135.833 39.5 214.5 39.5c86 0 159.667 -15.167 221 -45.5
s108 -74.333 140 -132s48 -127.167 48 -208.5v-667h-194v658zM205.002 64.502c-63.333 53 -95.001 133.501 -95.001 241.501c0 102.667 29 179.667 87 231s145.667 77 263 77h295l14 -164h-308c-53.333 0 -93.166 -11.833 -119.499 -35.5s-39.5 -59.834 -39.5 -108.501
c0 -52.667 17.5 -91.667 52.5 -117s88.167 -38 159.5 -38c78 0 136.167 8.33301 174.5 25s57.5 42.667 57.5 78l21 -146c-18 -28 -40.167 -51 -66.5 -69s-56.833 -31.5 -91.5 -40.5s-73.667 -13.5 -117 -13.5c-128 0 -223.667 26.5 -287 79.5zM695.001 -373.497
c-41.333 31 -62 81.165 -62 150.498c0 56 22.333 106.833 67 152.5s108 84.834 190 117.501l50 -47c-47.333 -29.333 -81.833 -58.666 -103.5 -87.999s-32.5 -61.333 -32.5 -96c0 -24.667 7.16699 -42.5 21.5 -53.5s37.166 -16.5 68.499 -16.5h46v-166h-46
c-91.333 0 -157.666 15.5 -198.999 46.5z" />
    <glyph glyph-name="Cacute" unicode="&#x106;" horiz-adv-x="1267" 
d="M390.5 52c-76.333 44.667 -135.501 108.002 -177.501 190.002s-63 177 -63 285v399c0 108 21 203 63 285s101.167 145.5 177.5 190.5s164.833 67.5 265.5 67.5c83.333 0 160 -17.833 230 -53.5s128.5 -86.167 175.5 -151.5s78.833 -141 95.5 -227v0h-209v0
c-12.667 45.333 -33.834 85.833 -63.501 121.5s-64.5 63.167 -104.5 82.5s-81.333 29 -124 29c-59.333 0 -111.333 -14.333 -156 -43s-79.334 -68.834 -104.001 -120.501s-37 -111.834 -37 -180.501v-399c0 -68 12.333 -128 37 -180s59.334 -92.167 104.001 -120.5
s96.667 -42.5 156 -42.5c43.333 0 84.833 9 124.5 27s74.334 44.667 104.001 80s50.834 77.333 63.501 126v0h209v0c-16.667 -86 -48.667 -161.667 -96 -227s-106 -115.833 -176 -151.5s-146.333 -53.5 -229 -53.5c-100.667 0 -189.167 22.333 -265.5 67zM563.999 1672
l276 245l132 -137l-295 -226z" />
    <glyph glyph-name="cacute" unicode="&#x107;" horiz-adv-x="1020" 
d="M336.5 38c-67 35.333 -118.167 86.6689 -153.5 154.002s-53 148.666 -53 243.999v171c0 94 17.667 174.333 53 241s86.5 117.5 153.5 152.5s147.833 52.5 242.5 52.5c54 0 104.833 -6.5 152.5 -19.5s90.5 -31.833 128.5 -56.5s69.667 -54.667 95 -90v0l-147 -132v0
c-29.333 33.333 -63.666 59 -102.999 77s-80.333 27 -123 27c-78.667 0 -139.667 -22 -183 -66s-65 -106 -65 -186v-171c0 -82 21.5 -145.333 64.5 -190s104.167 -67 183.5 -67c43.333 0 84.666 9.66699 123.999 29s73.333 46.666 102 81.999v0l147 -142v0
c-26 -34.667 -58 -64.167 -96 -88.5s-80.833 -42.833 -128.5 -55.5s-98.167 -19 -151.5 -19c-94.667 0 -175.5 17.667 -242.5 53zM438 1341l286 355l147 -122l-305 -336z" />
    <glyph glyph-name="Cdotaccent" unicode="&#x10a;" horiz-adv-x="1267" 
d="M390.5 52c-76.333 44.667 -135.501 108.002 -177.501 190.002s-63 177 -63 285v399c0 108 21 203 63 285s101.167 145.5 177.5 190.5s164.833 67.5 265.5 67.5c83.333 0 160 -17.833 230 -53.5s128.5 -86.167 175.5 -151.5s78.833 -141 95.5 -227v0h-209v0
c-12.667 45.333 -33.834 85.833 -63.501 121.5s-64.5 63.167 -104.5 82.5s-81.333 29 -124 29c-59.333 0 -111.333 -14.333 -156 -43s-79.334 -68.834 -104.001 -120.501s-37 -111.834 -37 -180.501v-399c0 -68 12.333 -128 37 -180s59.334 -92.167 104.001 -120.5
s96.667 -42.5 156 -42.5c43.333 0 84.833 9 124.5 27s74.334 44.667 104.001 80s50.834 77.333 63.501 126v0h209v0c-16.667 -86 -48.667 -161.667 -96 -227s-106 -115.833 -176 -151.5s-146.333 -53.5 -229 -53.5c-100.667 0 -189.167 22.333 -265.5 67zM555.999 1777h204
v-204h-204v204z" />
    <glyph glyph-name="cdotaccent" unicode="&#x10b;" horiz-adv-x="1020" 
d="M336.5 38c-67 35.333 -118.167 86.6689 -153.5 154.002s-53 148.666 -53 243.999v171c0 94 17.667 174.333 53 241s86.5 117.5 153.5 152.5s147.833 52.5 242.5 52.5c54 0 104.833 -6.5 152.5 -19.5s90.5 -31.833 128.5 -56.5s69.667 -54.667 95 -90v0l-147 -132v0
c-29.333 33.333 -63.666 59 -102.999 77s-80.333 27 -123 27c-78.667 0 -139.667 -22 -183 -66s-65 -106 -65 -186v-171c0 -82 21.5 -145.333 64.5 -190s104.167 -67 183.5 -67c43.333 0 84.666 9.66699 123.999 29s73.333 46.666 102 81.999v0l147 -142v0
c-26 -34.667 -58 -64.167 -96 -88.5s-80.833 -42.833 -128.5 -55.5s-98.167 -19 -151.5 -19c-94.667 0 -175.5 17.667 -242.5 53zM447 1455h204v-204h-204v204z" />
    <glyph glyph-name="Ccaron" unicode="&#x10c;" horiz-adv-x="1267" 
d="M390.5 52c-76.333 44.667 -135.501 108.002 -177.501 190.002s-63 177 -63 285v399c0 108 21 203 63 285s101.167 145.5 177.5 190.5s164.833 67.5 265.5 67.5c83.333 0 160 -17.833 230 -53.5s128.5 -86.167 175.5 -151.5s78.833 -141 95.5 -227v0h-209v0
c-12.667 45.333 -33.834 85.833 -63.501 121.5s-64.5 63.167 -104.5 82.5s-81.333 29 -124 29c-59.333 0 -111.333 -14.333 -156 -43s-79.334 -68.834 -104.001 -120.501s-37 -111.834 -37 -180.501v-399c0 -68 12.333 -128 37 -180s59.334 -92.167 104.001 -120.5
s96.667 -42.5 156 -42.5c43.333 0 84.833 9 124.5 27s74.334 44.667 104.001 80s50.834 77.333 63.501 126v0h209v0c-16.667 -86 -48.667 -161.667 -96 -227s-106 -115.833 -176 -151.5s-146.333 -53.5 -229 -53.5c-100.667 0 -189.167 22.333 -265.5 67zM348.999 1801
l114 120l195 -150l195 150l114 -120l-309 -239z" />
    <glyph glyph-name="ccaron" unicode="&#x10d;" horiz-adv-x="1020" 
d="M336.5 38c-67 35.333 -118.167 86.6689 -153.5 154.002s-53 148.666 -53 243.999v171c0 94 17.667 174.333 53 241s86.5 117.5 153.5 152.5s147.833 52.5 242.5 52.5c54 0 104.833 -6.5 152.5 -19.5s90.5 -31.833 128.5 -56.5s69.667 -54.667 95 -90v0l-147 -132v0
c-29.333 33.333 -63.666 59 -102.999 77s-80.333 27 -123 27c-78.667 0 -139.667 -22 -183 -66s-65 -106 -65 -186v-171c0 -82 21.5 -145.333 64.5 -190s104.167 -67 183.5 -67c43.333 0 84.666 9.66699 123.999 29s73.333 46.666 102 81.999v0l147 -142v0
c-26 -34.667 -58 -64.167 -96 -88.5s-80.833 -42.833 -128.5 -55.5s-98.167 -19 -151.5 -19c-94.667 0 -175.5 17.667 -242.5 53zM235 1542l114 105l200 -190l200 190l114 -105l-314 -304z" />
    <glyph glyph-name="Dcaron" unicode="&#x10e;" horiz-adv-x="1344" 
d="M318 194h328.999c107.333 0 190.5 27.833 249.5 83.5s88.5 134.167 88.5 235.5v428c0 101.333 -29.5 179.833 -88.5 235.5s-142.167 83.5 -249.5 83.5h-329v194h323c116.667 0 216.334 -20.333 299.001 -61s145.667 -100 189 -178s65 -172 65 -282v-412
c0 -110 -21.667 -204 -65 -282s-106.5 -137.333 -189.5 -178s-182.833 -61 -299.5 -61h-322v194zM179.999 1454h204v-1454h-204v1454zM346.999 1801l114 120l195 -150l195 150l114 -120l-309 -239z" />
    <glyph glyph-name="dcaron" unicode="&#x10f;" horiz-adv-x="1314" 
d="M750 1454h204v-1454h-204v1454zM294.5 31.5c-53.667 33 -94.498 81.1689 -122.498 144.502s-42 139.333 -42 228v229c0 89.333 13.667 165.666 41 228.999s67.166 111.5 119.499 144.5s115.166 49.5 188.499 49.5c61.333 0 117.5 -16 168.5 -48s92.167 -77 123.5 -135
l-21 -212c0 44 -8 81.667 -24 113s-39.167 55.166 -69.5 71.499s-67.166 24.5 -110.499 24.5c-67.333 0 -119.5 -21 -156.5 -63s-55.5 -101 -55.5 -177v-226c0 -75.333 18.5 -133.5 55.5 -174.5s89.167 -61.5 156.5 -61.5c43.333 0 80.166 8.5 110.499 25.5
s53.5 41.5 69.5 73.5s24 70.333 24 115l14 -219c-20.667 -51.333 -54.5 -94.333 -101.5 -129s-104.833 -52 -173.5 -52c-76 0 -140.833 16.5 -194.5 49.5zM1112 1469h174v-204l-174 -162v366z" />
    <glyph glyph-name="Dcroat" unicode="&#x110;" horiz-adv-x="1391" 
d="M365 194h328.999c107.333 0 190.5 27.833 249.5 83.5s88.5 134.167 88.5 235.5v428c0 101.333 -29.5 179.833 -88.5 235.5s-142.167 83.5 -249.5 83.5h-329v194h323c116.667 0 216.334 -20.333 299.001 -61s145.667 -100 189 -178s65 -172 65 -282v-412
c0 -110 -21.667 -204 -65 -282s-106.5 -137.333 -189.5 -178s-182.833 -61 -299.5 -61h-322v194zM226.999 1454h204v-1454h-204v1454zM747.999 814v-174h-670v174h670z" />
    <glyph glyph-name="dcroat" unicode="&#x111;" horiz-adv-x="1104" 
d="M404 1346h670v-194h-670v194zM750 1454h204v-1454h-204v1454zM294.5 31.5c-53.667 33 -94.498 81.1689 -122.498 144.502s-42 139.333 -42 228v229c0 89.333 13.667 165.666 41 228.999s67.166 111.5 119.499 144.5s115.166 49.5 188.499 49.5
c61.333 0 117.5 -16 168.5 -48s92.167 -77 123.5 -135l-21 -212c0 44 -8 81.667 -24 113s-39.167 55.166 -69.5 71.499s-67.166 24.5 -110.499 24.5c-67.333 0 -119.5 -21 -156.5 -63s-55.5 -101 -55.5 -177v-226c0 -75.333 18.5 -133.5 55.5 -174.5
s89.167 -61.5 156.5 -61.5c43.333 0 80.166 8.5 110.499 25.5s53.5 41.5 69.5 73.5s24 70.333 24 115l14 -219c-20.667 -51.333 -54.5 -94.333 -101.5 -129s-104.833 -52 -173.5 -52c-76 0 -140.833 16.5 -194.5 49.5z" />
    <glyph glyph-name="Emacron" unicode="&#x112;" horiz-adv-x="1224" 
d="M180 1454h204v-1454h-204v1454zM279 194h835v-194h-835v194zM279 819h725v-194h-725v194zM279 1454h835v-194h-835v194zM1030 1773v-200h-730v200h730z" />
    <glyph glyph-name="emacron" unicode="&#x113;" horiz-adv-x="1098" 
d="M339 39c-68 36 -119.831 88.832 -155.498 158.499s-53.5 153.834 -53.5 252.501v117c0 102.667 17.167 190.334 51.5 263.001s84.166 128 149.499 166s144 57 236 57c86.667 0 160.667 -21.667 222 -65s108.166 -106 140.499 -188s48.5 -180.333 48.5 -295v-68h-700v164
h506v0c-6 84.667 -27.833 150.5 -65.5 197.5s-88.167 70.5 -151.5 70.5c-77.333 0 -137.166 -25.333 -179.499 -76s-63.5 -122.334 -63.5 -215.001v-132c0 -86 22.667 -152 68 -198s109.666 -69 192.999 -69c41.333 0 82.333 8.33301 123 25s77 40 109 70v0l134 -134v0
c-51.333 -49.333 -109 -87.5 -173 -114.5s-128.333 -40.5 -193 -40.5c-96 0 -178 18 -246 54zM920.002 1453v-203h-730v203h730z" />
    <glyph glyph-name="Edotaccent" unicode="&#x116;" horiz-adv-x="1224" 
d="M180 1454h204v-1454h-204v1454zM279 194h835v-194h-835v194zM279 819h725v-194h-725v194zM279 1454h835v-194h-835v194zM563 1777h204v-204h-204v204z" />
    <glyph glyph-name="edotaccent" unicode="&#x117;" horiz-adv-x="1098" 
d="M339 39c-68 36 -119.831 88.832 -155.498 158.499s-53.5 153.834 -53.5 252.501v117c0 102.667 17.167 190.334 51.5 263.001s84.166 128 149.499 166s144 57 236 57c86.667 0 160.667 -21.667 222 -65s108.166 -106 140.499 -188s48.5 -180.333 48.5 -295v-68h-700v164
h506v0c-6 84.667 -27.833 150.5 -65.5 197.5s-88.167 70.5 -151.5 70.5c-77.333 0 -137.166 -25.333 -179.499 -76s-63.5 -122.334 -63.5 -215.001v-132c0 -86 22.667 -152 68 -198s109.666 -69 192.999 -69c41.333 0 82.333 8.33301 123 25s77 40 109 70v0l134 -134v0
c-51.333 -49.333 -109 -87.5 -173 -114.5s-128.333 -40.5 -193 -40.5c-96 0 -178 18 -246 54zM453.002 1455h204v-204h-204v204z" />
    <glyph glyph-name="Eogonek" unicode="&#x118;" horiz-adv-x="1224" 
d="M180 1454h204v-1454h-204v1454zM279 194h835v-194h-835v194zM279 819h725v-194h-725v194zM279 1454h835v-194h-835v194zM792 -356c-50 42.667 -74.999 106.999 -74.999 192.999c0 90.667 24.667 158.334 74 203.001s123.666 67 222.999 67h16v-107h-16
c-77.333 -0 -116 -44.667 -116 -134c0 -80 40 -120 120 -120h92v-166h-92c-100.667 0 -176 21.333 -226 64z" />
    <glyph glyph-name="eogonek" unicode="&#x119;" horiz-adv-x="1098" 
d="M685 -351c-50 39.333 -75 98.666 -75 177.999c0 66 24 128.833 72 188.5s120.667 116.834 218 171.501l50 -47l-15 -13c-51.333 -45.333 -89.833 -89.5 -115.5 -132.5s-38.5 -85.833 -38.5 -128.5c0 -36.667 10.833 -64.167 32.5 -82.5s54.167 -27.5 97.5 -27.5h36v-166
h-36c-100.667 0 -176 19.667 -226 59zM339 39c-68 36 -119.831 88.832 -155.498 158.499s-53.5 153.834 -53.5 252.501v117c0 102.667 17.167 190.334 51.5 263.001s84.166 128 149.499 166s144 57 236 57c86.667 0 160.667 -21.667 222 -65s108.166 -106 140.499 -188
s48.5 -180.333 48.5 -295v-68h-700v164h506v0c-6 84.667 -27.833 150.5 -65.5 197.5s-88.167 70.5 -151.5 70.5c-77.333 0 -137.166 -25.333 -179.499 -76s-63.5 -122.334 -63.5 -215.001v-132c0 -86 22.667 -152 68 -198s109.666 -69 192.999 -69
c41.333 0 82.333 8.33301 123 25s77 40 109 70v0l134 -134v0c-51.333 -49.333 -109 -87.5 -173 -114.5s-128.333 -40.5 -193 -40.5c-96 0 -178 18 -246 54z" />
    <glyph glyph-name="Ecaron" unicode="&#x11a;" horiz-adv-x="1224" 
d="M180 1454h204v-1454h-204v1454zM279 194h835v-194h-835v194zM279 819h725v-194h-725v194zM279 1454h835v-194h-835v194zM356 1801l114 120l195 -150l195 150l114 -120l-309 -239z" />
    <glyph glyph-name="ecaron" unicode="&#x11b;" horiz-adv-x="1098" 
d="M339 39c-68 36 -119.831 88.832 -155.498 158.499s-53.5 153.834 -53.5 252.501v117c0 102.667 17.167 190.334 51.5 263.001s84.166 128 149.499 166s144 57 236 57c86.667 0 160.667 -21.667 222 -65s108.166 -106 140.499 -188s48.5 -180.333 48.5 -295v-68h-700v164
h506v0c-6 84.667 -27.833 150.5 -65.5 197.5s-88.167 70.5 -151.5 70.5c-77.333 0 -137.166 -25.333 -179.499 -76s-63.5 -122.334 -63.5 -215.001v-132c0 -86 22.667 -152 68 -198s109.666 -69 192.999 -69c41.333 0 82.333 8.33301 123 25s77 40 109 70v0l134 -134v0
c-51.333 -49.333 -109 -87.5 -173 -114.5s-128.333 -40.5 -193 -40.5c-96 0 -178 18 -246 54zM241.002 1542l114 105l200 -190l200 190l114 -105l-314 -304z" />
    <glyph glyph-name="Gbreve" unicode="&#x11e;" horiz-adv-x="1324" 
d="M1174 783l0.00585938 -253.997c0 -108 -21 -203.167 -63 -285.5s-101.5 -146 -178.5 -191s-166.167 -67.5 -267.5 -67.5c-102.667 0 -192.834 21.167 -270.501 63.5s-137.834 102.166 -180.501 179.499s-64 167 -64 269v429c0 108 21 203 63 285s101.5 145.5 178.5 190.5
s166.167 67.5 267.5 67.5c83.333 0 160.166 -17.833 230.499 -53.5s129.166 -86.167 176.499 -151.5s79.333 -141 96 -227v0h-221v0c-12 48.667 -32.333 90.5 -61 125.5s-62.334 61.667 -101.001 80s-78.667 27.5 -120 27.5c-60 0 -112.667 -14.333 -158 -43
s-80.333 -68.834 -105 -120.501s-37 -111.834 -37 -180.501v-429c0 -62.667 12.667 -117.5 38 -164.5s61.166 -83.5 107.499 -109.5s99.833 -39 160.5 -39c60 0 112.667 13.5 158 40.5s80.333 66.167 105 117.5s37 112.333 37 183v63h-295v195h504zM1002.01 1863
c0 -97.333 -28.998 -172.5 -86.998 -225.5s-140 -79.5 -246 -79.5h-8c-106 0 -188 26.5 -246 79.5s-87 128.167 -87 225.5l165 -2c0 -50 14.667 -88.833 44 -116.5s70.666 -41.5 123.999 -41.5h8c53.333 0 94.666 13.833 123.999 41.5s44 66.5 44 116.5z" />
    <glyph glyph-name="gbreve" unicode="&#x11f;" horiz-adv-x="1104" 
d="M298.5 -378.5c-61.667 29 -109.5 69.833 -143.5 122.5v0l138 125v0c26.667 -36.667 58.5 -65 95.5 -85s75.833 -30 116.5 -30c78 0 138.333 21.5 181 64.5s64 103.833 64 182.5v1037h204v-1007c0 -95.333 -17.5 -177 -52.5 -245s-85.833 -119.667 -152.5 -155
s-147 -53 -241 -53c-78 0 -147.833 14.5 -209.5 43.5zM294.5 31.5c-53.667 33 -94.498 81.1689 -122.498 144.502s-42 139.333 -42 228v229c0 89.333 13.667 165.666 41 228.999s67.166 111.5 119.499 144.5s115.166 49.5 188.499 49.5c61.333 0 117.5 -16 168.5 -48
s92.167 -77 123.5 -135l-21 -212c0 44 -8 81.667 -24 113s-39.167 55.166 -69.5 71.499s-67.166 24.5 -110.499 24.5c-67.333 0 -119.5 -21 -156.5 -63s-55.5 -101 -55.5 -177v-226c0 -75.333 18.5 -133.5 55.5 -174.5s89.167 -61.5 156.5 -61.5
c43.333 0 80.166 8.5 110.499 25.5s53.5 41.5 69.5 73.5s24 70.333 24 115l14 -219c-20.667 -51.333 -54.5 -94.333 -101.5 -129s-104.833 -52 -173.5 -52c-76 0 -140.833 16.5 -194.5 49.5zM320.502 1324.5c-49.667 59.667 -74.5 149.167 -74.5 268.5v0h164v0
c0 -66.667 11.167 -116.5 33.5 -149.5s55.833 -49.5 100.5 -49.5h18c44.667 0 78.167 16.5 100.5 49.5s33.5 82.833 33.5 149.5v0h164v0c0 -119.333 -24.833 -208.833 -74.5 -268.5s-124.167 -89.5 -223.5 -89.5h-18c-99.333 0 -173.833 29.833 -223.5 89.5z" />
    <glyph glyph-name="Gdotaccent" unicode="&#x120;" horiz-adv-x="1324" 
d="M1174 783l0.00585938 -253.997c0 -108 -21 -203.167 -63 -285.5s-101.5 -146 -178.5 -191s-166.167 -67.5 -267.5 -67.5c-102.667 0 -192.834 21.167 -270.501 63.5s-137.834 102.166 -180.501 179.499s-64 167 -64 269v429c0 108 21 203 63 285s101.5 145.5 178.5 190.5
s166.167 67.5 267.5 67.5c83.333 0 160.166 -17.833 230.499 -53.5s129.166 -86.167 176.499 -151.5s79.333 -141 96 -227v0h-221v0c-12 48.667 -32.333 90.5 -61 125.5s-62.334 61.667 -101.001 80s-78.667 27.5 -120 27.5c-60 0 -112.667 -14.333 -158 -43
s-80.333 -68.834 -105 -120.501s-37 -111.834 -37 -180.501v-429c0 -62.667 12.667 -117.5 38 -164.5s61.166 -83.5 107.499 -109.5s99.833 -39 160.5 -39c60 0 112.667 13.5 158 40.5s80.333 66.167 105 117.5s37 112.333 37 183v63h-295v195h504zM563.006 1777h204v-204
h-204v204z" />
    <glyph glyph-name="gdotaccent" unicode="&#x121;" horiz-adv-x="1104" 
d="M298.5 -378.5c-61.667 29 -109.5 69.833 -143.5 122.5v0l138 125v0c26.667 -36.667 58.5 -65 95.5 -85s75.833 -30 116.5 -30c78 0 138.333 21.5 181 64.5s64 103.833 64 182.5v1037h204v-1007c0 -95.333 -17.5 -177 -52.5 -245s-85.833 -119.667 -152.5 -155
s-147 -53 -241 -53c-78 0 -147.833 14.5 -209.5 43.5zM294.5 31.5c-53.667 33 -94.498 81.1689 -122.498 144.502s-42 139.333 -42 228v229c0 89.333 13.667 165.666 41 228.999s67.166 111.5 119.499 144.5s115.166 49.5 188.499 49.5c61.333 0 117.5 -16 168.5 -48
s92.167 -77 123.5 -135l-21 -212c0 44 -8 81.667 -24 113s-39.167 55.166 -69.5 71.499s-67.166 24.5 -110.499 24.5c-67.333 0 -119.5 -21 -156.5 -63s-55.5 -101 -55.5 -177v-226c0 -75.333 18.5 -133.5 55.5 -174.5s89.167 -61.5 156.5 -61.5
c43.333 0 80.166 8.5 110.499 25.5s53.5 41.5 69.5 73.5s24 70.333 24 115l14 -219c-20.667 -51.333 -54.5 -94.333 -101.5 -129s-104.833 -52 -173.5 -52c-76 0 -140.833 16.5 -194.5 49.5zM451.002 1455h204v-204h-204v204z" />
    <glyph glyph-name="Gcommaaccent" unicode="&#x122;" horiz-adv-x="1324" 
d="M1174 783l0.00585938 -253.997c0 -108 -21 -203.167 -63 -285.5s-101.5 -146 -178.5 -191s-166.167 -67.5 -267.5 -67.5c-102.667 0 -192.834 21.167 -270.501 63.5s-137.834 102.166 -180.501 179.499s-64 167 -64 269v429c0 108 21 203 63 285s101.5 145.5 178.5 190.5
s166.167 67.5 267.5 67.5c83.333 0 160.166 -17.833 230.499 -53.5s129.166 -86.167 176.499 -151.5s79.333 -141 96 -227v0h-221v0c-12 48.667 -32.333 90.5 -61 125.5s-62.334 61.667 -101.001 80s-78.667 27.5 -120 27.5c-60 0 -112.667 -14.333 -158 -43
s-80.333 -68.834 -105 -120.501s-37 -111.834 -37 -180.501v-429c0 -62.667 12.667 -117.5 38 -164.5s61.166 -83.5 107.499 -109.5s99.833 -39 160.5 -39c60 0 112.667 13.5 158 40.5s80.333 66.167 105 117.5s37 112.333 37 183v63h-295v195h504zM563.006 -147.997h204
v-154l-204 -202v356z" />
    <glyph glyph-name="gcommaaccent" unicode="&#x123;" horiz-adv-x="1104" 
d="M431 1379l204 202v-330h-204v128zM298.5 -378.5c-61.667 29 -109.5 69.833 -143.5 122.5v0l138 125v0c26.667 -36.667 58.5 -65 95.5 -85s75.833 -30 116.5 -30c78 0 138.333 21.5 181 64.5s64 103.833 64 182.5v1037h204v-1007c0 -95.333 -17.5 -177 -52.5 -245
s-85.833 -119.667 -152.5 -155s-147 -53 -241 -53c-78 0 -147.833 14.5 -209.5 43.5zM294.5 31.5c-53.667 33 -94.498 81.1689 -122.498 144.502s-42 139.333 -42 228v229c0 89.333 13.667 165.666 41 228.999s67.166 111.5 119.499 144.5s115.166 49.5 188.499 49.5
c61.333 0 117.5 -16 168.5 -48s92.167 -77 123.5 -135l-21 -212c0 44 -8 81.667 -24 113s-39.167 55.166 -69.5 71.499s-67.166 24.5 -110.499 24.5c-67.333 0 -119.5 -21 -156.5 -63s-55.5 -101 -55.5 -177v-226c0 -75.333 18.5 -133.5 55.5 -174.5
s89.167 -61.5 156.5 -61.5c43.333 0 80.166 8.5 110.499 25.5s53.5 41.5 69.5 73.5s24 70.333 24 115l14 -219c-20.667 -51.333 -54.5 -94.333 -101.5 -129s-104.833 -52 -173.5 -52c-76 0 -140.833 16.5 -194.5 49.5z" />
    <glyph glyph-name="Hbar" unicode="&#x126;" horiz-adv-x="1550" 
d="M110 1213h1330v-194h-1330v194zM1086 1454h204v-1454h-204v1454zM260 1454h204v-1454h-204v1454zM387 813h807v-194h-807v194z" />
    <glyph glyph-name="hbar" unicode="&#x127;" horiz-adv-x="1167" 
d="M720 1366v-194h-670v194h670zM183 1454h204v-1454h-204v1454zM813 629c0 73.333 -19.002 130.001 -57.002 170.001s-91.333 60 -160 60c-66.667 0 -118.167 -17.333 -154.5 -52s-54.5 -83.667 -54.5 -147l-21 200c32 61.333 73.833 108.833 125.5 142.5
s108.834 50.5 171.501 50.5c112.667 0 199.834 -36.833 261.501 -110.5s92.5 -177.834 92.5 -312.501v-630h-204v629z" />
    <glyph glyph-name="Imacron" unicode="&#x12a;" horiz-adv-x="564" 
d="M384 0h-204v1454h204v-1454zM647 1773v-200h-730v200h730z" />
    <glyph glyph-name="imacron" unicode="&#x12b;" horiz-adv-x="514" 
d="M160 1038h204v-1038h-204v1038zM627 1453v-203h-730v203h730z" />
    <glyph glyph-name="Iogonek" unicode="&#x12e;" horiz-adv-x="564" 
d="M135 -356c-50 42.667 -74.999 106.999 -74.999 192.999c0 90.667 24.667 158.334 74 203.001s123.666 67 222.999 67v-107c-77.333 -0 -116 -44.667 -116 -134c0 -80 40 -120 120 -120h92v-166h-92c-100.667 0 -176 21.333 -226 64zM384.001 -0.000976562h-204v1454h204
v-1454z" />
    <glyph glyph-name="iogonek" unicode="&#x12f;" horiz-adv-x="514" 
d="M160 1038h204v-1038h-204v1038zM160 1455h204v-204h-204v204zM119 -373.5c-41.333 31 -62 81.165 -62 150.498c0 56 22.333 106.833 67 152.5s108 84.834 190 117.501l50 -47c-47.333 -29.333 -81.833 -58.666 -103.5 -87.999s-32.5 -61.333 -32.5 -96
c0 -24.667 7.16699 -42.5 21.5 -53.5s37.166 -16.5 68.499 -16.5h46v-166h-46c-91.333 0 -157.666 15.5 -198.999 46.5z" />
    <glyph glyph-name="Idotaccent" unicode="&#x130;" horiz-adv-x="564" 
d="M384 0h-204v1454h204v-1454zM180 1777h204v-204h-204v204z" />
    <glyph glyph-name="dotlessi" unicode="&#x131;" horiz-adv-x="514" 
d="M160 1038h204v-1038h-204v1038z" />
    <glyph glyph-name="Kcommaaccent" unicode="&#x136;" horiz-adv-x="1314" 
d="M340 638l642 816h251l-923 -1122zM180 1454h204v-1454h-204v1454zM582 776l161 149l551 -925h-250zM580 -148h204v-154l-204 -202v356z" />
    <glyph glyph-name="kcommaaccent" unicode="&#x137;" horiz-adv-x="1083" 
d="M248 394l534 644h240l-787 -886zM160 1454h204v-1454h-204v1454zM489 599l131 136l453 -735h-222zM440 -148h204v-154l-204 -202v356z" />
    <glyph glyph-name="Lacute" unicode="&#x139;" horiz-adv-x="1174" 
d="M180 1454h204v-1454h-204v1454zM282 194h832v-194h-832v194zM188 1672l276 245l132 -137l-295 -226z" />
    <glyph glyph-name="lacute" unicode="&#x13a;" horiz-adv-x="593" 
d="M364 268c0 -25.333 5.49902 -44.833 16.499 -58.5s26.5 -20.5 46.5 -20.5h96v-194h-120c-77.333 0 -137.166 24 -179.499 72s-63.5 115.667 -63.5 203v1184h204v-1186zM167.999 1672l276 245l132 -137l-295 -226z" />
    <glyph glyph-name="Lcommaaccent" unicode="&#x13b;" horiz-adv-x="1174" 
d="M180 1454h204v-1454h-204v1454zM282 194h832v-194h-832v194zM502 -148h204v-154l-204 -202v356z" />
    <glyph glyph-name="lcommaaccent" unicode="&#x13c;" horiz-adv-x="593" 
d="M364 268c0 -25.333 5.49902 -44.833 16.499 -58.5s26.5 -20.5 46.5 -20.5h96v-194h-120c-77.333 0 -137.166 24 -179.499 72s-63.5 115.667 -63.5 203v1184h204v-1186zM191.999 -148h204v-154l-204 -202v356z" />
    <glyph glyph-name="Lcaron" unicode="&#x13d;" horiz-adv-x="1174" 
d="M180 1454h204v-1454h-204v1454zM282 194h832v-194h-832v194zM905 1453h174v-204l-174 -162v366z" />
    <glyph glyph-name="lcaron" unicode="&#x13e;" horiz-adv-x="753" 
d="M364 268c0 -25.333 5.49902 -44.833 16.499 -58.5s26.5 -20.5 46.5 -20.5h96v-194h-120c-77.333 0 -137.166 24 -179.499 72s-63.5 115.667 -63.5 203v1184h204v-1186zM521.999 1468h174v-204l-174 -162v366z" />
    <glyph glyph-name="Lslash" unicode="&#x141;" horiz-adv-x="1264" 
d="M120 716l744 310v-195l-744 -310v195zM270 1454h204v-1454h-204v1454zM372 194h832v-194h-832v194z" />
    <glyph glyph-name="lslash" unicode="&#x142;" horiz-adv-x="593" 
d="M30 716l493 245v-195l-493 -245v195zM364 268c0 -25.333 5.49902 -44.833 16.499 -58.5s26.5 -20.5 46.5 -20.5h96v-194h-120c-77.333 0 -137.166 24 -179.499 72s-63.5 115.667 -63.5 203v1184h204v-1186z" />
    <glyph glyph-name="Nacute" unicode="&#x143;" horiz-adv-x="1434" 
d="M180 1454h185l711 -1124l-24 -26v1150h202v-1453h-187l-709 1107l24 26v-1133h-202v1453zM638 1672l276 245l132 -137l-295 -226z" />
    <glyph glyph-name="nacute" unicode="&#x144;" horiz-adv-x="1144" 
d="M160 1038h204v-1038h-204v1038zM790 629c0 73.333 -19.002 130.001 -57.002 170.001s-91.333 60 -160 60c-66.667 0 -118.167 -17.667 -154.5 -53s-54.5 -85 -54.5 -149l-21 200c32 62.667 73.833 111 125.5 145s108.834 51 171.501 51
c112.667 0 199.834 -36.833 261.501 -110.5s92.5 -177.834 92.5 -312.501v-630h-204v629zM460.998 1341l286 355l147 -122l-305 -336z" />
    <glyph glyph-name="Ncommaaccent" unicode="&#x145;" horiz-adv-x="1434" 
d="M180 1454h185l711 -1124l-24 -26v1150h202v-1453h-187l-709 1107l24 26v-1133h-202v1453zM630 -148h204v-154l-204 -202v356z" />
    <glyph glyph-name="ncommaaccent" unicode="&#x146;" horiz-adv-x="1144" 
d="M160 1038h204v-1038h-204v1038zM790 629c0 73.333 -19.002 130.001 -57.002 170.001s-91.333 60 -160 60c-66.667 0 -118.167 -17.667 -154.5 -53s-54.5 -85 -54.5 -149l-21 200c32 62.667 73.833 111 125.5 145s108.834 51 171.501 51
c112.667 0 199.834 -36.833 261.501 -110.5s92.5 -177.834 92.5 -312.501v-630h-204v629zM469.998 -147.999h204v-154l-204 -202v356z" />
    <glyph glyph-name="Ncaron" unicode="&#x147;" horiz-adv-x="1434" 
d="M180 1454h185l711 -1124l-24 -26v1150h202v-1453h-187l-709 1107l24 26v-1133h-202v1453zM423 1801l114 120l195 -150l195 150l114 -120l-309 -239z" />
    <glyph glyph-name="ncaron" unicode="&#x148;" horiz-adv-x="1144" 
d="M160 1038h204v-1038h-204v1038zM790 629c0 73.333 -19.002 130.001 -57.002 170.001s-91.333 60 -160 60c-66.667 0 -118.167 -17.667 -154.5 -53s-54.5 -85 -54.5 -149l-21 200c32 62.667 73.833 111 125.5 145s108.834 51 171.501 51
c112.667 0 199.834 -36.833 261.501 -110.5s92.5 -177.834 92.5 -312.501v-630h-204v629zM257.998 1542l114 105l200 -190l200 190l114 -105l-314 -304z" />
    <glyph glyph-name="Eng" unicode="&#x14a;" horiz-adv-x="1434" 
d="M180 1454h185l711 -1124l-24 -26v1150h202v-1283l-187 -170l-709 1107l24 26v-1133h-202v1453zM877 -193h113.999c18.667 0 33.167 6.83301 43.5 20.5s15.5 33.167 15.5 58.5v377h204v-375c0 -87.333 -21.167 -155 -63.5 -203s-102.166 -72 -179.499 -72h-134v194z" />
    <glyph glyph-name="eng" unicode="&#x14b;" horiz-adv-x="1144" 
d="M617 -228h113.999c18.667 0 33.167 6.83301 43.5 20.5s15.5 33.167 15.5 58.5v287h204v-285c0 -87.333 -21.167 -155 -63.5 -203s-102.166 -72 -179.499 -72h-134v194zM159.999 1038h204v-1038h-204v1038zM789.999 629c0 73.333 -19.002 130.001 -57.002 170.001
s-91.333 60 -160 60c-66.667 0 -118.167 -17.667 -154.5 -53s-54.5 -85 -54.5 -149l-21 200c32 62.667 73.833 111 125.5 145s108.834 51 171.501 51c112.667 0 199.834 -36.833 261.501 -110.5s92.5 -177.834 92.5 -312.501v-630h-204v629z" />
    <glyph glyph-name="Omacron" unicode="&#x14c;" horiz-adv-x="1322" 
d="M393 51.5c-77.333 44.333 -137.166 107 -179.499 188s-63.5 174.833 -63.5 281.5v412c0 106.667 21.167 200.5 63.5 281.5s102.166 143.667 179.499 188s166.666 66.5 267.999 66.5s190.666 -22.167 267.999 -66.5s137.166 -107 179.499 -188s63.5 -174.833 63.5 -281.5
v-412c0 -106.667 -21.167 -200.5 -63.5 -281.5s-102.166 -143.667 -179.499 -188s-166.666 -66.5 -267.999 -66.5s-190.666 22.167 -267.999 66.5zM819.5 226.5c45.667 27 81 65.333 106 115s37.5 107.167 37.5 172.5v426c0 65.333 -12.5 122.833 -37.5 172.5
s-60.333 88 -106 115s-98.5 40.5 -158.5 40.5s-112.833 -13.5 -158.5 -40.5s-81 -65.333 -106 -115s-37.5 -107.167 -37.5 -172.5v-426c0 -65.333 12.5 -122.833 37.5 -172.5s60.333 -88 106 -115s98.5 -40.5 158.5 -40.5s112.833 13.5 158.5 40.5zM1026 1773v-200h-730v200
h730z" />
    <glyph glyph-name="omacron" unicode="&#x14d;" horiz-adv-x="1116" 
d="M327 38c-64 35.333 -112.833 86.833 -146.5 154.5s-50.5 149.167 -50.5 244.5v169c0 94 16.833 174.5 50.5 241.5s82.5 118 146.5 153s141 52.5 231 52.5s167 -17.5 231 -52.5s112.833 -86 146.5 -153s50.5 -147.5 50.5 -241.5v-172
c0 -94.667 -16.833 -175.5 -50.5 -242.5s-82.5 -118.167 -146.5 -153.5s-141 -53 -231 -53s-167 17.667 -231 53zM723.5 246c39 44.667 58.5 107.334 58.5 188.001v172c0 80.667 -19.5 143 -58.5 187s-94.167 66 -165.5 66s-126.5 -22 -165.5 -66s-58.5 -106.333 -58.5 -187
v-172c0 -80.667 19.5 -143.334 58.5 -188.001s94.167 -67 165.5 -67s126.5 22.333 165.5 67zM924 1453v-203h-730v203h730z" />
    <glyph glyph-name="Ohungarumlaut" unicode="&#x150;" horiz-adv-x="1322" 
d="M393 51.5c-77.333 44.333 -137.166 107 -179.499 188s-63.5 174.833 -63.5 281.5v412c0 106.667 21.167 200.5 63.5 281.5s102.166 143.667 179.499 188s166.666 66.5 267.999 66.5s190.666 -22.167 267.999 -66.5s137.166 -107 179.499 -188s63.5 -174.833 63.5 -281.5
v-412c0 -106.667 -21.167 -200.5 -63.5 -281.5s-102.166 -143.667 -179.499 -188s-166.666 -66.5 -267.999 -66.5s-190.666 22.167 -267.999 66.5zM819.5 226.5c45.667 27 81 65.333 106 115s37.5 107.167 37.5 172.5v426c0 65.333 -12.5 122.833 -37.5 172.5
s-60.333 88 -106 115s-98.5 40.5 -158.5 40.5s-112.833 -13.5 -158.5 -40.5s-81 -65.333 -106 -115s-37.5 -107.167 -37.5 -172.5v-426c0 -65.333 12.5 -122.833 37.5 -172.5s60.333 -88 106 -115s98.5 -40.5 158.5 -40.5s112.833 13.5 158.5 40.5zM737 1662l226 255
l142 -137l-245 -236zM337 1662l226 255l142 -137l-245 -236z" />
    <glyph glyph-name="ohungarumlaut" unicode="&#x151;" horiz-adv-x="1116" 
d="M327 38c-64 35.333 -112.833 86.833 -146.5 154.5s-50.5 149.167 -50.5 244.5v169c0 94 16.833 174.5 50.5 241.5s82.5 118 146.5 153s141 52.5 231 52.5s167 -17.5 231 -52.5s112.833 -86 146.5 -153s50.5 -147.5 50.5 -241.5v-172
c0 -94.667 -16.833 -175.5 -50.5 -242.5s-82.5 -118.167 -146.5 -153.5s-141 -53 -231 -53s-167 17.667 -231 53zM723.5 246c39 44.667 58.5 107.334 58.5 188.001v172c0 80.667 -19.5 143 -58.5 187s-94.167 66 -165.5 66s-126.5 -22 -165.5 -66s-58.5 -106.333 -58.5 -187
v-172c0 -80.667 19.5 -143.334 58.5 -188.001s94.167 -67 165.5 -67s126.5 22.333 165.5 67zM635 1321l186 355l172 -107l-205 -336zM235 1321l186 355l172 -107l-205 -336z" />
    <glyph glyph-name="OE" unicode="&#x152;" horiz-adv-x="2053" 
d="M407 51.5c-82 44.333 -145.333 107 -190 188s-67 174.833 -67 281.5v412c0 106.667 22.333 200.5 67 281.5s108 143.667 190 188s176.667 66.5 284 66.5c96 0 176.333 -22 241 -66s113.167 -106 145.5 -186s48.5 -174.667 48.5 -284v-412
c0 -109.333 -16.167 -204 -48.5 -284s-80.833 -142 -145.5 -186s-145 -66 -241 -66c-107.333 0 -202 22.167 -284 66.5zM857.5 226.5c47.667 27 84.667 65.333 111 115s39.5 107.167 39.5 172.5v426c0 65.333 -13.167 122.833 -39.5 172.5s-63.333 88 -111 115
s-103.167 40.5 -166.5 40.5c-67.333 0 -126.333 -13.5 -177 -40.5s-90 -65.333 -118 -115s-42 -107.167 -42 -172.5v-426c0 -65.333 14 -122.833 42 -172.5s67.333 -88 118 -115s109.667 -40.5 177 -40.5c63.333 0 118.833 13.5 166.5 40.5zM1009 1454h204v-1454h-204v1454z
M1108 194h835v-194h-835v194zM1108 819h725v-194h-725v194zM1108 1454h835v-194h-835v194z" />
    <glyph glyph-name="oe" unicode="&#x153;" horiz-adv-x="1740" 
d="M327 38c-64 35.333 -112.833 86.833 -146.5 154.5s-50.5 149.167 -50.5 244.5v169c0 94 16.833 174.5 50.5 241.5s82.5 118 146.5 153s141 52.5 231 52.5c82 0 152 -17.5 210 -52.5s102.167 -86 132.5 -153s45.5 -147.5 45.5 -241.5v-172
c0 -94.667 -15.167 -175.5 -45.5 -242.5s-74.5 -118.167 -132.5 -153.5s-128 -53 -210 -53c-90 0 -167 17.667 -231 53zM723 238.5c39.333 46.333 59 111.5 59 195.5v172c0 83.333 -19.667 148 -59 194s-94.666 69 -165.999 69c-74 0 -131.333 -23 -172 -69
s-61 -110.667 -61 -194v-172c0 -84 20.333 -149.167 61 -195.5s98 -69.5 172 -69.5c71.333 0 126.666 23.167 165.999 69.5zM1002 39c-62 36 -109.166 88.8311 -141.499 158.498s-48.5 153.834 -48.5 252.501v117c0 102.667 15.5 190.334 46.5 263.001s76.333 128 136 166
s131.167 57 214.5 57c86.667 0 160.667 -21.667 222 -65s108.166 -106 140.499 -188s48.5 -180.333 48.5 -295v-68h-690v159h506v0c-6.66699 89.333 -29.667 158.833 -69 208.5s-92 74.5 -158 74.5c-80 0 -142.167 -26.333 -186.5 -79s-66.5 -126.667 -66.5 -222v-132
c0 -88.667 23.667 -157 71 -205s114 -72 200 -72c42.667 0 84.5 8.33301 125.5 25s78.167 40 111.5 70v0l129 -124v0c-51.333 -49.333 -109 -87.5 -173 -114.5s-128.333 -40.5 -193 -40.5c-88 0 -163 18 -225 54z" />
    <glyph glyph-name="Racute" unicode="&#x154;" horiz-adv-x="1335" 
d="M269 809l496 0.00195312c38.667 0 73 9.33301 103 28s53.167 45.167 69.5 79.5s24.5 73.833 24.5 118.5v0c0 44.667 -8.16699 84.167 -24.5 118.5s-39.333 60.833 -69 79.5s-64.167 28 -103.5 28h-496v194h488c84 0 157.833 -17.333 221.5 -52s113 -83.834 148 -147.501
s52.5 -137.167 52.5 -220.5v0c0 -83.333 -17.667 -156.833 -53 -220.5s-84.833 -112.834 -148.5 -147.501s-137.167 -52 -220.5 -52h-488v194zM180 1455h204v-1455h-204v1455zM665 660.002l203 46l372 -706h-242zM554 1672l276 245l132 -137l-295 -226z" />
    <glyph glyph-name="racute" unicode="&#x155;" horiz-adv-x="874" 
d="M160 1038h204v-1038h-204v1038zM663 842c-27.333 11.333 -58.998 17.001 -94.998 17.001c-64.667 0 -114.834 -17.833 -150.501 -53.5s-53.5 -85.167 -53.5 -148.5l-21 200c32 62 73.333 110.167 124 144.5s106.667 51.5 168 51.5
c47.333 0 90.166 -6.83301 128.499 -20.5s71.833 -33.834 100.5 -60.501l-133 -180c-18 22 -40.667 38.667 -68 50zM386.002 1341l286 355l147 -122l-305 -336z" />
    <glyph glyph-name="Rcommaaccent" unicode="&#x156;" horiz-adv-x="1335" 
d="M269 809l496 0.00195312c38.667 0 73 9.33301 103 28s53.167 45.167 69.5 79.5s24.5 73.833 24.5 118.5v0c0 44.667 -8.16699 84.167 -24.5 118.5s-39.333 60.833 -69 79.5s-64.167 28 -103.5 28h-496v194h488c84 0 157.833 -17.333 221.5 -52s113 -83.834 148 -147.501
s52.5 -137.167 52.5 -220.5v0c0 -83.333 -17.667 -156.833 -53 -220.5s-84.833 -112.834 -148.5 -147.501s-137.167 -52 -220.5 -52h-488v194zM180 1455h204v-1455h-204v1455zM665 660.002l203 46l372 -706h-242zM546 -147.998h204v-154l-204 -202v356z" />
    <glyph glyph-name="rcommaaccent" unicode="&#x157;" horiz-adv-x="874" 
d="M160 1038h204v-1038h-204v1038zM663 842c-27.333 11.333 -58.998 17.001 -94.998 17.001c-64.667 0 -114.834 -17.833 -150.501 -53.5s-53.5 -85.167 -53.5 -148.5l-21 200c32 62 73.333 110.167 124 144.5s106.667 51.5 168 51.5
c47.333 0 90.166 -6.83301 128.499 -20.5s71.833 -33.834 100.5 -60.501l-133 -180c-18 22 -40.667 38.667 -68 50zM160.002 -147.999h204v-154l-204 -202v356z" />
    <glyph glyph-name="Rcaron" unicode="&#x158;" horiz-adv-x="1335" 
d="M269 809l496 0.00195312c38.667 0 73 9.33301 103 28s53.167 45.167 69.5 79.5s24.5 73.833 24.5 118.5v0c0 44.667 -8.16699 84.167 -24.5 118.5s-39.333 60.833 -69 79.5s-64.167 28 -103.5 28h-496v194h488c84 0 157.833 -17.333 221.5 -52s113 -83.834 148 -147.501
s52.5 -137.167 52.5 -220.5v0c0 -83.333 -17.667 -156.833 -53 -220.5s-84.833 -112.834 -148.5 -147.501s-137.167 -52 -220.5 -52h-488v194zM180 1455h204v-1455h-204v1455zM665 660.002l203 46l372 -706h-242zM339 1801l114 120l195 -150l195 150l114 -120l-309 -239z
" />
    <glyph glyph-name="rcaron" unicode="&#x159;" horiz-adv-x="874" 
d="M160 1038h204v-1038h-204v1038zM663 842c-27.333 11.333 -58.998 17.001 -94.998 17.001c-64.667 0 -114.834 -17.833 -150.501 -53.5s-53.5 -85.167 -53.5 -148.5l-21 200c32 62 73.333 110.167 124 144.5s106.667 51.5 168 51.5
c47.333 0 90.166 -6.83301 128.499 -20.5s71.833 -33.834 100.5 -60.501l-133 -180c-18 22 -40.667 38.667 -68 50zM183.002 1542l114 105l200 -190l200 190l114 -105l-314 -304z" />
    <glyph glyph-name="Sacute" unicode="&#x15a;" horiz-adv-x="1261" 
d="M418 5c-62.667 13.333 -121.164 33.335 -175.497 60.002s-105.166 60 -152.499 100v0l127 156v0c55.333 -48 116.333 -84 183 -108s139 -36 217 -36c105.333 0 187 19.5 245 58.5s87 94.167 87 165.5v1c0 50.667 -13.167 90.834 -39.5 120.501s-60.333 51.667 -102 66
s-95.5 27.5 -161.5 39.5c-2 0.666992 -4.16699 1 -6.5 1s-4.5 0.333008 -6.5 1l-15 3c-97.333 16.667 -176.5 35.5 -237.5 56.5s-113.167 59.333 -156.5 115s-65 134.834 -65 237.501v1c0 90 20.167 166.833 60.5 230.5s99.166 112.167 176.499 145.5s170.333 50 279 50
c52 0 103.167 -5.66699 153.5 -17s100 -28.166 149 -50.499s97.167 -50.5 144.5 -84.5v0l-116 -162v0c-55.333 40.667 -110.5 71.167 -165.5 91.5s-110.167 30.5 -165.5 30.5c-99.333 0 -176.5 -19.833 -231.5 -59.5s-82.5 -95.834 -82.5 -168.501v-1
c0 -50 14.167 -89.333 42.5 -118s63.666 -49.834 105.999 -63.501s101.166 -27.834 176.499 -42.501c2.66699 -0.666992 5.16699 -1.16699 7.5 -1.5s4.83301 -0.833008 7.5 -1.5c3.33301 -0.666992 7 -1.33398 11 -2.00098s7.66699 -1.33398 11 -2.00098
c88 -18 161.5 -39.333 220.5 -64s108.333 -64.5 148 -119.5s59.5 -130.167 59.5 -225.5v-2c0 -88.667 -21 -164.5 -63 -227.5s-102.833 -111 -182.5 -144s-175.834 -49.5 -288.501 -49.5c-70 0 -136.333 6.66699 -199 20zM547.003 1672l276 245l132 -137l-295 -226z" />
    <glyph glyph-name="sacute" unicode="&#x15b;" horiz-adv-x="1062" 
d="M354.5 3c-53.667 12 -103.831 30.002 -150.498 54.002s-89.667 54 -129 90v0l121 149v0c56 -42.667 111.667 -74.667 167 -96s110 -32 164 -32c80.667 0 141.167 12.5 181.5 37.5s60.5 62.5 60.5 112.5c0 33.333 -11 58.333 -33 75s-49.333 27.834 -82 33.501
s-78.667 10.834 -138 15.501c-5.33301 0 -11 0.166992 -17 0.5s-11.667 0.833008 -17 1.5c-2.66699 0 -5.33398 0.166992 -8.00098 0.5s-5.33398 0.5 -8.00098 0.5c-67.333 5.33301 -124.333 15.166 -171 29.499s-85.5 41.166 -116.5 80.499s-46.5 95.666 -46.5 168.999
s15 134.333 45 183s74.667 85.167 134 109.5s133.666 36.5 222.999 36.5c54 0 105.5 -5 154.5 -15s95.833 -24.833 140.5 -44.5s87.667 -44.5 129 -74.5v0l-123 -149v0c-52 33.333 -103.167 58.333 -153.5 75s-99.5 25 -147.5 25c-69.333 0 -121.333 -11.833 -156 -35.5
s-52 -59.167 -52 -106.5c0 -28 9.83301 -49 29.5 -63s44.5 -23.333 74.5 -28s72.667 -8.66699 128 -12c4 -0.666992 8.16699 -1 12.5 -1s8.83301 -0.333008 13.5 -1h6c2 0 4 -0.333008 6 -1c72.667 -4.66699 134.5 -14.334 185.5 -29.001s93.833 -43.667 128.5 -87
s52 -106 52 -188c0 -74.667 -16 -136.5 -48 -185.5s-80.167 -85.833 -144.5 -110.5s-145.166 -37 -242.499 -37c-61.333 0 -118.833 6 -172.5 18zM425.003 1341l286 355l147 -122l-305 -336z" />
    <glyph glyph-name="Scedilla" unicode="&#x15e;" horiz-adv-x="1261" 
d="M418 5c-62.667 13.333 -121.164 33.335 -175.497 60.002s-105.166 60 -152.499 100v0l127 156v0c55.333 -48 116.333 -84 183 -108s139 -36 217 -36c105.333 0 187 19.5 245 58.5s87 94.167 87 165.5v1c0 50.667 -13.167 90.834 -39.5 120.501s-60.333 51.667 -102 66
s-95.5 27.5 -161.5 39.5c-2 0.666992 -4.16699 1 -6.5 1s-4.5 0.333008 -6.5 1l-15 3c-97.333 16.667 -176.5 35.5 -237.5 56.5s-113.167 59.333 -156.5 115s-65 134.834 -65 237.501v1c0 90 20.167 166.833 60.5 230.5s99.166 112.167 176.499 145.5s170.333 50 279 50
c52 0 103.167 -5.66699 153.5 -17s100 -28.166 149 -50.499s97.167 -50.5 144.5 -84.5v0l-116 -162v0c-55.333 40.667 -110.5 71.167 -165.5 91.5s-110.167 30.5 -165.5 30.5c-99.333 0 -176.5 -19.833 -231.5 -59.5s-82.5 -95.834 -82.5 -168.501v-1
c0 -50 14.167 -89.333 42.5 -118s63.666 -49.834 105.999 -63.501s101.166 -27.834 176.499 -42.501c2.66699 -0.666992 5.16699 -1.16699 7.5 -1.5s4.83301 -0.833008 7.5 -1.5c3.33301 -0.666992 7 -1.33398 11 -2.00098s7.66699 -1.33398 11 -2.00098
c88 -18 161.5 -39.333 220.5 -64s108.333 -64.5 148 -119.5s59.5 -130.167 59.5 -225.5v-2c0 -88.667 -21 -164.5 -63 -227.5s-102.833 -111 -182.5 -144s-175.834 -49.5 -288.501 -49.5c-70 0 -136.333 6.66699 -199 20zM474.003 -403.998l42 140.001
c32 -9.33301 63.667 -14 95 -14c36.667 0 64 4.16699 82 12.5s27 21.166 27 38.499c0 16.667 -12 29 -36 37s-60.667 12 -110 12l87 116c78.667 0 137.5 -14.833 176.5 -44.5s58.5 -74.5 58.5 -134.5c0 -60.667 -21.333 -106 -64 -136s-107 -45 -193 -45
c-66.667 0 -121.667 6 -165 18zM724.003 61.0029v-241l-166 2v239h166z" />
    <glyph glyph-name="scedilla" unicode="&#x15f;" horiz-adv-x="1062" 
d="M354.5 3c-53.667 12 -103.831 30.002 -150.498 54.002s-89.667 54 -129 90v0l121 149v0c56 -42.667 111.667 -74.667 167 -96s110 -32 164 -32c80.667 0 141.167 12.5 181.5 37.5s60.5 62.5 60.5 112.5c0 33.333 -11 58.333 -33 75s-49.333 27.834 -82 33.501
s-78.667 10.834 -138 15.501c-5.33301 0 -11 0.166992 -17 0.5s-11.667 0.833008 -17 1.5c-2.66699 0 -5.33398 0.166992 -8.00098 0.5s-5.33398 0.5 -8.00098 0.5c-67.333 5.33301 -124.333 15.166 -171 29.499s-85.5 41.166 -116.5 80.499s-46.5 95.666 -46.5 168.999
s15 134.333 45 183s74.667 85.167 134 109.5s133.666 36.5 222.999 36.5c54 0 105.5 -5 154.5 -15s95.833 -24.833 140.5 -44.5s87.667 -44.5 129 -74.5v0l-123 -149v0c-52 33.333 -103.167 58.333 -153.5 75s-99.5 25 -147.5 25c-69.333 0 -121.333 -11.833 -156 -35.5
s-52 -59.167 -52 -106.5c0 -28 9.83301 -49 29.5 -63s44.5 -23.333 74.5 -28s72.667 -8.66699 128 -12c4 -0.666992 8.16699 -1 12.5 -1s8.83301 -0.333008 13.5 -1h6c2 0 4 -0.333008 6 -1c72.667 -4.66699 134.5 -14.334 185.5 -29.001s93.833 -43.667 128.5 -87
s52 -106 52 -188c0 -74.667 -16 -136.5 -48 -185.5s-80.167 -85.833 -144.5 -110.5s-145.166 -37 -242.499 -37c-61.333 0 -118.833 6 -172.5 18zM359.003 -403.998l42 140.001c32 -9.33301 63.667 -14 95 -14c36.667 0 64 4.16699 82 12.5s27 21.166 27 38.499
c0 16.667 -12 29 -36 37s-60.667 12 -110 12l87 116c78.667 0 137.5 -14.833 176.5 -44.5s58.5 -74.5 58.5 -134.5c0 -60.667 -21.333 -106 -64 -136s-107 -45 -193 -45c-66.667 0 -121.667 6 -165 18zM443.003 91.0029h166v-269h-166v269z" />
    <glyph glyph-name="Scaron" unicode="&#x160;" horiz-adv-x="1261" 
d="M418 5c-62.667 13.333 -121.164 33.335 -175.497 60.002s-105.166 60 -152.499 100v0l127 156v0c55.333 -48 116.333 -84 183 -108s139 -36 217 -36c105.333 0 187 19.5 245 58.5s87 94.167 87 165.5v1c0 50.667 -13.167 90.834 -39.5 120.501s-60.333 51.667 -102 66
s-95.5 27.5 -161.5 39.5c-2 0.666992 -4.16699 1 -6.5 1s-4.5 0.333008 -6.5 1l-15 3c-97.333 16.667 -176.5 35.5 -237.5 56.5s-113.167 59.333 -156.5 115s-65 134.834 -65 237.501v1c0 90 20.167 166.833 60.5 230.5s99.166 112.167 176.499 145.5s170.333 50 279 50
c52 0 103.167 -5.66699 153.5 -17s100 -28.166 149 -50.499s97.167 -50.5 144.5 -84.5v0l-116 -162v0c-55.333 40.667 -110.5 71.167 -165.5 91.5s-110.167 30.5 -165.5 30.5c-99.333 0 -176.5 -19.833 -231.5 -59.5s-82.5 -95.834 -82.5 -168.501v-1
c0 -50 14.167 -89.333 42.5 -118s63.666 -49.834 105.999 -63.501s101.166 -27.834 176.499 -42.501c2.66699 -0.666992 5.16699 -1.16699 7.5 -1.5s4.83301 -0.833008 7.5 -1.5c3.33301 -0.666992 7 -1.33398 11 -2.00098s7.66699 -1.33398 11 -2.00098
c88 -18 161.5 -39.333 220.5 -64s108.333 -64.5 148 -119.5s59.5 -130.167 59.5 -225.5v-2c0 -88.667 -21 -164.5 -63 -227.5s-102.833 -111 -182.5 -144s-175.834 -49.5 -288.501 -49.5c-70 0 -136.333 6.66699 -199 20zM332.003 1801l114 120l195 -150l195 150l114 -120
l-309 -239z" />
    <glyph glyph-name="scaron" unicode="&#x161;" horiz-adv-x="1062" 
d="M354.5 3c-53.667 12 -103.831 30.002 -150.498 54.002s-89.667 54 -129 90v0l121 149v0c56 -42.667 111.667 -74.667 167 -96s110 -32 164 -32c80.667 0 141.167 12.5 181.5 37.5s60.5 62.5 60.5 112.5c0 33.333 -11 58.333 -33 75s-49.333 27.834 -82 33.501
s-78.667 10.834 -138 15.501c-5.33301 0 -11 0.166992 -17 0.5s-11.667 0.833008 -17 1.5c-2.66699 0 -5.33398 0.166992 -8.00098 0.5s-5.33398 0.5 -8.00098 0.5c-67.333 5.33301 -124.333 15.166 -171 29.499s-85.5 41.166 -116.5 80.499s-46.5 95.666 -46.5 168.999
s15 134.333 45 183s74.667 85.167 134 109.5s133.666 36.5 222.999 36.5c54 0 105.5 -5 154.5 -15s95.833 -24.833 140.5 -44.5s87.667 -44.5 129 -74.5v0l-123 -149v0c-52 33.333 -103.167 58.333 -153.5 75s-99.5 25 -147.5 25c-69.333 0 -121.333 -11.833 -156 -35.5
s-52 -59.167 -52 -106.5c0 -28 9.83301 -49 29.5 -63s44.5 -23.333 74.5 -28s72.667 -8.66699 128 -12c4 -0.666992 8.16699 -1 12.5 -1s8.83301 -0.333008 13.5 -1h6c2 0 4 -0.333008 6 -1c72.667 -4.66699 134.5 -14.334 185.5 -29.001s93.833 -43.667 128.5 -87
s52 -106 52 -188c0 -74.667 -16 -136.5 -48 -185.5s-80.167 -85.833 -144.5 -110.5s-145.166 -37 -242.499 -37c-61.333 0 -118.833 6 -172.5 18zM222.003 1542l114 105l200 -190l200 190l114 -105l-314 -304z" />
    <glyph glyph-name="Tcommaaccent" unicode="&#x162;" horiz-adv-x="986" 
d="M391 1335h204v-1335h-204v1335zM-20 1454h1026v-194h-1026v194zM326 -404l42 140.001c32 -9.33301 63.667 -14 95 -14c36.667 0 64 4.16699 82 12.5s27 21.166 27 38.499c0 16.667 -12 29 -36 37s-60.667 12 -110 12l87 116c78.667 0 137.5 -14.833 176.5 -44.5
s58.5 -74.5 58.5 -134.5c0 -60.667 -21.333 -106 -64 -136s-107 -45 -193 -45c-66.667 0 -121.667 6 -165 18zM576 61.001v-241l-166 2v239h166z" />
    <glyph glyph-name="tcommaaccent" unicode="&#x163;" horiz-adv-x="668" 
d="M245.5 64.5c-39 46.333 -58.5 114.833 -58.5 205.5v1070h204v-1072c0 -25.333 5 -44.833 15 -58.5s24.667 -20.5 44 -20.5h98v-194h-118c-84 0 -145.5 23.167 -184.5 69.5zM80 1038h468v-184h-468v184zM162 -404l42 140.001c32 -9.33301 63.667 -14 95 -14
c36.667 0 64 4.16699 82 12.5s27 21.166 27 38.499c0 16.667 -12 29 -36 37s-60.667 12 -110 12l87 116c78.667 0 137.5 -14.833 176.5 -44.5s58.5 -74.5 58.5 -134.5c0 -60.667 -21.333 -106 -64 -136s-107 -45 -193 -45c-66.667 0 -121.667 6 -165 18zM246 91.001h166
v-269h-166v269z" />
    <glyph glyph-name="Tcaron" unicode="&#x164;" horiz-adv-x="986" 
d="M391 1335h204v-1335h-204v1335zM-20 1454h1026v-194h-1026v194zM184 1801l114 120l195 -150l195 150l114 -120l-309 -239z" />
    <glyph glyph-name="tcaron" unicode="&#x165;" horiz-adv-x="788" 
d="M245.5 64.5c-39 46.333 -58.5 114.833 -58.5 205.5v1070h204v-1072c0 -25.333 5 -44.833 15 -58.5s24.667 -20.5 44 -20.5h98v-194h-118c-84 0 -145.5 23.167 -184.5 69.5zM80 1038h468v-184h-468v184zM589 1554h174v-204l-174 -162v366z" />
    <glyph glyph-name="Umacron" unicode="&#x16a;" horiz-adv-x="1342" 
d="M394.5 48.5c-76.333 42.333 -134.5 104 -174.5 185s-60 178.5 -60 292.5v928h204v-935c0 -106 26.667 -188 80 -246s128.666 -87 225.999 -87c98 0 173.833 29 227.5 87s80.5 140 80.5 246v935h204v-928c0 -114 -20 -211.5 -60 -292.5s-98.333 -142.667 -175 -185
s-169 -63.5 -277 -63.5c-107.333 0 -199.166 21.167 -275.499 63.5zM1036 1773v-200h-730v200h730z" />
    <glyph glyph-name="umacron" unicode="&#x16b;" horiz-adv-x="1139" 
d="M786 1038h203v-1038h-203v1038zM364 407c0 -72.667 18.499 -128.832 55.499 -168.499s89.167 -59.5 156.5 -59.5c66.667 0 118.334 17.667 155.001 53s55 85.666 55 150.999l14 -217c-21.333 -51.333 -56 -94.333 -104 -129s-107 -52 -177 -52
c-114.667 0 -203.167 36.833 -265.5 110.5s-93.5 177.5 -93.5 311.5v631h204v-631zM934.999 1453v-203h-730v203h730z" />
    <glyph glyph-name="Ubreve" unicode="&#x16c;" horiz-adv-x="1342" 
d="M394.5 48.5c-76.333 42.333 -134.5 104 -174.5 185s-60 178.5 -60 292.5v928h204v-935c0 -106 26.667 -188 80 -246s128.666 -87 225.999 -87c98 0 173.833 29 227.5 87s80.5 140 80.5 246v935h204v-928c0 -114 -20 -211.5 -60 -292.5s-98.333 -142.667 -175 -185
s-169 -63.5 -277 -63.5c-107.333 0 -199.166 21.167 -275.499 63.5zM1008 1863c0 -97.333 -28.998 -172.5 -86.998 -225.5s-140 -79.5 -246 -79.5h-8c-106 0 -188 26.5 -246 79.5s-87 128.167 -87 225.5l165 -2c0 -50 14.667 -88.833 44 -116.5s70.666 -41.5 123.999 -41.5
h8c53.333 0 94.666 13.833 123.999 41.5s44 66.5 44 116.5z" />
    <glyph glyph-name="ubreve" unicode="&#x16d;" horiz-adv-x="1139" 
d="M786 1038h203v-1038h-203v1038zM364 407c0 -72.667 18.499 -128.832 55.499 -168.499s89.167 -59.5 156.5 -59.5c66.667 0 118.334 17.667 155.001 53s55 85.666 55 150.999l14 -217c-21.333 -51.333 -56 -94.333 -104 -129s-107 -52 -177 -52
c-114.667 0 -203.167 36.833 -265.5 110.5s-93.5 177.5 -93.5 311.5v631h204v-631zM337.499 1324.5c-49.667 59.667 -74.5 149.167 -74.5 268.5v0h164v0c0 -66.667 11.167 -116.5 33.5 -149.5s55.833 -49.5 100.5 -49.5h18c44.667 0 78.167 16.5 100.5 49.5
s33.5 82.833 33.5 149.5v0h164v0c0 -119.333 -24.833 -208.833 -74.5 -268.5s-124.167 -89.5 -223.5 -89.5h-18c-99.333 0 -173.833 29.833 -223.5 89.5z" />
    <glyph glyph-name="Uring" unicode="&#x16e;" horiz-adv-x="1342" 
d="M394.5 48.5c-76.333 42.333 -134.5 104 -174.5 185s-60 178.5 -60 292.5v928h204v-935c0 -106 26.667 -188 80 -246s128.666 -87 225.999 -87c98 0 173.833 29 227.5 87s80.5 140 80.5 246v935h204v-928c0 -114 -20 -211.5 -60 -292.5s-98.333 -142.667 -175 -185
s-169 -63.5 -277 -63.5c-107.333 0 -199.166 21.167 -275.499 63.5zM489.5 1602c-42.333 40 -63.5 97 -63.5 171c0 77.333 21.167 136.833 63.5 178.5s102.833 62.5 181.5 62.5c78 0 138.333 -21.167 181 -63.5s64 -101.5 64 -177.5c0 -74 -21.333 -131 -64 -171
s-103 -60 -181 -60c-78.667 0 -139.167 20 -181.5 60zM739.5 1707.5c16.333 17 24.501 40.167 24.501 69.5c0 30.667 -8 54.667 -24 72s-39 26 -69 26s-53 -8.5 -69 -25.5s-24 -41.167 -24 -72.5c0 -30 8 -53.333 24 -70s39 -25 69 -25c29.333 0 52.166 8.5 68.499 25.5z
" />
    <glyph glyph-name="uring" unicode="&#x16f;" horiz-adv-x="1139" 
d="M786 1038h203v-1038h-203v1038zM364 407c0 -72.667 18.499 -128.832 55.499 -168.499s89.167 -59.5 156.5 -59.5c66.667 0 118.334 17.667 155.001 53s55 85.666 55 150.999l14 -217c-21.333 -51.333 -56 -94.333 -104 -129s-107 -52 -177 -52
c-114.667 0 -203.167 36.833 -265.5 110.5s-93.5 177.5 -93.5 311.5v631h204v-631zM388.499 1301c-42.333 40 -63.5 97 -63.5 171c0 77.333 21.167 136.833 63.5 178.5s102.833 62.5 181.5 62.5c78 0 138.333 -21.167 181 -63.5s64 -101.5 64 -177.5
c0 -74 -21.333 -131 -64 -171s-103 -60 -181 -60c-78.667 0 -139.167 20 -181.5 60zM645.999 1399c18 18.667 27 44.334 27 77.001c0 34 -9 60.5 -27 79.5s-43.333 28.5 -76 28.5s-58 -9.5 -76 -28.5s-27 -45.5 -27 -79.5c0 -32.667 9 -58.334 27 -77.001s43.333 -28 76 -28
s58 9.33301 76 28z" />
    <glyph glyph-name="Uhungarumlaut" unicode="&#x170;" horiz-adv-x="1342" 
d="M394.5 48.5c-76.333 42.333 -134.5 104 -174.5 185s-60 178.5 -60 292.5v928h204v-935c0 -106 26.667 -188 80 -246s128.666 -87 225.999 -87c98 0 173.833 29 227.5 87s80.5 140 80.5 246v935h204v-928c0 -114 -20 -211.5 -60 -292.5s-98.333 -142.667 -175 -185
s-169 -63.5 -277 -63.5c-107.333 0 -199.166 21.167 -275.499 63.5zM747 1662l226 255l142 -137l-245 -236zM347 1662l226 255l142 -137l-245 -236z" />
    <glyph glyph-name="uhungarumlaut" unicode="&#x171;" horiz-adv-x="1139" 
d="M786 1038h203v-1038h-203v1038zM364 407c0 -72.667 18.499 -128.832 55.499 -168.499s89.167 -59.5 156.5 -59.5c66.667 0 118.334 17.667 155.001 53s55 85.666 55 150.999l14 -217c-21.333 -51.333 -56 -94.333 -104 -129s-107 -52 -177 -52
c-114.667 0 -203.167 36.833 -265.5 110.5s-93.5 177.5 -93.5 311.5v631h204v-631zM645.999 1321l186 355l172 -107l-205 -336zM245.999 1321l186 355l172 -107l-205 -336z" />
    <glyph glyph-name="Uogonek" unicode="&#x172;" horiz-adv-x="1342" 
d="M587 -356c-50 42.667 -75 107 -75 193c0 86.667 23.833 151.667 71.5 195s119.5 65 215.5 65v-97c-70.667 -0 -106 -44.667 -106 -134c0 -80 40 -120 120 -120h92v-166h-92c-100.667 0 -176 21.333 -226 64zM394.5 48.5c-76.333 42.333 -134.5 104 -174.5 185
s-60 178.5 -60 292.5v928h204v-935c0 -106 26.667 -188 80 -246s128.666 -87 225.999 -87c98 0 173.833 29 227.5 87s80.5 140 80.5 246v935h204v-928c0 -114 -20 -211.5 -60 -292.5s-98.333 -142.667 -175 -185s-169 -63.5 -277 -63.5
c-107.333 0 -199.166 21.167 -275.499 63.5z" />
    <glyph glyph-name="uogonek" unicode="&#x173;" horiz-adv-x="1139" 
d="M786 1038h203v-1038h-203v1038zM364 407c0 -72.667 18.499 -128.832 55.499 -168.499s89.167 -59.5 156.5 -59.5c66.667 0 118.334 17.667 155.001 53s55 85.666 55 150.999l14 -217c-21.333 -51.333 -56 -94.333 -104 -129s-107 -52 -177 -52
c-114.667 0 -203.167 36.833 -265.5 110.5s-93.5 177.5 -93.5 311.5v631h204v-631zM743.999 -373.498c-41.333 31 -62 81.165 -62 150.498c0 56 22.333 106.833 67 152.5s108 84.834 190 117.501l50 -47c-47.333 -29.333 -81.833 -58.666 -103.5 -87.999
s-32.5 -61.333 -32.5 -96c0 -24.667 7.16699 -42.5 21.5 -53.5s37.166 -16.5 68.499 -16.5h46v-166h-46c-91.333 0 -157.666 15.5 -198.999 46.5z" />
    <glyph glyph-name="Ydieresis" unicode="&#x178;" horiz-adv-x="1030" 
d="M617 591v-591h-204v591l-443 863h227l318 -656l318 656h227zM618 1777h204v-204h-204v204zM208 1777h204v-204h-204v204z" />
    <glyph glyph-name="Zacute" unicode="&#x179;" horiz-adv-x="1114" 
d="M1004 1278l-633 -1084h653v-194h-904v176l638 1084h-620v194h866v-176zM483 1672l276 245l132 -137l-295 -226z" />
    <glyph glyph-name="zacute" unicode="&#x17a;" horiz-adv-x="1013" 
d="M876 866l-499 -677h526v-189h-773v176l512 673h-498v189h732v-172zM407 1341l286 355l147 -122l-305 -336z" />
    <glyph glyph-name="Zdotaccent" unicode="&#x17b;" horiz-adv-x="1114" 
d="M1004 1278l-633 -1084h653v-194h-904v176l638 1084h-620v194h866v-176zM475 1777h204v-204h-204v204z" />
    <glyph glyph-name="zdotaccent" unicode="&#x17c;" horiz-adv-x="1013" 
d="M876 866l-499 -677h526v-189h-773v176l512 673h-498v189h732v-172zM416 1455h204v-204h-204v204z" />
    <glyph glyph-name="Zcaron" unicode="&#x17d;" horiz-adv-x="1114" 
d="M1004 1278l-633 -1084h653v-194h-904v176l638 1084h-620v194h866v-176zM268 1801l114 120l195 -150l195 150l114 -120l-309 -239z" />
    <glyph glyph-name="zcaron" unicode="&#x17e;" horiz-adv-x="1013" 
d="M876 866l-499 -677h526v-189h-773v176l512 673h-498v189h732v-172zM204 1542l114 105l200 -190l200 190l114 -105l-314 -304z" />
    <glyph glyph-name="uni0181" unicode="&#x181;" horiz-adv-x="1499" 
d="M-20 1211c0 77.333 24 137.167 72 179.5s115.667 63.5 203 63.5h235v-189h-228c-25.333 0 -44.833 -5.16699 -58.5 -15.5s-20.5 -24.833 -20.5 -43.5v-69h-203v74zM477 189.001l394.003 0.00195312c103.333 0 178.666 19.667 225.999 59s71 94.666 71 165.999v3
c0 49.333 -8.5 91.666 -25.5 126.999s-43.833 62.5 -80.5 81.5s-83.667 28.5 -141 28.5h-444v184h444c75.333 0 132.166 17.667 170.499 53s57.5 87.666 57.5 156.999v0c0 72.667 -21.333 127 -64 163s-106.667 54 -192 54h-416v189h453c94 0 172.667 -16 236 -48
s110.666 -77.333 141.999 -136s47 -128.667 47 -210v0c0 -50 -9.66699 -96.833 -29 -140.5s-48.833 -81 -88.5 -112s-88.834 -51.833 -147.501 -62.5c58.667 -8.66699 109.334 -29.5 152.001 -62.5s75.334 -74.167 98.001 -123.5s34 -102.666 34 -159.999v-3
c0 -78.667 -17.333 -148 -52 -208s-84.334 -106.333 -149.001 -139s-140 -49 -226 -49h-470v189zM357.003 1454h203v-1454h-203v1454z" />
    <glyph glyph-name="uni0186" unicode="&#x186;" horiz-adv-x="1267" 
d="M382 38.5c-70 35.667 -128.668 86.165 -176.001 151.498s-79.333 141 -96 227v0h209v0c12.667 -48.667 33.834 -90.667 63.501 -126s64.334 -62 104.001 -80s81.167 -27 124.5 -27c59.333 0 111.333 14.167 156 42.5s79.334 68.5 104.001 120.5s37 112 37 180v399
c0 68.667 -12.333 128.834 -37 180.501s-59.334 91.834 -104.001 120.501s-96.667 43 -156 43c-42.667 0 -84 -9.66699 -124 -29s-74.833 -46.833 -104.5 -82.5s-50.834 -76.167 -63.501 -121.5v0h-209v0c16.667 86 48.5 161.667 95.5 227s105.5 115.833 175.5 151.5
s146.667 53.5 230 53.5c100.667 0 189.167 -22.5 265.5 -67.5s135.5 -108.5 177.5 -190.5s63 -177 63 -285v-399c0 -108 -21 -203 -63 -285s-101.167 -145.333 -177.5 -190s-164.833 -67 -265.5 -67c-82.667 0 -159 17.833 -229 53.5z" />
    <glyph glyph-name="uni0189" unicode="&#x189;" horiz-adv-x="1391" 
d="M365 194h328.999c107.333 0 190.5 27.833 249.5 83.5s88.5 134.167 88.5 235.5v428c0 101.333 -29.5 179.833 -88.5 235.5s-142.167 83.5 -249.5 83.5h-329v194h323c116.667 0 216.334 -20.333 299.001 -61s145.667 -100 189 -178s65 -172 65 -282v-412
c0 -110 -21.667 -204 -65 -282s-106.5 -137.333 -189.5 -178s-182.833 -61 -299.5 -61h-322v194zM226.999 1454h204v-1454h-204v1454zM747.999 814v-174h-670v174h670z" />
    <glyph glyph-name="uni018A" unicode="&#x18a;" horiz-adv-x="1521" 
d="M-20 1211c0 77.333 24 137.167 72 179.5s115.667 63.5 203 63.5h235v-189h-228c-25.333 0 -44.833 -5.16699 -58.5 -15.5s-20.5 -24.833 -20.5 -43.5v-69h-203v74zM495 194.001h328.999c107.333 0 190.5 27.833 249.5 83.5s88.5 134.167 88.5 235.5v428
c0 101.333 -29.5 179.833 -88.5 235.5s-142.167 83.5 -249.5 83.5h-329v194h323c116.667 0 216.334 -20.333 299.001 -61s145.667 -100 189 -178s65 -172 65 -282v-412c0 -110 -21.667 -204 -65 -282s-106.5 -137.333 -189.5 -178s-182.833 -61 -299.5 -61h-322v194z
M356.999 1454h204v-1454h-204v1454z" />
    <glyph glyph-name="uni018E" unicode="&#x18e;" horiz-adv-x="1224" 
d="M840 0v1454h204v-1454h-204zM110 0v194h835v-194h-835zM220 625v194h725v-194h-725zM110 1260v194h835v-194h-835z" />
    <glyph glyph-name="uni018F" unicode="&#x18f;" horiz-adv-x="1281" 
d="M390 43.5c-72 39 -126.832 95.501 -164.499 169.501s-56.5 163.333 -56.5 268v313h814v-194h-605v-116c0 -94.667 23.667 -168 71 -220s114.333 -78 201 -78s153.667 26 201 78s71 125.333 71 220v496c0 91.333 -25.5 162.166 -76.5 212.499s-122.833 75.5 -215.5 75.5
c-67.333 0 -129.333 -14.667 -186 -44s-103.334 -70.666 -140.001 -123.999v0l-144 144v0c60.667 71.333 132 126.666 214 165.999s167.333 59 256 59c105.333 0 195.5 -19.5 270.5 -58.5s132.167 -95.5 171.5 -169.5s59 -163.333 59 -268v-492
c0 -104.667 -18.833 -194 -56.5 -268s-92.5 -130.5 -164.5 -169.5s-158.667 -58.5 -260 -58.5s-188 19.5 -260 58.5z" />
    <glyph glyph-name="uni0190" unicode="&#x190;" horiz-adv-x="1123" 
d="M336 29.5c-65.333 29.667 -114.336 74.167 -147.003 133.5s-49 133.666 -49 222.999v24c0 98.667 20.833 177 62.5 235s104.167 96 187.5 114c-75.333 26 -131.833 64.667 -169.5 116s-56.5 115.333 -56.5 192v24c0 84.667 15.5 154.834 46.5 210.501
s77.5 97.5 139.5 125.5s139.667 42 233 42c80.667 0 150 -13.833 208 -41.5s105.167 -69.5 141.5 -125.5s61.833 -126 76.5 -210v0h-207v0c-9.33301 40.667 -23.666 74.334 -42.999 101.001s-43.666 46.667 -72.999 60s-63.666 20 -102.999 20
c-72 0 -125.833 -15 -161.5 -45s-53.5 -75 -53.5 -135v-45c0 -64.667 15.833 -113.334 47.5 -146.001s78.834 -49 141.501 -49h153v-194h-153c-70.667 0 -123.834 -19 -159.501 -57s-53.5 -95 -53.5 -171v-44c0 -68.667 19.833 -120.167 59.5 -154.5
s99.167 -51.5 178.5 -51.5c48 0 88.833 6.66699 122.5 20s60.667 33.5 81 60.5s33.5 60.5 39.5 100.5v0h208v0c-10.667 -84 -34.667 -153.833 -72 -209.5s-87.5 -97.5 -150.5 -125.5s-139.167 -42 -228.5 -42c-98.667 0 -180.667 14.833 -246 44.5z" />
    <glyph glyph-name="uni0191" unicode="&#x191;" horiz-adv-x="1158" 
d="M20 -193h113.999c18.667 0 33.167 6.83301 43.5 20.5s15.5 33.167 15.5 58.5v377h204v-375c0 -87.333 -21.167 -155 -63.5 -203s-102.166 -72 -179.499 -72h-134v194zM192.999 1454h204v-1454h-204v1454zM292.999 806h705v-194h-705v194zM292.999 1454h815v-194h-815v194
z" />
    <glyph glyph-name="florin" unicode="&#x192;" horiz-adv-x="649" 
d="M80 -228h50.999c18.667 0 33.167 6.83301 43.5 20.5s15.5 33.167 15.5 58.5v249h204v-247c0 -87.333 -21.167 -155 -63.5 -203s-102.166 -72 -179.499 -72h-71v194zM189.999 1179c0 92 21.167 160.833 63.5 206.5s107.5 68.5 195.5 68.5h150v-194h-146
c-19.333 0 -34 -7.33301 -44 -22s-15 -33.667 -15 -57v-1181h-204v1179zM79.999 1038h519v-174h-519v174z" />
    <glyph glyph-name="uni0194" unicode="&#x194;" horiz-adv-x="1202" 
d="M427 -378c-36 29.333 -54 76.666 -54 141.999c0 40 13 90.667 39 152s67.667 139.666 125 234.999h128c57.333 -95.333 99 -173.666 125 -234.999s39 -112 39 -152c0 -65.333 -18 -112.666 -54 -141.999s-94 -44 -174 -44s-138 14.667 -174 44zM638.5 -244.5
c7.66699 9 11.5 23.501 11.5 43.501c0 14.667 -3.83301 34.167 -11.5 58.5s-20.167 56.166 -37.5 95.499c-32.667 -82 -49 -133.333 -49 -154c0 -20 3.83301 -34.5 11.5 -43.5s20.167 -13.5 37.5 -13.5s29.833 4.5 37.5 13.5zM30 1454h222l349 -1140l349 1140h222
l-474 -1454h-194z" />
    <glyph glyph-name="uni0198" unicode="&#x198;" horiz-adv-x="1314" 
d="M341 644l565.001 717c17.333 22 36.166 40.5 56.499 55.5s41.833 26.167 64.5 33.5s47 11 73 11h134v-194h-114c-14 0 -29.833 -6.5 -47.5 -19.5s-37.167 -32.833 -58.5 -59.5l-706 -858zM180.001 1454h204v-1454h-204v1454zM582.001 776l161 149l551 -925h-250z" />
    <glyph glyph-name="uni0199" unicode="&#x199;" horiz-adv-x="1083" 
d="M248 394l534 644h240l-787 -886zM489 599l131 136l453 -735h-222zM160 1189c0 87.333 21.168 155 63.501 203s102.166 72 179.499 72h134v-194h-114c-18.667 0 -33.167 -6.83301 -43.5 -20.5s-15.5 -33.167 -15.5 -58.5v-1191h-204v1189z" />
    <glyph glyph-name="Ohorn" unicode="&#x1a0;" horiz-adv-x="1362" 
d="M830 1270v163.999h230c86 0 129 53 129 159v33h199v-53c0 -101.333 -24.5 -177.166 -73.5 -227.499s-122.833 -75.5 -221.5 -75.5h-263zM393 51.499c-77.333 44.333 -137.166 107 -179.499 188s-63.5 174.833 -63.5 281.5v412c0 106.667 21.167 200.5 63.5 281.5
s102.166 143.667 179.499 188s166.666 66.5 267.999 66.5s190.666 -22.167 267.999 -66.5s137.166 -107 179.499 -188s63.5 -174.833 63.5 -281.5v-412c0 -106.667 -21.167 -200.5 -63.5 -281.5s-102.166 -143.667 -179.499 -188s-166.666 -66.5 -267.999 -66.5
s-190.666 22.167 -267.999 66.5zM819.5 226.499c45.667 27 81 65.333 106 115s37.5 107.167 37.5 172.5v426c0 65.333 -12.5 122.833 -37.5 172.5s-60.333 88 -106 115s-98.5 40.5 -158.5 40.5s-112.833 -13.5 -158.5 -40.5s-81 -65.333 -106 -115
s-37.5 -107.167 -37.5 -172.5v-426c0 -65.333 12.5 -122.833 37.5 -172.5s60.333 -88 106 -115s98.5 -40.5 158.5 -40.5s112.833 13.5 158.5 40.5z" />
    <glyph glyph-name="ohorn" unicode="&#x1a1;" horiz-adv-x="1124" 
d="M656 1038h149.999c40.667 0 72.334 12.167 95.001 36.5s34 58.5 34 102.5v74h199v-94c0 -83.333 -25.667 -148 -77 -194s-124 -69 -218 -69h-183v144zM326.999 38c-64 35.333 -112.833 86.833 -146.5 154.5s-50.5 149.167 -50.5 244.5v169c0 94 16.833 174.5 50.5 241.5
s82.5 118 146.5 153s141 52.5 231 52.5s167 -17.5 231 -52.5s112.833 -86 146.5 -153s50.5 -147.5 50.5 -241.5v-172c0 -94.667 -16.833 -175.5 -50.5 -242.5s-82.5 -118.167 -146.5 -153.5s-141 -53 -231 -53s-167 17.667 -231 53zM723.499 246
c39 44.667 58.5 107.334 58.5 188.001v172c0 80.667 -19.5 143 -58.5 187s-94.167 66 -165.5 66s-126.5 -22 -165.5 -66s-58.5 -106.333 -58.5 -187v-172c0 -80.667 19.5 -143.334 58.5 -188.001s94.167 -67 165.5 -67s126.5 22.333 165.5 67z" />
    <glyph glyph-name="Uhorn" unicode="&#x1af;" horiz-adv-x="1484" 
d="M394.5 48.5c-76.333 42.333 -134.5 104 -174.5 185s-60 178.5 -60 292.5v928h204v-935c0 -106 26.667 -188 80 -246s128.666 -87 225.999 -87c98 0 173.833 29 227.5 87s80.5 140 80.5 246v935h204v-928c0 -114 -20 -211.5 -60 -292.5s-98.333 -142.667 -175 -185
s-169 -63.5 -277 -63.5c-107.333 0 -199.166 21.167 -275.499 63.5zM986 1310l-0.000976562 144h160c40.667 0 72.334 12.167 95.001 36.5s34 58.5 34 102.5v73h199v-93c0 -83.333 -25.667 -148 -77 -194s-124 -69 -218 -69h-193z" />
    <glyph glyph-name="uhorn" unicode="&#x1b0;" horiz-adv-x="1270" 
d="M786 1038h203v-1038h-203v1038zM364 407c0 -72.667 18.499 -128.832 55.499 -168.499s89.167 -59.5 156.5 -59.5c66.667 0 118.334 17.667 155.001 53s55 85.666 55 150.999l14 -217c-21.333 -51.333 -56 -94.333 -104 -129s-107 -52 -177 -52
c-114.667 0 -203.167 36.833 -265.5 110.5s-93.5 177.5 -93.5 311.5v631h204v-631zM791.999 894.002l-0.000976562 144h160c40.667 0 72.334 12.167 95.001 36.5s34 58.5 34 102.5v74h199v-94c0 -83.333 -25.667 -148 -77 -194s-124 -69 -218 -69h-193z" />
    <glyph glyph-name="uni01B2" unicode="&#x1b2;" horiz-adv-x="1342" 
d="M394.5 48.5c-76.333 42.333 -134.5 104 -174.5 185s-60 178.5 -60 292.5v928h204v-935c0 -106 26.667 -188 80 -246s128.666 -87 225.999 -87c98 0 173.833 29 227.5 87s80.5 140 80.5 246v565h204v-558c0 -114 -20 -211.5 -60 -292.5s-98.333 -142.667 -175 -185
s-169 -63.5 -277 -63.5c-107.333 0 -199.166 21.167 -275.499 63.5zM978 1181c0 25.333 -5.16602 44.833 -15.499 58.5s-24.833 20.5 -43.5 20.5h-114v194h134c77.333 0 137.166 -24 179.499 -72s63.5 -115.667 63.5 -203v-325h-204v327z" />
    <glyph glyph-name="uni01B3" unicode="&#x1b3;" horiz-adv-x="1058" 
d="M413 591l-443 863h227l367 -760l53 -3v-691h-204v591zM481 729l222.999 457l28 60c24.667 53.333 45.834 93.833 63.501 121.5s40.167 50.167 67.5 67.5s62 26 104 26h136v-194h-96c-17.333 0 -32.5 -6.66699 -45.5 -20s-26.167 -33 -39.5 -59l-359 -703z" />
    <glyph glyph-name="uni01B4" unicode="&#x1b4;" horiz-adv-x="1051" 
d="M187 -237l41.001 0.000976562c40 0 71.833 7.66699 95.5 23s41.5 41.666 53.5 78.999l335 1026c17.333 54 43.833 94.5 79.5 121.5s80.834 40.5 135.501 40.5h104v-194h-64c-20.667 0 -38.334 -6.5 -53.001 -19.5s-26.334 -32.833 -35.001 -59.5l-352 -1023
c-16 -47.333 -37 -84.833 -63 -112.5s-58 -47.5 -96 -59.5s-84.667 -18 -140 -18h-41v196zM50.001 1038h208l319 -902l-113 -221z" />
    <glyph glyph-name="uni01B7" unicode="&#x1b7;" horiz-adv-x="1113" 
d="M309.5 27c-62.333 28 -111.668 69.833 -148.001 125.5s-60.166 125.5 -71.499 209.5v0h208v0c9.33301 -60.667 33.833 -106 73.5 -136s94.5 -45 164.5 -45c78 0 136.333 17.167 175 51.5s58 85.833 58 154.5v44c0 76 -19.333 133 -58 171s-97 57 -175 57h-163v194h163
c97.333 0 178.333 -16 243 -48s113.167 -80 145.5 -144s48.5 -144.333 48.5 -241v-24c0 -92 -16.167 -168.333 -48.5 -229s-80.833 -106.167 -145.5 -136.5s-145.667 -45.5 -243 -45.5c-88.667 0 -164.167 14 -226.5 42zM372.998 853l325 407h-550v194h796v-176l-405 -510z
" />
    <glyph glyph-name="uni01DD" unicode="&#x1dd;" horiz-adv-x="1098" 
d="M309 48.5c-61.333 42.333 -108.168 103.831 -140.501 184.498s-48.5 177.334 -48.5 290.001v68h700v-164h-506v0c6 -81.333 27.833 -144.666 65.5 -189.999s88.167 -68 151.5 -68c77.333 0 137.166 24.5 179.499 73.5s63.5 118.167 63.5 207.5v132
c0 88.667 -22.667 157 -68 205s-109.666 72 -192.999 72c-41.333 0 -82.333 -8.33301 -123 -25s-77 -40 -109 -70v0l-134 134v0c51.333 49.333 109 87.5 173 114.5s128.333 40.5 193 40.5c96 0 178 -18.5 246 -55.5s119.833 -91 155.5 -162s53.5 -156.833 53.5 -257.5v-117
c0 -100.667 -17.167 -186.5 -51.5 -257.5s-84.166 -125.167 -149.499 -162.5s-144 -56 -236 -56c-86.667 0 -160.667 21.167 -222 63.5z" />
    <glyph glyph-name="Scommaaccent" unicode="&#x218;" horiz-adv-x="1261" 
d="M418 5c-62.667 13.333 -121.164 33.335 -175.497 60.002s-105.166 60 -152.499 100v0l127 156v0c55.333 -48 116.333 -84 183 -108s139 -36 217 -36c105.333 0 187 19.5 245 58.5s87 94.167 87 165.5v1c0 50.667 -13.167 90.834 -39.5 120.501s-60.333 51.667 -102 66
s-95.5 27.5 -161.5 39.5c-2 0.666992 -4.16699 1 -6.5 1s-4.5 0.333008 -6.5 1l-15 3c-97.333 16.667 -176.5 35.5 -237.5 56.5s-113.167 59.333 -156.5 115s-65 134.834 -65 237.501v1c0 90 20.167 166.833 60.5 230.5s99.166 112.167 176.499 145.5s170.333 50 279 50
c52 0 103.167 -5.66699 153.5 -17s100 -28.166 149 -50.499s97.167 -50.5 144.5 -84.5v0l-116 -162v0c-55.333 40.667 -110.5 71.167 -165.5 91.5s-110.167 30.5 -165.5 30.5c-99.333 0 -176.5 -19.833 -231.5 -59.5s-82.5 -95.834 -82.5 -168.501v-1
c0 -50 14.167 -89.333 42.5 -118s63.666 -49.834 105.999 -63.501s101.166 -27.834 176.499 -42.501c2.66699 -0.666992 5.16699 -1.16699 7.5 -1.5s4.83301 -0.833008 7.5 -1.5c3.33301 -0.666992 7 -1.33398 11 -2.00098s7.66699 -1.33398 11 -2.00098
c88 -18 161.5 -39.333 220.5 -64s108.333 -64.5 148 -119.5s59.5 -130.167 59.5 -225.5v-2c0 -88.667 -21 -164.5 -63 -227.5s-102.833 -111 -182.5 -144s-175.834 -49.5 -288.501 -49.5c-70 0 -136.333 6.66699 -199 20zM539.003 -147.998h204v-154l-204 -202v356z" />
    <glyph glyph-name="scommaaccent" unicode="&#x219;" horiz-adv-x="1062" 
d="M354.5 3c-53.667 12 -103.831 30.002 -150.498 54.002s-89.667 54 -129 90v0l121 149v0c56 -42.667 111.667 -74.667 167 -96s110 -32 164 -32c80.667 0 141.167 12.5 181.5 37.5s60.5 62.5 60.5 112.5c0 33.333 -11 58.333 -33 75s-49.333 27.834 -82 33.501
s-78.667 10.834 -138 15.501c-5.33301 0 -11 0.166992 -17 0.5s-11.667 0.833008 -17 1.5c-2.66699 0 -5.33398 0.166992 -8.00098 0.5s-5.33398 0.5 -8.00098 0.5c-67.333 5.33301 -124.333 15.166 -171 29.499s-85.5 41.166 -116.5 80.499s-46.5 95.666 -46.5 168.999
s15 134.333 45 183s74.667 85.167 134 109.5s133.666 36.5 222.999 36.5c54 0 105.5 -5 154.5 -15s95.833 -24.833 140.5 -44.5s87.667 -44.5 129 -74.5v0l-123 -149v0c-52 33.333 -103.167 58.333 -153.5 75s-99.5 25 -147.5 25c-69.333 0 -121.333 -11.833 -156 -35.5
s-52 -59.167 -52 -106.5c0 -28 9.83301 -49 29.5 -63s44.5 -23.333 74.5 -28s72.667 -8.66699 128 -12c4 -0.666992 8.16699 -1 12.5 -1s8.83301 -0.333008 13.5 -1h6c2 0 4 -0.333008 6 -1c72.667 -4.66699 134.5 -14.334 185.5 -29.001s93.833 -43.667 128.5 -87
s52 -106 52 -188c0 -74.667 -16 -136.5 -48 -185.5s-80.167 -85.833 -144.5 -110.5s-145.166 -37 -242.499 -37c-61.333 0 -118.833 6 -172.5 18zM424.003 -147.998h204v-154l-204 -202v356z" />
    <glyph glyph-name="uni021A" unicode="&#x21a;" horiz-adv-x="986" 
d="M391 1335h204v-1335h-204v1335zM-20 1454h1026v-194h-1026v194zM391 -148h204v-154l-204 -202v356z" />
    <glyph glyph-name="uni021B" unicode="&#x21b;" horiz-adv-x="668" 
d="M245.5 64.5c-39 46.333 -58.5 114.833 -58.5 205.5v1070h204v-1072c0 -25.333 5 -44.833 15 -58.5s24.667 -20.5 44 -20.5h98v-194h-118c-84 0 -145.5 23.167 -184.5 69.5zM80 1038h468v-184h-468v184zM227 -148h204v-154l-204 -202v356z" />
    <glyph glyph-name="uni0253" unicode="&#x253;" horiz-adv-x="1114" 
d="M160 1189c0 87.333 21.168 155 63.501 203s102.166 72 179.499 72h134v-194h-114c-18.667 0 -33.167 -6.83301 -43.5 -20.5s-15.5 -33.167 -15.5 -58.5v-1191h-204v1189zM456.001 31.5c-48 31 -83.3311 74.832 -105.998 131.499l14 217c0 -44.667 8 -82.667 24 -114
s39.167 -55.333 69.5 -72s67.166 -25 110.499 -25c67.333 0 119.5 20.5 156.5 61.5s55.5 98.833 55.5 173.5v225c0 76 -18.5 135 -55.5 177s-89.167 63 -156.5 63c-43.333 0 -80.166 -8 -110.499 -24s-53.5 -39.5 -69.5 -70.5s-24 -68.167 -24 -111.5l-21 200
c31.333 60.667 72.333 107.5 123 140.5s107 49.5 169 49.5c73.333 0 136.166 -16.5 188.499 -49.5s92.166 -81.167 119.499 -144.5s41 -139.666 41 -228.999v-226c0 -88 -14 -163.333 -42 -226s-69 -110.5 -123 -143.5s-118.667 -49.5 -194 -49.5
c-64.667 0 -121 15.5 -169 46.5z" />
    <glyph glyph-name="uni0254" unicode="&#x254;" horiz-adv-x="1020" 
d="M221.5 27.5c-65.667 28.333 -117.831 68.498 -156.498 120.498v0l147 132v0c28.667 -35.333 62.667 -62.666 102 -81.999s80.666 -29 123.999 -29c78.667 0 139.667 23.167 183 69.5s65 112.166 65 197.499v171c0 80 -21.667 142 -65 186s-104.333 66 -183 66
c-42.667 0 -83.667 -9 -123 -27s-73.666 -43.667 -102.999 -77v0l-147 132v0c38.667 52.667 90.667 93.5 156 122.5s138.666 43.5 219.999 43.5c94.667 0 175.5 -17.5 242.5 -52.5s118.167 -85.833 153.5 -152.5s53 -147 53 -241v-171
c0 -95.333 -17.667 -176.666 -53 -243.999s-86.5 -118.666 -153.5 -153.999s-147.833 -53 -242.5 -53c-80.667 0 -153.834 14.167 -219.501 42.5z" />
    <glyph glyph-name="uni0256" unicode="&#x256;" horiz-adv-x="1117" 
d="M813.5 -350c-42.333 48 -63.501 115.667 -63.501 203v385h204v-387c0 -25.333 5.16699 -44.833 15.5 -58.5s24.833 -20.5 43.5 -20.5h114v-194h-134c-77.333 0 -137.166 24 -179.499 72zM749.999 1454h204v-1454h-204v1454zM294.499 31.5
c-53.667 33 -94.498 81.1689 -122.498 144.502s-42 139.333 -42 228v229c0 89.333 13.667 165.666 41 228.999s67.166 111.5 119.499 144.5s115.166 49.5 188.499 49.5c61.333 0 117.5 -16 168.5 -48s92.167 -77 123.5 -135l-21 -212c0 44 -8 81.667 -24 113
s-39.167 55.166 -69.5 71.499s-67.166 24.5 -110.499 24.5c-67.333 0 -119.5 -21 -156.5 -63s-55.5 -101 -55.5 -177v-226c0 -75.333 18.5 -133.5 55.5 -174.5s89.167 -61.5 156.5 -61.5c43.333 0 80.166 8.5 110.499 25.5s53.5 41.5 69.5 73.5s24 70.333 24 115l14 -219
c-20.667 -51.333 -54.5 -94.333 -101.5 -129s-104.833 -52 -173.5 -52c-76 0 -140.833 16.5 -194.5 49.5z" />
    <glyph glyph-name="uni0257" unicode="&#x257;" horiz-adv-x="1117" 
d="M750 1189c0 87.333 21.168 155 63.501 203s102.166 72 179.499 72h134v-194h-114c-18.667 0 -33.167 -6.83301 -43.5 -20.5s-15.5 -33.167 -15.5 -58.5v-1191h-204v1189zM294.501 31.5c-53.667 33 -94.498 81.1689 -122.498 144.502s-42 139.333 -42 228v229
c0 89.333 13.667 165.666 41 228.999s67.166 111.5 119.499 144.5s115.166 49.5 188.499 49.5c61.333 0 117.5 -16 168.5 -48s92.167 -77 123.5 -135l-21 -212c0 44 -8 81.667 -24 113s-39.167 55.166 -69.5 71.499s-67.166 24.5 -110.499 24.5
c-67.333 0 -119.5 -21 -156.5 -63s-55.5 -101 -55.5 -177v-226c0 -75.333 18.5 -133.5 55.5 -174.5s89.167 -61.5 156.5 -61.5c43.333 0 80.166 8.5 110.499 25.5s53.5 41.5 69.5 73.5s24 70.333 24 115l14 -219c-20.667 -51.333 -54.5 -94.333 -101.5 -129
s-104.833 -52 -173.5 -52c-76 0 -140.833 16.5 -194.5 49.5z" />
    <glyph glyph-name="uni0259" unicode="&#x259;" horiz-adv-x="1098" 
d="M309 48.5c-61.333 42.333 -108.168 103.831 -140.501 184.498s-48.5 177.334 -48.5 290.001v68h700v-164h-506v0c6 -81.333 27.833 -144.666 65.5 -189.999s88.167 -68 151.5 -68c77.333 0 137.166 24.5 179.499 73.5s63.5 118.167 63.5 207.5v132
c0 88.667 -22.667 157 -68 205s-109.666 72 -192.999 72c-41.333 0 -82.333 -8.33301 -123 -25s-77 -40 -109 -70v0l-134 134v0c51.333 49.333 109 87.5 173 114.5s128.333 40.5 193 40.5c96 0 178 -18.5 246 -55.5s119.833 -91 155.5 -162s53.5 -156.833 53.5 -257.5v-117
c0 -100.667 -17.167 -186.5 -51.5 -257.5s-84.166 -125.167 -149.499 -162.5s-144 -56 -236 -56c-86.667 0 -160.667 21.167 -222 63.5z" />
    <glyph glyph-name="uni025B" unicode="&#x25b;" horiz-adv-x="963" 
d="M226 66c-70.667 54 -105.999 130.665 -105.999 229.998v1c0 35.333 7.16699 69.833 21.5 103.5s35.166 62.334 62.499 86.001s59.333 38.5 96 44.5c-48.667 20 -86.834 53 -114.501 99s-41.5 97 -41.5 153v1c0 86 33.333 152.333 100 199s161.334 70 284.001 70
c88 0 162.833 -14 224.5 -42s110.167 -70 145.5 -126v0l-148 -121v0c-30.667 34.667 -64.5 60.5 -101.5 77.5s-77.167 25.5 -120.5 25.5c-57.333 0 -101.666 -9.66699 -132.999 -29s-47 -47 -47 -83v-1c0 -40 9.5 -71 28.5 -93s45.833 -33 80.5 -33h173v-199h-173
c-42 0 -74.667 -9.66699 -98 -29s-35 -46.666 -35 -81.999v-1c0 -46 17.833 -81.833 53.5 -107.5s85.5 -38.5 149.5 -38.5c36 0 74.5 9.83301 115.5 29.5s79.833 48.167 116.5 85.5v0l139 -137v0c-42.667 -54.667 -94.834 -95.667 -156.501 -123s-133.167 -41 -214.5 -41
c-130 0 -230.333 27 -301 81z" />
    <glyph glyph-name="uni02BB" unicode="&#x2bb;" horiz-adv-x="364" 
d="M80 1242l204 202v-406h-204v204z" />
    <glyph glyph-name="afii57929" unicode="&#x2bc;" horiz-adv-x="364" 
d="M80 1454h204v-204l-204 -202v406z" />
    <glyph glyph-name="circumflex" unicode="&#x2c6;" horiz-adv-x="808" 
d="M718 1343l-114 -105l-200 190l-200 -190l-114 105l314 304z" />
    <glyph glyph-name="caron" unicode="&#x2c7;" horiz-adv-x="808" 
d="M90 1542l114 105l200 -190l200 190l114 -105l-314 -304z" />
    <glyph glyph-name="uni02C9" unicode="&#x2c9;" horiz-adv-x="890" 
d="M810 1453v-203h-730v203h730z" />
    <glyph glyph-name="breve" unicode="&#x2d8;" horiz-adv-x="774" 
d="M154.5 1324.5c-49.667 59.667 -74.5 149.167 -74.5 268.5v0h164v0c0 -66.667 11.167 -116.5 33.5 -149.5s55.833 -49.5 100.5 -49.5h18c44.667 0 78.167 16.5 100.5 49.5s33.5 82.833 33.5 149.5v0h164v0c0 -119.333 -24.833 -208.833 -74.5 -268.5
s-124.167 -89.5 -223.5 -89.5h-18c-99.333 0 -173.833 29.833 -223.5 89.5z" />
    <glyph glyph-name="dotaccent" unicode="&#x2d9;" horiz-adv-x="504" 
d="M150 1455h204v-204h-204v204z" />
    <glyph glyph-name="ogonek" unicode="&#x2db;" horiz-adv-x="347" 
d="M82 -373.5c-41.333 31 -62 81.165 -62 150.498c0 56 22.333 106.833 67 152.5s108 84.834 190 117.501l50 -47c-47.333 -29.333 -81.833 -58.666 -103.5 -87.999s-32.5 -61.333 -32.5 -96c0 -24.667 7.16699 -42.5 21.5 -53.5s37.166 -16.5 68.499 -16.5h46v-166h-46
c-91.333 0 -157.666 15.5 -198.999 46.5z" />
    <glyph glyph-name="tilde" unicode="&#x2dc;" horiz-adv-x="854" 
d="M507.5 1259.5c-21 8.33301 -42.501 19.8291 -64.501 34.4961l-8 6c-3.33301 2.66699 -7 5.33398 -11 8.00098s-7.66699 5.33398 -11 8.00098c-26 18.667 -46.667 32.334 -62 41.001s-29.666 13 -42.999 13c-23.333 0 -40.833 -5.66699 -52.5 -17
s-17.5 -28.666 -17.5 -51.999v-51h-158v45c0 82.667 17 144.667 51 186s85 62 153 62c25.333 0 49.5 -5 72.5 -15s46.833 -24 71.5 -42l8 -6l11 -8c23.333 -17.333 42.333 -30.333 57 -39s28.667 -13 42 -13c23.333 0 40.833 6.33301 52.5 19s17.5 32 17.5 58v40h158v-34
c0 -85.333 -16.833 -149.333 -50.5 -192s-84.5 -64 -152.5 -64c-21.333 0 -42.5 4.16699 -63.5 12.5z" />
    <glyph glyph-name="hungarumlaut" unicode="&#x2dd;" horiz-adv-x="829" 
d="M436 1321l186 355l172 -107l-205 -336zM36 1321l186 355l172 -107l-205 -336z" />
    <glyph glyph-name="gravecomb" unicode="&#x300;" 
d="M-453 1574l147 122l286 -355l-128 -103z" />
    <glyph glyph-name="acutecomb" unicode="&#x301;" 
d="M-450 1341l286 355l147 -122l-305 -336z" />
    <glyph glyph-name="uni0302" unicode="&#x302;" 
d="M-10 1343l-114 -105l-200 190l-200 -190l-114 105l314 304z" />
    <glyph glyph-name="tildecomb" unicode="&#x303;" 
d="M-286.5 1259.5c-21 8.33301 -42.501 19.8291 -64.501 34.4961l-8 6c-3.33301 2.66699 -7 5.33398 -11 8.00098s-7.66699 5.33398 -11 8.00098c-26 18.667 -46.667 32.334 -62 41.001s-29.666 13 -42.999 13c-23.333 0 -40.833 -5.66699 -52.5 -17
s-17.5 -28.666 -17.5 -51.999v-51h-158v45c0 82.667 17 144.667 51 186s85 62 153 62c25.333 0 49.5 -5 72.5 -15s46.833 -24 71.5 -42l8 -6l11 -8c23.333 -17.333 42.333 -30.333 57 -39s28.667 -13 42 -13c23.333 0 40.833 6.33301 52.5 19s17.5 32 17.5 58v40h158v-34
c0 -85.333 -16.833 -149.333 -50.5 -192s-84.5 -64 -152.5 -64c-21.333 0 -42.5 4.16699 -63.5 12.5z" />
    <glyph glyph-name="uni0304" unicode="&#x304;" 
d="M-50 1453v-203h-730v203h730z" />
    <glyph glyph-name="uni0306" unicode="&#x306;" 
d="M-599.5 1324.5c-49.667 59.667 -74.5 149.167 -74.5 268.5v0h164v0c0 -66.667 11.167 -116.5 33.5 -149.5s55.833 -49.5 100.5 -49.5h18c44.667 0 78.167 16.5 100.5 49.5s33.5 82.833 33.5 149.5v0h164v0c0 -119.333 -24.833 -208.833 -74.5 -268.5
s-124.167 -89.5 -223.5 -89.5h-18c-99.333 0 -173.833 29.833 -223.5 89.5z" />
    <glyph glyph-name="uni0307" unicode="&#x307;" 
d="M-214 1455h204v-204h-204v204z" />
    <glyph glyph-name="uni0308" unicode="&#x308;" 
d="M-249 1454h204v-204h-204v204zM-669 1454h204v-204h-204v204z" />
    <glyph glyph-name="hookabovecomb" unicode="&#x309;" 
d="M-109 1609.5c39.333 -29 59 -73.167 59 -132.5c0 -102.667 -71.667 -154 -215 -154l-87 76c84 0 126 18 126 54c0 37.333 -29.667 56 -89 56c-37.333 0 -75.666 -4.66699 -114.999 -14l-22 140c43.333 12 98.333 18 165 18c79.333 0 138.666 -14.5 177.999 -43.5z
M-368 1399l166 -8v-141h-166v149z" />
    <glyph glyph-name="uni030A" unicode="&#x30a;" 
d="M-476.5 1301c-42.333 40 -63.5 97 -63.5 171c0 77.333 21.167 136.833 63.5 178.5s102.833 62.5 181.5 62.5c78 0 138.333 -21.167 181 -63.5s64 -101.5 64 -177.5c0 -74 -21.333 -131 -64 -171s-103 -60 -181 -60c-78.667 0 -139.167 20 -181.5 60zM-219 1399
c18 18.667 27 44.334 27 77.001c0 34 -9 60.5 -27 79.5s-43.333 28.5 -76 28.5s-58 -9.5 -76 -28.5s-27 -45.5 -27 -79.5c0 -32.667 9 -58.334 27 -77.001s43.333 -28 76 -28s58 9.33301 76 28z" />
    <glyph glyph-name="uni030B" unicode="&#x30b;" 
d="M-368 1321l186 355l172 -107l-205 -336zM-768 1321l186 355l172 -107l-205 -336z" />
    <glyph glyph-name="uni030C" unicode="&#x30c;" 
d="M-668 1542l114 105l200 -190l200 190l114 -105l-314 -304z" />
    <glyph glyph-name="uni031B" unicode="&#x31b;" 
d="M-488 894l-0.000976562 144h160c40.667 0 72.334 12.167 95.001 36.5s34 58.5 34 102.5v74h199v-94c-0 -83.333 -25.667 -148 -77 -194s-124 -69 -218 -69h-193z" />
    <glyph glyph-name="dotbelowcomb" unicode="&#x323;" 
d="M-254 -180h204v-204h-204v204z" />
    <glyph glyph-name="uni0326" unicode="&#x326;" 
d="M-214 -148h204v-154l-204 -202v356z" />
    <glyph glyph-name="uni0327" unicode="&#x327;" 
d="M-443 -404l42 140.001c32 -9.33301 63.667 -14 95 -14c36.667 0 64 4.16699 82 12.5s27 21.166 27 38.499c0 16.667 -12 29 -36 37s-60.667 12 -110 12l87 116c78.667 0 137.5 -14.833 176.5 -44.5s58.5 -74.5 58.5 -134.5c0 -60.667 -21.333 -106 -64 -136
s-107 -45 -193 -45c-66.667 0 -121.667 6 -165 18zM-359 91.001h166v-269h-166v269z" />
    <glyph glyph-name="uni0328" unicode="&#x328;" 
d="M-255 -373.5c-41.333 31 -62 81.165 -62 150.498c0 56 22.333 106.833 67 152.5s108 84.834 190 117.501l50 -47c-47.333 -29.333 -81.833 -58.666 -103.5 -87.999s-32.5 -61.333 -32.5 -96c0 -24.667 7.16699 -42.5 21.5 -53.5s37.166 -16.5 68.499 -16.5h46v-166h-46
c-91.333 0 -157.666 15.5 -198.999 46.5z" />
    <glyph glyph-name="uni0335" unicode="&#x335;" 
d="M-50 824v-194h-670v194h670z" />
    <glyph glyph-name="uni0345" unicode="&#x345;" 
d="M-216 -169c0 -25.333 5.5 -44.833 16.5 -58.5s26.5 -20.5 46.5 -20.5h96v-174h-140c-64.667 0 -114.667 20.5 -150 61.5s-53 98.833 -53 173.5v108h184v-90z" />
    <glyph glyph-name="uni0370" unicode="&#x370;" horiz-adv-x="1156" 
d="M180 1454h204v-1454h-204v1454zM307 813h699v-194h-699v194z" />
    <glyph glyph-name="uni0371" unicode="&#x371;" horiz-adv-x="756" 
d="M160 1038h204v-1038h-204v1038zM287 602h379v-184h-379v184z" />
    <glyph glyph-name="uni0372" unicode="&#x372;" horiz-adv-x="1106" 
d="M20 1454h204v-496h-204v496zM842 1454h204v-496h-204v496zM431 1335h204v-1335h-204v1335zM20 1454h1026v-194h-1026v194z" />
    <glyph glyph-name="uni0373" unicode="&#x373;" horiz-adv-x="946" 
d="M0 1454h204v-436h-204v436zM702 1454h204v-436h-204v436zM351 1335h204v-1335h-204v1335zM0 1454h906v-184h-906v184z" />
    <glyph glyph-name="uni0374" unicode="&#x374;" horiz-adv-x="364" 
d="M80 1252l204 202v-406h-204v204z" />
    <glyph glyph-name="uni0375" unicode="&#x375;" horiz-adv-x="464" 
d="M130 2l204 202v-406h-204v204z" />
    <glyph glyph-name="uni0376" unicode="&#x376;" horiz-adv-x="1434" 
d="M1052 1v1143l24 -26l-729 -1117h-167v1453h202v-1160l-24 26l731 1134h165v-1453h-202z" />
    <glyph glyph-name="uni0377" unicode="&#x377;" horiz-adv-x="1174" 
d="M812 1v737l24 -26l-499 -711h-177v1037h202v-754l-24 26l501 728h175v-1037h-202z" />
    <glyph glyph-name="uni037A" unicode="&#x37a;" horiz-adv-x="353" 
d="M244 -169c0 -25.333 5.5 -44.833 16.5 -58.5s26.5 -20.5 46.5 -20.5h96v-174h-140c-64.667 0 -114.667 20.5 -150 61.5s-53 98.833 -53 173.5v108h184v-90z" />
    <glyph glyph-name="uni037B" unicode="&#x37b;" horiz-adv-x="1020" 
d="M221.5 27.5c-65.667 28.333 -117.831 68.498 -156.498 120.498v0l147 132v0c28.667 -35.333 62.667 -62.666 102 -81.999s80.666 -29 123.999 -29c78.667 0 139.667 23.167 183 69.5s65 112.166 65 197.499v171c0 80 -21.667 142 -65 186s-104.333 66 -183 66
c-42.667 0 -83.667 -9 -123 -27s-73.666 -43.667 -102.999 -77v0l-147 132v0c38.667 52.667 90.667 93.5 156 122.5s138.666 43.5 219.999 43.5c94.667 0 175.5 -17.5 242.5 -52.5s118.167 -85.833 153.5 -152.5s53 -147 53 -241v-171
c0 -95.333 -17.667 -176.666 -53 -243.999s-86.5 -118.666 -153.5 -153.999s-147.833 -53 -242.5 -53c-80.667 0 -153.834 14.167 -219.501 42.5z" />
    <glyph glyph-name="uni037C" unicode="&#x37c;" horiz-adv-x="1020" 
d="M336.5 38c-67 35.333 -118.167 86.6689 -153.5 154.002s-53 148.666 -53 243.999v171c0 94 17.667 174.333 53 241s86.5 117.5 153.5 152.5s147.833 52.5 242.5 52.5c54 0 104.833 -6.5 152.5 -19.5s90.5 -31.833 128.5 -56.5s69.667 -54.667 95 -90v0l-147 -132v0
c-29.333 33.333 -63.666 59 -102.999 77s-80.333 27 -123 27c-78.667 0 -139.667 -22 -183 -66s-65 -106 -65 -186v-171c0 -82 21.5 -145.333 64.5 -190s104.167 -67 183.5 -67c43.333 0 84.666 9.66699 123.999 29s73.333 46.666 102 81.999v0l147 -142v0
c-26 -34.667 -58 -64.167 -96 -88.5s-80.833 -42.833 -128.5 -55.5s-98.167 -19 -151.5 -19c-94.667 0 -175.5 17.667 -242.5 53zM492 617.003h204v-204h-204v204z" />
    <glyph glyph-name="uni037D" unicode="&#x37d;" horiz-adv-x="1020" 
d="M221.5 27.5c-65.667 28.333 -117.831 68.498 -156.498 120.498v0l147 132v0c28.667 -35.333 62.667 -62.666 102 -81.999s80.666 -29 123.999 -29c78.667 0 139.667 23.167 183 69.5s65 112.166 65 197.499v171c0 80 -21.667 142 -65 186s-104.333 66 -183 66
c-42.667 0 -83.667 -9 -123 -27s-73.666 -43.667 -102.999 -77v0l-147 132v0c38.667 52.667 90.667 93.5 156 122.5s138.666 43.5 219.999 43.5c94.667 0 175.5 -17.5 242.5 -52.5s118.167 -85.833 153.5 -152.5s53 -147 53 -241v-171
c0 -95.333 -17.667 -176.666 -53 -243.999s-86.5 -118.666 -153.5 -153.999s-147.833 -53 -242.5 -53c-80.667 0 -153.834 14.167 -219.501 42.5zM324.003 616.998h204v-204h-204v204z" />
    <glyph glyph-name="uni037E" unicode="&#x37e;" horiz-adv-x="464" 
d="M130 204h204v-204l-204 -202v406zM130 1038h204v-204h-204v204z" />
    <glyph glyph-name="uni037F" unicode="&#x37f;" horiz-adv-x="1035" 
d="M188 32c-64.667 31.333 -117.333 75.333 -158 132l167 120c18.667 -32.667 45.667 -58 81 -76s76.333 -27 123 -27c79.333 0 140.833 24.667 184.5 74s65.5 118.666 65.5 207.999v991h204v-992c0 -100.667 -17.667 -186.667 -53 -258s-87 -125.666 -155 -162.999
s-150 -56 -246 -56c-77.333 0 -148.333 15.667 -213 47z" />
    <glyph glyph-name="tonos" unicode="&#x384;" horiz-adv-x="498" 
d="M85.5957 1274.08l147.316 431.355l179.839 -64.3564l-171.665 -420.002z" />
    <glyph glyph-name="dieresistonos" unicode="&#x385;" horiz-adv-x="944" 
d="M655 1455h204v-204h-204v204zM85 1455h204v-204h-204v204zM345 1274l148 432l180 -65l-172 -420z" />
    <glyph glyph-name="Alphatonos" unicode="&#x386;" horiz-adv-x="1404" 
d="M654 1454h174l536 -1454h-220l-403 1173l-403 -1173h-220zM365 513h765v-194h-765v194zM40.5957 1039.08l147.316 431.355l179.839 -64.3564l-171.665 -420.002z" />
    <glyph glyph-name="anoteleia" unicode="&#x387;" horiz-adv-x="464" 
d="M130 1038h204v-204h-204v204z" />
    <glyph glyph-name="Epsilontonos" unicode="&#x388;" horiz-adv-x="1432" 
d="M388 1454h204v-1454h-204v1454zM487 194h835v-194h-835v194zM487 819h725v-194h-725v194zM487 1454h835v-194h-835v194zM-39.4043 1039.08l147.316 431.355l179.839 -64.3564l-171.665 -420.002z" />
    <glyph glyph-name="Etatonos" unicode="&#x389;" horiz-adv-x="1608" 
d="M1224 1454h204v-1454h-204v1454zM398 1454h204v-1454h-204v1454zM525 813h807v-194h-807v194zM-39.4043 1039.08l147.316 431.355l179.839 -64.3564l-171.665 -420.002z" />
    <glyph glyph-name="Iotatonos" unicode="&#x38a;" horiz-adv-x="762" 
d="M582 0h-204v1454h204v-1454zM-39.4043 1039.08l147.316 431.355l179.839 -64.3564l-171.665 -420.002z" />
    <glyph glyph-name="Omicrontonos" unicode="&#x38c;" horiz-adv-x="1518" 
d="M589 51.5c-77.333 44.333 -137.166 107 -179.499 188s-63.5 174.833 -63.5 281.5v412c0 106.667 21.167 200.5 63.5 281.5s102.166 143.667 179.499 188s166.666 66.5 267.999 66.5s190.666 -22.167 267.999 -66.5s137.166 -107 179.499 -188s63.5 -174.833 63.5 -281.5
v-412c0 -106.667 -21.167 -200.5 -63.5 -281.5s-102.166 -143.667 -179.499 -188s-166.666 -66.5 -267.999 -66.5s-190.666 22.167 -267.999 66.5zM1015.5 226.5c45.667 27 81 65.333 106 115s37.5 107.167 37.5 172.5v426c0 65.333 -12.5 122.833 -37.5 172.5
s-60.333 88 -106 115s-98.5 40.5 -158.5 40.5s-112.833 -13.5 -158.5 -40.5s-81 -65.333 -106 -115s-37.5 -107.167 -37.5 -172.5v-426c0 -65.333 12.5 -122.833 37.5 -172.5s60.333 -88 106 -115s98.5 -40.5 158.5 -40.5s112.833 13.5 158.5 40.5zM-29.4043 1039.08
l147.316 431.355l179.839 -64.3564l-171.665 -420.002z" />
    <glyph glyph-name="Upsilontonos" unicode="&#x38e;" horiz-adv-x="1478" 
d="M1065 591v-591h-204v591l-443 863h227l318 -656l318 656h227zM40.5957 1039.08l147.316 431.355l179.839 -64.3564l-171.665 -420.002z" />
    <glyph glyph-name="Omegatonos" unicode="&#x38f;" horiz-adv-x="1590" 
d="M627 148c-66.667 35.333 -118.163 85.166 -154.496 149.499s-54.5 138.833 -54.5 223.5v412c0 106.667 21.167 200.5 63.5 281.5s102.166 143.667 179.499 188s166.666 66.5 267.999 66.5s190.666 -22.167 267.999 -66.5s137.166 -107 179.499 -188
s63.5 -174.833 63.5 -281.5v-412c0 -84.667 -18.167 -159.167 -54.5 -223.5s-87.833 -114.166 -154.5 -149.499s-144 -53 -232 -53v100c46 0 86.5 13.167 121.5 39.5s62.167 63.5 81.5 111.5s29 104 29 168v426c0 65.333 -12.5 122.833 -37.5 172.5s-60.333 88 -106 115
s-98.5 40.5 -158.5 40.5s-112.833 -13.5 -158.5 -40.5s-81 -65.333 -106 -115s-37.5 -107.167 -37.5 -172.5v-426c0 -64 9.66699 -120 29 -168s46.5 -85.167 81.5 -111.5s75.5 -39.5 121.5 -39.5v-100c-88 0 -165.333 17.667 -232 53zM418.004 194h441v-194h-441v194z
M999.004 194h441v-194h-441v194zM40.5996 1039.08l147.316 431.355l179.839 -64.3564l-171.665 -420.002z" />
    <glyph glyph-name="iotadieresistonos" unicode="&#x390;" horiz-adv-x="594" 
d="M223.5 67c-42.333 48 -63.501 115.667 -63.501 203v768h204v-770c0 -25.333 5.5 -44.833 16.5 -58.5s26.5 -20.5 46.5 -20.5h96v-194h-120c-77.333 0 -137.166 24 -179.499 72zM444.999 1455h204v-204h-204v204zM-125.001 1455h204v-204h-204v204zM134.999 1274l148 432
l180 -65l-172 -420z" />
    <glyph glyph-name="Alpha" unicode="&#x391;" horiz-adv-x="1326" 
d="M576 1454h174l536 -1454h-220l-403 1173l-403 -1173h-220zM287 513h765v-194h-765v194z" />
    <glyph glyph-name="Beta" unicode="&#x392;" horiz-adv-x="1322" 
d="M300 189l394.003 0.00195312c103.333 0 178.666 19.667 225.999 59s71 94.666 71 165.999v3c0 49.333 -8.5 91.666 -25.5 126.999s-43.833 62.5 -80.5 81.5s-83.667 28.5 -141 28.5h-444v184h444c75.333 0 132.166 17.667 170.499 53s57.5 87.666 57.5 156.999v0
c0 72.667 -21.333 127 -64 163s-106.667 54 -192 54h-416v189h453c94 0 172.667 -16 236 -48s110.666 -77.333 141.999 -136s47 -128.667 47 -210v0c0 -50 -9.66699 -96.833 -29 -140.5s-48.833 -81 -88.5 -112s-88.834 -51.833 -147.501 -62.5
c58.667 -8.66699 109.334 -29.5 152.001 -62.5s75.334 -74.167 98.001 -123.5s34 -102.666 34 -159.999v-3c0 -78.667 -17.333 -148 -52 -208s-84.334 -106.333 -149.001 -139s-140 -49 -226 -49h-470v189zM180.003 1454h203v-1454h-203v1454z" />
    <glyph glyph-name="Gamma" unicode="&#x393;" horiz-adv-x="975" 
d="M180 1454h204v-1454h-204v1454zM280 1454h715v-194h-715v194z" />
    <glyph glyph-name="Delta" unicode="&#x394;" horiz-adv-x="1326" 
d="M576 1454h174l536 -1454h-220l-403 1173l-403 -1173h-220zM187 194h935v-194h-935v194z" />
    <glyph glyph-name="Epsilon" unicode="&#x395;" horiz-adv-x="1224" 
d="M180 1454h204v-1454h-204v1454zM279 194h835v-194h-835v194zM279 819h725v-194h-725v194zM279 1454h835v-194h-835v194z" />
    <glyph glyph-name="Zeta" unicode="&#x396;" horiz-adv-x="1114" 
d="M1004 1278l-633 -1084h653v-194h-904v176l638 1084h-620v194h866v-176z" />
    <glyph glyph-name="Eta" unicode="&#x397;" horiz-adv-x="1390" 
d="M1006 1454h204v-1454h-204v1454zM180 1454h204v-1454h-204v1454zM307 813h807v-194h-807v194z" />
    <glyph glyph-name="Theta" unicode="&#x398;" horiz-adv-x="1322" 
d="M479 819h364v-194h-364v194zM393 51.5c-77.333 44.333 -137.166 107 -179.499 188s-63.5 174.833 -63.5 281.5v412c0 106.667 21.167 200.5 63.5 281.5s102.166 143.667 179.499 188s166.666 66.5 267.999 66.5s190.666 -22.167 267.999 -66.5s137.166 -107 179.499 -188
s63.5 -174.833 63.5 -281.5v-412c0 -106.667 -21.167 -200.5 -63.5 -281.5s-102.166 -143.667 -179.499 -188s-166.666 -66.5 -267.999 -66.5s-190.666 22.167 -267.999 66.5zM819.5 226.5c45.667 27 81 65.333 106 115s37.5 107.167 37.5 172.5v426
c0 65.333 -12.5 122.833 -37.5 172.5s-60.333 88 -106 115s-98.5 40.5 -158.5 40.5s-112.833 -13.5 -158.5 -40.5s-81 -65.333 -106 -115s-37.5 -107.167 -37.5 -172.5v-426c0 -65.333 12.5 -122.833 37.5 -172.5s60.333 -88 106 -115s98.5 -40.5 158.5 -40.5
s112.833 13.5 158.5 40.5z" />
    <glyph glyph-name="Iota" unicode="&#x399;" horiz-adv-x="564" 
d="M384 0h-204v1454h204v-1454z" />
    <glyph glyph-name="Kappa" unicode="&#x39a;" horiz-adv-x="1314" 
d="M340 638l642 816h251l-923 -1122zM180 1454h204v-1454h-204v1454zM582 776l161 149l551 -925h-250z" />
    <glyph glyph-name="Lambda" unicode="&#x39b;" horiz-adv-x="1326" 
d="M576 1454h174l536 -1454h-220l-403 1173l-403 -1173h-220z" />
    <glyph glyph-name="Mu" unicode="&#x39c;" horiz-adv-x="1596" 
d="M1225 1454h191v-1454h-199v1089l10 -64l-358 -823h-142l-358 803l10 84v-1089h-199v1454h191l427 -960z" />
    <glyph glyph-name="Nu" unicode="&#x39d;" horiz-adv-x="1434" 
d="M180 1454h185l711 -1124l-24 -26v1150h202v-1453h-187l-709 1107l24 26v-1133h-202v1453z" />
    <glyph glyph-name="Xi" unicode="&#x39e;" horiz-adv-x="1370" 
d="M170 194h1030v-194h-1030v194zM260 819h850v-194h-850v194zM170 1454h1030v-194h-1030v194z" />
    <glyph glyph-name="Omicron" unicode="&#x39f;" horiz-adv-x="1322" 
d="M393 51.5c-77.333 44.333 -137.166 107 -179.499 188s-63.5 174.833 -63.5 281.5v412c0 106.667 21.167 200.5 63.5 281.5s102.166 143.667 179.499 188s166.666 66.5 267.999 66.5s190.666 -22.167 267.999 -66.5s137.166 -107 179.499 -188s63.5 -174.833 63.5 -281.5
v-412c0 -106.667 -21.167 -200.5 -63.5 -281.5s-102.166 -143.667 -179.499 -188s-166.666 -66.5 -267.999 -66.5s-190.666 22.167 -267.999 66.5zM819.5 226.5c45.667 27 81 65.333 106 115s37.5 107.167 37.5 172.5v426c0 65.333 -12.5 122.833 -37.5 172.5
s-60.333 88 -106 115s-98.5 40.5 -158.5 40.5s-112.833 -13.5 -158.5 -40.5s-81 -65.333 -106 -115s-37.5 -107.167 -37.5 -172.5v-426c0 -65.333 12.5 -122.833 37.5 -172.5s60.333 -88 106 -115s98.5 -40.5 158.5 -40.5s112.833 13.5 158.5 40.5z" />
    <glyph glyph-name="Pi" unicode="&#x3a0;" horiz-adv-x="1390" 
d="M1006 1454h204v-1454h-204v1454zM180 1454h204v-1454h-204v1454zM307 1454h807v-194h-807v194z" />
    <glyph glyph-name="Rho" unicode="&#x3a1;" horiz-adv-x="1275" 
d="M285 758h465c44 0 82.667 10.333 116 31s59.166 50 77.499 88s27.5 81.667 27.5 131v0c0 50 -9.16699 94 -27.5 132s-44.166 67.5 -77.499 88.5s-72 31.5 -116 31.5h-465v194h458c86.667 0 163 -18.5 229 -55.5s117.167 -89.167 153.5 -156.5s54.5 -145.333 54.5 -234v0
c0 -88.667 -18.167 -166.5 -54.5 -233.5s-87.5 -118.833 -153.5 -155.5s-142.333 -55 -229 -55h-458v194zM180 1454h204v-1454h-204v1454z" />
    <glyph glyph-name="Sigma" unicode="&#x3a3;" horiz-adv-x="936" 
d="M876 1260h-560l386 -533l-386 -533h560v-194h-816v176l398 551l-398 551v176h816v-194z" />
    <glyph glyph-name="Tau" unicode="&#x3a4;" horiz-adv-x="986" 
d="M391 1335h204v-1335h-204v1335zM-20 1454h1026v-194h-1026v194z" />
    <glyph glyph-name="Upsilon" unicode="&#x3a5;" horiz-adv-x="1030" 
d="M617 591v-591h-204v591l-443 863h227l318 -656l318 656h227z" />
    <glyph glyph-name="Phi" unicode="&#x3a6;" horiz-adv-x="1622" 
d="M420.5 221.5c-107.667 44.333 -189.667 109.666 -246 195.999s-84.5 191.166 -84.5 314.499v40c0 123.333 28.167 228.166 84.5 314.499s138.333 151.666 246 195.999s237.834 66.5 390.501 66.5s282.834 -22.167 390.501 -66.5s189.667 -109.666 246 -195.999
s84.5 -191.166 84.5 -314.499v-40c0 -123.333 -28.167 -228.166 -84.5 -314.499s-138.333 -151.666 -246 -195.999s-237.834 -66.5 -390.501 -66.5s-282.834 22.167 -390.501 66.5zM709 1504h204v-1504h-204v1504zM1200.5 437.5c91.667 67.667 137.5 165.834 137.5 294.501
v40c0 128.667 -45.833 226.834 -137.5 294.501s-221.5 101.5 -389.5 101.5s-297.833 -33.833 -389.5 -101.5s-137.5 -165.834 -137.5 -294.501v-40c0 -128.667 45.833 -226.834 137.5 -294.501s221.5 -101.5 389.5 -101.5s297.833 33.833 389.5 101.5z" />
    <glyph glyph-name="Chi" unicode="&#x3a7;" horiz-adv-x="1162" 
d="M535 639l-31 50l-472 765h229l351 -592l33 -54l497 -808h-229zM526 831l365 623h229l-481 -787l-390 -667h-229z" />
    <glyph glyph-name="Psi" unicode="&#x3a8;" horiz-adv-x="1462" 
d="M422 403.5c-85.333 45.667 -150.333 111.834 -195 198.501s-67 191.334 -67 314.001v538h204v-545c0 -78.667 14.333 -145.834 43 -201.501s70.334 -98.167 125.001 -127.5s120.667 -44 198 -44s143.666 14.667 198.999 44s97.333 71.833 126 127.5
s43 122.834 43 201.501v545h204v-538c0 -122.667 -22.5 -227.334 -67.5 -314.001s-110.167 -152.834 -195.5 -198.501s-188.333 -68.5 -309 -68.5c-120 0 -222.667 22.833 -308 68.5zM629 1454h204v-1454h-204v1454z" />
    <glyph glyph-name="Omega" unicode="&#x3a9;" horiz-adv-x="1322" 
d="M359 148c-66.667 35.333 -118.163 85.166 -154.496 149.499s-54.5 138.833 -54.5 223.5v412c0 106.667 21.167 200.5 63.5 281.5s102.166 143.667 179.499 188s166.666 66.5 267.999 66.5s190.666 -22.167 267.999 -66.5s137.166 -107 179.499 -188
s63.5 -174.833 63.5 -281.5v-412c0 -84.667 -18.167 -159.167 -54.5 -223.5s-87.833 -114.166 -154.5 -149.499s-144 -53 -232 -53v100c46 0 86.5 13.167 121.5 39.5s62.167 63.5 81.5 111.5s29 104 29 168v426c0 65.333 -12.5 122.833 -37.5 172.5s-60.333 88 -106 115
s-98.5 40.5 -158.5 40.5s-112.833 -13.5 -158.5 -40.5s-81 -65.333 -106 -115s-37.5 -107.167 -37.5 -172.5v-426c0 -64 9.66699 -120 29 -168s46.5 -85.167 81.5 -111.5s75.5 -39.5 121.5 -39.5v-100c-88 0 -165.333 17.667 -232 53zM150.004 194h441v-194h-441v194z
M731.004 194h441v-194h-441v194z" />
    <glyph glyph-name="Iotadieresis" unicode="&#x3aa;" horiz-adv-x="564" 
d="M384 0h-204v1454h204v-1454zM385 1777h204v-204h-204v204zM-25 1777h204v-204h-204v204z" />
    <glyph glyph-name="Upsilondieresis" unicode="&#x3ab;" horiz-adv-x="1030" 
d="M617 591v-591h-204v591l-443 863h227l318 -656l318 656h227zM618 1777h204v-204h-204v204zM208 1777h204v-204h-204v204z" />
    <glyph glyph-name="alphatonos" unicode="&#x3ac;" horiz-adv-x="1170" 
d="M294.5 38c-53.667 35.333 -94.5 86.833 -122.5 154.5s-42 149.167 -42 244.5v169c0 94 14 174.5 42 241.5s68.833 118 122.5 153s118.167 52.5 193.5 52.5c92.667 0 164.5 -30.333 215.5 -91s76.5 -146 76.5 -256v-372c0 -110.667 -25.5 -196.5 -76.5 -257.5
s-122.833 -91.5 -215.5 -91.5c-75.333 0 -139.833 17.667 -193.5 53zM679 246c38 44.667 57 107.332 57 187.999v172c0 80.667 -19 143 -57 187s-91.667 66 -161 66c-58.667 0 -104 -22 -136 -66s-48 -106.333 -48 -187v-172c0 -81.333 16 -144.166 48 -188.499
s77.333 -66.5 136 -66.5c69.333 0 123 22.333 161 67zM799.5 66.998c-42.333 48 -63.501 115.667 -63.501 203v768h204v-770c0 -25.333 5.5 -44.833 16.5 -58.5s26.5 -20.5 46.5 -20.5h96v-194h-120c-77.333 0 -137.166 24 -179.499 72zM469.595 1274.08l147.316 431.355
l179.839 -64.3564l-171.665 -420.002z" />
    <glyph glyph-name="epsilontonos" unicode="&#x3ad;" horiz-adv-x="963" 
d="M226 66c-70.667 54 -105.999 130.665 -105.999 229.998v1c0 35.333 7.16699 69.833 21.5 103.5s35.166 62.334 62.499 86.001s59.333 38.5 96 44.5c-48.667 20 -86.834 53 -114.501 99s-41.5 97 -41.5 153v1c0 86 33.333 152.333 100 199s161.334 70 284.001 70
c88 0 162.833 -14 224.5 -42s110.167 -70 145.5 -126v0l-148 -121v0c-30.667 34.667 -64.5 60.5 -101.5 77.5s-77.167 25.5 -120.5 25.5c-57.333 0 -101.666 -9.66699 -132.999 -29s-47 -47 -47 -83v-1c0 -40 9.5 -71 28.5 -93s45.833 -33 80.5 -33h173v-199h-173
c-42 0 -74.667 -9.66699 -98 -29s-35 -46.666 -35 -81.999v-1c0 -46 17.833 -81.833 53.5 -107.5s85.5 -38.5 149.5 -38.5c36 0 74.5 9.83301 115.5 29.5s79.833 48.167 116.5 85.5v0l139 -137v0c-42.667 -54.667 -94.834 -95.667 -156.501 -123s-133.167 -41 -214.5 -41
c-130 0 -230.333 27 -301 81zM422.597 1274.08l147.316 431.355l179.839 -64.3564l-171.665 -420.002z" />
    <glyph glyph-name="etatonos" unicode="&#x3ae;" horiz-adv-x="1144" 
d="M160 1038h204v-1038h-204v1038zM790 629c0 73.333 -19.002 130.001 -57.002 170.001s-91.333 60 -160 60c-66.667 0 -118.167 -17.667 -154.5 -53s-54.5 -85 -54.5 -149l-21 200c32 62.667 73.833 111 125.5 145s108.834 51 171.501 51
c112.667 0 199.834 -36.833 261.501 -110.5s92.5 -177.834 92.5 -312.501v-901h-204v900zM503.594 1274.08l147.316 431.355l179.839 -64.3564l-171.665 -420.002z" />
    <glyph glyph-name="iotatonos" unicode="&#x3af;" horiz-adv-x="594" 
d="M223.5 67c-42.333 48 -63.501 115.667 -63.501 203v768h204v-770c0 -25.333 5.5 -44.833 16.5 -58.5s26.5 -20.5 46.5 -20.5h96v-194h-120c-77.333 0 -137.166 24 -179.499 72zM188.595 1274.08l147.316 431.355l179.839 -64.3564l-171.665 -420.002z" />
    <glyph glyph-name="upsilondieresistonos" unicode="&#x3b0;" horiz-adv-x="1149" 
d="M367 34.5c-61.333 33 -107.999 81.167 -139.999 144.5s-48 139.333 -48 228v372c0 25.333 -5.5 44.833 -16.5 58.5s-26.5 20.5 -46.5 20.5h-56v194h80c77.333 0 137.166 -24 179.499 -72s63.5 -115.667 63.5 -203v-370c0 -72.667 18 -128.834 54 -168.501
s86.667 -59.5 152 -59.5s116 19.833 152 59.5s54 95.834 54 168.501v631h204v-631c0 -88.667 -16 -164.667 -48 -228s-78.667 -111.5 -140 -144.5s-135.333 -49.5 -222 -49.5s-160.667 16.5 -222 49.5zM753.001 1455h204v-204h-204v204zM183.001 1455h204v-204h-204v204z
M443.001 1274l148 432l180 -65l-172 -420z" />
    <glyph glyph-name="alpha" unicode="&#x3b1;" horiz-adv-x="1170" 
d="M294.5 38c-53.667 35.333 -94.5 86.833 -122.5 154.5s-42 149.167 -42 244.5v169c0 94 14 174.5 42 241.5s68.833 118 122.5 153s118.167 52.5 193.5 52.5c92.667 0 164.5 -30.333 215.5 -91s76.5 -146 76.5 -256v-372c0 -110.667 -25.5 -196.5 -76.5 -257.5
s-122.833 -91.5 -215.5 -91.5c-75.333 0 -139.833 17.667 -193.5 53zM679 246c38 44.667 57 107.332 57 187.999v172c0 80.667 -19 143 -57 187s-91.667 66 -161 66c-58.667 0 -104 -22 -136 -66s-48 -106.333 -48 -187v-172c0 -81.333 16 -144.166 48 -188.499
s77.333 -66.5 136 -66.5c69.333 0 123 22.333 161 67zM799.5 66.998c-42.333 48 -63.501 115.667 -63.501 203v768h204v-770c0 -25.333 5.5 -44.833 16.5 -58.5s26.5 -20.5 46.5 -20.5h96v-194h-120c-77.333 0 -137.166 24 -179.499 72z" />
    <glyph glyph-name="beta" unicode="&#x3b2;" horiz-adv-x="1114" 
d="M473.5 17c-47 21.333 -84.8359 55.333 -113.503 102s-46.667 107.667 -54 183l58 60c0 -37.333 10 -69.666 30 -96.999s47.333 -48.166 82 -62.499s73.334 -21.5 116.001 -21.5c64.667 0 114.667 18 150 54s53 86.667 53 152v44c0 72.667 -16.833 128.834 -50.5 168.501
s-81.167 59.5 -142.5 59.5h-93v194h93c54 0 95.667 17 125 51s44 82 44 144v45c0 57.333 -16.5 101.666 -49.5 132.999s-79.833 47 -140.5 47c-68.667 0 -122 -21 -160 -63s-57 -101.333 -57 -178v0h-204v0c0 92 16.5 170.667 49.5 236s81 115.166 144 149.499
s138.833 51.5 227.5 51.5c84.667 0 157.334 -14.833 218.001 -44.5s106.834 -72.834 138.501 -129.501s47.5 -124.667 47.5 -204v-24c0 -72.667 -19.667 -136 -59 -190s-95 -93.333 -167 -118c79.333 -17.333 140.833 -56.333 184.5 -117s65.5 -138 65.5 -232v-24
c0 -127.333 -32 -226 -96 -296s-154.333 -105 -271 -105c-65.333 0 -121.5 10.667 -168.5 32zM159.997 1032h204v-1454h-204v1454z" />
    <glyph glyph-name="gamma" unicode="&#x3b3;" horiz-adv-x="1061" 
d="M452 12c0 14.667 -0.999023 29 -2.99902 43s-5.33301 27.667 -10 41c-0.666992 2.66699 -1.33398 5.16699 -2.00098 7.5s-1.66699 4.83301 -3 7.5l-251 669c-10 26.667 -22.333 46.5 -37 59.5s-32 19.5 -52 19.5h-44v194h94c50.667 0 95.167 -22.5 133.5 -67.5
s74.5 -114.167 108.5 -207.5l247 -680l23 36v-556h-204v434zM487.001 71l321 967h213l-385 -1077z" />
    <glyph glyph-name="delta" unicode="&#x3b4;" horiz-adv-x="1116" 
d="M327 38c-64 35.333 -112.832 86.834 -146.499 154.501s-50.5 149.167 -50.5 244.5v169c0 77.333 14.833 145.5 44.5 204.5s73.167 106.167 130.5 141.5s126.666 56.666 207.999 63.999l21 -27l-324 274v86l257 -62l262 -210c58.667 -46.667 107 -92.834 145 -138.501
s66.167 -91.167 84.5 -136.5s27.5 -90.666 27.5 -135.999v-232c0 -94.667 -16.833 -175.5 -50.5 -242.5s-82.5 -118.167 -146.5 -153.5s-141 -53 -231 -53s-167 17.667 -231 53zM723.501 246.001c39 44.667 58.5 107.334 58.5 188.001v212c0 80.667 -19.5 143 -58.5 187
s-94.167 66 -165.5 66s-126.5 -22 -165.5 -66s-58.5 -106.333 -58.5 -187v-212c0 -80.667 19.5 -143.334 58.5 -188.001s94.167 -67 165.5 -67s126.5 22.333 165.5 67zM210.001 1454h716v-185h-716v185z" />
    <glyph glyph-name="epsilon" unicode="&#x3b5;" horiz-adv-x="963" 
d="M226 66c-70.667 54 -105.999 130.665 -105.999 229.998v1c0 35.333 7.16699 69.833 21.5 103.5s35.166 62.334 62.499 86.001s59.333 38.5 96 44.5c-48.667 20 -86.834 53 -114.501 99s-41.5 97 -41.5 153v1c0 86 33.333 152.333 100 199s161.334 70 284.001 70
c88 0 162.833 -14 224.5 -42s110.167 -70 145.5 -126v0l-148 -121v0c-30.667 34.667 -64.5 60.5 -101.5 77.5s-77.167 25.5 -120.5 25.5c-57.333 0 -101.666 -9.66699 -132.999 -29s-47 -47 -47 -83v-1c0 -40 9.5 -71 28.5 -93s45.833 -33 80.5 -33h173v-199h-173
c-42 0 -74.667 -9.66699 -98 -29s-35 -46.666 -35 -81.999v-1c0 -46 17.833 -81.833 53.5 -107.5s85.5 -38.5 149.5 -38.5c36 0 74.5 9.83301 115.5 29.5s79.833 48.167 116.5 85.5v0l139 -137v0c-42.667 -54.667 -94.834 -95.667 -156.501 -123s-133.167 -41 -214.5 -41
c-130 0 -230.333 27 -301 81z" />
    <glyph glyph-name="zeta" unicode="&#x3b6;" horiz-adv-x="1040" 
d="M806 -81c0 23.333 -5.33594 40.168 -16.0029 50.501s-27.667 15.5 -51 15.5h-151c-107.333 1.33301 -194.666 17.666 -261.999 48.999s-116.833 80 -148.5 146s-47.5 151.333 -47.5 256c0 67.333 10.667 131.666 32 192.999s54 122.666 98 183.999s101 127 171 197
l93 91.5l85 80.5c20 18.667 40.667 37 62 55l62 50l217 62v-106c-10 -6 -39.167 -28.833 -87.5 -68.5s-109.166 -94.167 -182.499 -163.5l-53 -51c-65.333 -63.333 -118.5 -122.666 -159.5 -177.999s-71.833 -111.333 -92.5 -168s-31 -116 -31 -178
c0 -93.333 20.333 -161.166 61 -203.499s106.334 -63.5 197.001 -63.5h190c76.667 0 132.167 -17.833 166.5 -53.5s51.5 -93.167 51.5 -172.5v-204h-204v180zM183.997 1249v205h766v-205h-766z" />
    <glyph glyph-name="eta" unicode="&#x3b7;" horiz-adv-x="1144" 
d="M160 1038h204v-1038h-204v1038zM790 629c0 73.333 -19.002 130.001 -57.002 170.001s-91.333 60 -160 60c-66.667 0 -118.167 -17.667 -154.5 -53s-54.5 -85 -54.5 -149l-21 200c32 62.667 73.833 111 125.5 145s108.834 51 171.501 51
c112.667 0 199.834 -36.833 261.501 -110.5s92.5 -177.834 92.5 -312.501v-901h-204v900z" />
    <glyph glyph-name="theta" unicode="&#x3b8;" horiz-adv-x="1116" 
d="M327 38c-64 35.333 -112.833 86.833 -146.5 154.5s-50.5 149.167 -50.5 244.5v585c0 94 16.833 174.5 50.5 241.5s82.5 118 146.5 153s141 52.5 231 52.5s167 -17.5 231 -52.5s112.833 -86 146.5 -153s50.5 -147.5 50.5 -241.5v-588
c0 -94.667 -16.833 -175.5 -50.5 -242.5s-82.5 -118.167 -146.5 -153.5s-141 -53 -231 -53s-167 17.667 -231 53zM723.5 246c39 44.667 58.5 107.334 58.5 188.001v588c0 80.667 -19.5 143 -58.5 187s-94.167 66 -165.5 66s-126.5 -22 -165.5 -66s-58.5 -106.333 -58.5 -187
v-588c0 -80.667 19.5 -143.334 58.5 -188.001s94.167 -67 165.5 -67s126.5 22.333 165.5 67zM259 819h584v-194h-584v194z" />
    <glyph glyph-name="iota" unicode="&#x3b9;" horiz-adv-x="594" 
d="M223.5 67c-42.333 48 -63.501 115.667 -63.501 203v768h204v-770c0 -25.333 5.5 -44.833 16.5 -58.5s26.5 -20.5 46.5 -20.5h96v-194h-120c-77.333 0 -137.166 24 -179.499 72z" />
    <glyph glyph-name="kappa" unicode="&#x3ba;" horiz-adv-x="1083" 
d="M277 392l476.001 549c32.667 37.333 66.667 65.333 102 84s72.666 28 111.999 28h54v-214h-34c-24.667 0 -48.667 -5.83301 -72 -17.5s-46 -29.167 -68 -52.5l-493 -527zM160.001 1038h204v-1038h-204v1038zM489.001 599l131 136l453 -735h-222z" />
    <glyph glyph-name="lambda" unicode="&#x3bb;" horiz-adv-x="1076" 
d="M228 0h-188l480 1118l87 -244zM310 1246.5c-14.667 13.667 -32.001 20.5 -52.001 20.5h-74v194h149c37.333 0 71 -13.167 101 -39.5s54.333 -64.833 73 -115.5l386 -1043c10 -25.333 22.333 -44.833 37 -58.5s32 -20.5 52 -20.5h54v-194h-129
c-36 0 -68.167 10.333 -96.5 31s-50.166 52 -65.499 94l-398 1073c-10 25.333 -22.333 44.833 -37 58.5z" />
    <glyph glyph-name="mu" unicode="&#x3bc;" horiz-adv-x="1219" 
d="M160 1038h204v-902h-11l11 -416h-204v1318zM444 10.5c-33.333 17 -58.502 42.499 -75.502 76.499s-26.5 77 -28.5 129l24 167c0 -68 17.333 -119 52 -153s86.334 -51 155.001 -51c72 0 125.833 17 161.5 51s53.5 85 53.5 153l34 -167
c-6.66699 -77.333 -30.667 -135.166 -72 -173.499s-100.333 -57.5 -177 -57.5c-51.333 0 -93.666 8.5 -126.999 25.5zM848.498 66.999c-42.333 48 -63.501 115.667 -63.501 203v768h204v-770c0 -25.333 5.5 -44.833 16.5 -58.5s26.5 -20.5 46.5 -20.5h96v-194h-120
c-77.333 0 -137.166 24 -179.499 72z" />
    <glyph glyph-name="nu" unicode="&#x3bd;" horiz-adv-x="1041" 
d="M447 0l-254 780c-8.66699 26 -20.5 45.667 -35.5 59s-32.833 20 -53.5 20h-44v194h94c35.333 0 68.333 -10.167 99 -30.5s58.167 -51 82.5 -92s44.5 -91.833 60.5 -152.5l128 -481l244 741h213l-380 -1038h-154z" />
    <glyph glyph-name="xi" unicode="&#x3be;" horiz-adv-x="1096" 
d="M802 -81c0 22 -5.50098 38.498 -16.501 49.498s-27.833 16.5 -50.5 16.5h-91c-166 0 -290.333 33.333 -373 100s-124 167 -124 301v24c0 98.667 22.333 177 67 235s112.334 96 203.001 114c-75.333 24.667 -131.833 61 -169.5 109s-56.5 107.667 -56.5 179v4
c0 88.667 37.5 154.334 112.5 197.001s188.833 64 341.5 64v-51c-83.333 0 -145.833 -17.333 -187.5 -52s-62.5 -86.667 -62.5 -156v-5c0 -65.333 19.833 -114.166 59.5 -146.499s99.5 -48.5 179.5 -48.5h263v-194h-263c-94.667 0 -165.5 -21.5 -212.5 -64.5
s-70.5 -107.5 -70.5 -193.5v-14c0 -72.667 24.333 -127.167 73 -163.5s122 -54.5 220 -54.5h184c59.333 0 103.833 -13.833 133.5 -41.5s44.5 -69.167 44.5 -124.5v-264h-204v180zM139.999 1454h836v-194h-836v194z" />
    <glyph glyph-name="omicron" unicode="&#x3bf;" horiz-adv-x="1116" 
d="M327 38c-64 35.333 -112.833 86.833 -146.5 154.5s-50.5 149.167 -50.5 244.5v169c0 94 16.833 174.5 50.5 241.5s82.5 118 146.5 153s141 52.5 231 52.5s167 -17.5 231 -52.5s112.833 -86 146.5 -153s50.5 -147.5 50.5 -241.5v-172
c0 -94.667 -16.833 -175.5 -50.5 -242.5s-82.5 -118.167 -146.5 -153.5s-141 -53 -231 -53s-167 17.667 -231 53zM723.5 246c39 44.667 58.5 107.334 58.5 188.001v172c0 80.667 -19.5 143 -58.5 187s-94.167 66 -165.5 66s-126.5 -22 -165.5 -66s-58.5 -106.333 -58.5 -187
v-172c0 -80.667 19.5 -143.334 58.5 -188.001s94.167 -67 165.5 -67s126.5 22.333 165.5 67z" />
    <glyph glyph-name="pi" unicode="&#x3c0;" horiz-adv-x="1386" 
d="M929.5 59.5c-39 46.333 -58.5 114.833 -58.5 205.5v665h204v-667c0 -25.333 5 -44.833 15 -58.5s24.667 -20.5 44 -20.5h98v-194h-118c-84 0 -145.5 23.167 -184.5 69.5zM301 929h204v-929h-204v929zM110 1038h1156v-194h-1156v194z" />
    <glyph glyph-name="rho" unicode="&#x3c1;" horiz-adv-x="1114" 
d="M160 629c0 89.333 16.1631 165.833 48.4961 229.5s79.333 112 141 145s135.834 49.5 222.501 49.5s160.834 -16.5 222.501 -49.5s108.667 -81.333 141 -145s48.5 -140.167 48.5 -229.5v-225c0 -88 -13.833 -163.333 -41.5 -226s-68 -110.5 -121 -143.5
s-116.833 -49.5 -191.5 -49.5c-69.333 0 -129.666 19 -180.999 57s-89.333 91.667 -114 161l29 177c0 -67.333 17.833 -119.333 53.5 -156s85.834 -55 150.501 -55c67.333 0 119.5 20.5 156.5 61.5s55.5 98.833 55.5 173.5v225c0 76.667 -18.167 135.834 -54.5 177.501
s-87.5 62.5 -153.5 62.5s-117.167 -20.833 -153.5 -62.5s-54.5 -100.834 -54.5 -177.501v-1051h-204v1051z" />
    </font>
</defs>
</svg>
